<ttFont>
    <TTGlyph name=".notdef" xMin="93" yMin="-220" xMax="738" yMax="1030">
      <contour>
        <pt x="93" y="1030" on="1"/>
        <pt x="738" y="1030" on="1"/>
        <pt x="738" y="-220" on="1"/>
        <pt x="93" y="-220" on="1"/>
      </contour>
      <contour>
        <pt x="639" y="-127" on="1"/>
        <pt x="639" y="938" on="1"/>
        <pt x="192" y="938" on="1"/>
        <pt x="192" y="-127" on="1"/>
      </contour>
    </TTGlyph>
    <TTGlyph name="A" xMin="5" yMin="0" xMax="737" yMax="740">
      <contour>
        <pt x="5" y="8" on="1"/>
        <pt x="281" y="740" on="1"/>
        <pt x="461" y="740" on="1"/>
        <pt x="737" y="8" on="1"/>
        <pt x="737" y="0" on="1"/>
        <pt x="619" y="0" on="1"/>
        <pt x="542" y="205" on="1"/>
        <pt x="199" y="205" on="1"/>
        <pt x="123" y="0" on="1"/>
        <pt x="5" y="0" on="1"/>
      </contour>
      <contour>
        <pt x="510" y="302" on="1"/>
        <pt x="428" y="517" on="1"/>
        <pt x="376" y="659" on="1"/>
        <pt x="365" y="659" on="1"/>
        <pt x="314" y="516" on="1"/>
        <pt x="232" y="302" on="1"/>
      </contour>
    </TTGlyph>
    <TTGlyph name="A.sc" xMin="10" yMin="0" xMax="664" yMax="577">
      <contour>
        <pt x="10" y="7" on="1"/>
        <pt x="252" y="577" on="1"/>
        <pt x="423" y="577" on="1"/>
        <pt x="664" y="7" on="1"/>
        <pt x="664" y="0" on="1"/>
        <pt x="552" y="0" on="1"/>
        <pt x="486" y="148" on="1"/>
        <pt x="187" y="148" on="1"/>
        <pt x="122" y="0" on="1"/>
        <pt x="10" y="0" on="1"/>
      </contour>
      <contour>
        <pt x="460" y="228" on="1"/>
        <pt x="387" y="396" on="1"/>
        <pt x="341" y="501" on="1"/>
        <pt x="331" y="501" on="1"/>
        <pt x="287" y="395" on="1"/>
        <pt x="213" y="228" on="1"/>
      </contour>
    </TTGlyph>
    <TTGlyph name="AE" xMin="3" yMin="0" xMax="918" yMax="740">
      <contour>
        <pt x="3" y="9" on="1"/>
        <pt x="324" y="740" on="1"/>
        <pt x="905" y="740" on="1"/>
        <pt x="905" y="646" on="1"/>
        <pt x="560" y="646" on="1"/>
        <pt x="572" y="421" on="1"/>
        <pt x="881" y="421" on="1"/>
        <pt x="881" y="326" on="1"/>
        <pt x="577" y="326" on="1"/>
        <pt x="590" y="94" on="1"/>
        <pt x="918" y="94" on="1"/>
        <pt x="918" y="0" on="1"/>
        <pt x="471" y="0" on="1"/>
        <pt x="462" y="204" on="1"/>
        <pt x="208" y="204" on="1"/>
        <pt x="118" y="0" on="1"/>
        <pt x="3" y="0" on="1"/>
      </contour>
      <contour>
        <pt x="251" y="302" on="1"/>
        <pt x="458" y="302" on="1"/>
        <pt x="444" y="653" on="1"/>
        <pt x="406" y="653" on="1"/>
      </contour>
    </TTGlyph>
    <TTGlyph name="AE.sc" xMin="9" yMin="0" xMax="831" yMax="577">
      <contour>
        <pt x="9" y="8" on="1"/>
        <pt x="295" y="577" on="1"/>
        <pt x="818" y="577" on="1"/>
        <pt x="818" y="491" on="1"/>
        <pt x="515" y="491" on="1"/>
        <pt x="524" y="329" on="1"/>
        <pt x="798" y="329" on="1"/>
        <pt x="798" y="254" on="1"/>
        <pt x="531" y="254" on="1"/>
        <pt x="542" y="86" on="1"/>
        <pt x="831" y="86" on="1"/>
        <pt x="831" y="0" on="1"/>
        <pt x="427" y="0" on="1"/>
        <pt x="421" y="148" on="1"/>
        <pt x="194" y="148" on="1"/>
        <pt x="120" y="0" on="1"/>
        <pt x="9" y="0" on="1"/>
      </contour>
      <contour>
        <pt x="235" y="225" on="1"/>
        <pt x="416" y="225" on="1"/>
        <pt x="405" y="497" on="1"/>
        <pt x="372" y="497" on="1"/>
      </contour>
    </TTGlyph>
    <TTGlyph name="AEacute" xMin="3" yMin="0" xMax="918" yMax="963">
      <contour>
        <pt x="501" y="813" on="1"/>
        <pt x="573" y="963" on="1"/>
        <pt x="694" y="963" on="1"/>
        <pt x="589" y="805" on="1"/>
      </contour>
      <contour>
        <pt x="3" y="9" on="1"/>
        <pt x="324" y="740" on="1"/>
        <pt x="905" y="740" on="1"/>
        <pt x="905" y="646" on="1"/>
        <pt x="560" y="646" on="1"/>
        <pt x="572" y="421" on="1"/>
        <pt x="881" y="421" on="1"/>
        <pt x="881" y="326" on="1"/>
        <pt x="577" y="326" on="1"/>
        <pt x="590" y="94" on="1"/>
        <pt x="918" y="94" on="1"/>
        <pt x="918" y="0" on="1"/>
        <pt x="471" y="0" on="1"/>
        <pt x="462" y="204" on="1"/>
        <pt x="208" y="204" on="1"/>
        <pt x="118" y="0" on="1"/>
        <pt x="3" y="0" on="1"/>
      </contour>
      <contour>
        <pt x="251" y="302" on="1"/>
        <pt x="458" y="302" on="1"/>
        <pt x="444" y="653" on="1"/>
        <pt x="406" y="653" on="1"/>
      </contour>
    </TTGlyph>
    <TTGlyph name="AEacute.sc" xMin="9" yMin="0" xMax="831" yMax="760">
      <contour>
        <pt x="9" y="8" on="1"/>
        <pt x="295" y="577" on="1"/>
        <pt x="818" y="577" on="1"/>
        <pt x="818" y="491" on="1"/>
        <pt x="515" y="491" on="1"/>
        <pt x="524" y="329" on="1"/>
        <pt x="798" y="329" on="1"/>
        <pt x="798" y="254" on="1"/>
        <pt x="531" y="254" on="1"/>
        <pt x="542" y="86" on="1"/>
        <pt x="831" y="86" on="1"/>
        <pt x="831" y="0" on="1"/>
        <pt x="427" y="0" on="1"/>
        <pt x="421" y="148" on="1"/>
        <pt x="194" y="148" on="1"/>
        <pt x="120" y="0" on="1"/>
        <pt x="9" y="0" on="1"/>
      </contour>
      <contour>
        <pt x="416" y="225" on="1"/>
        <pt x="405" y="497" on="1"/>
        <pt x="372" y="497" on="1"/>
        <pt x="235" y="225" on="1"/>
      </contour>
      <contour>
        <pt x="447" y="636" on="1"/>
        <pt x="510" y="760" on="1"/>
        <pt x="626" y="760" on="1"/>
        <pt x="532" y="629" on="1"/>
      </contour>
    </TTGlyph>
    <TTGlyph name="Aacute" xMin="5" yMin="0" xMax="737" yMax="963">
      <contour>
        <pt x="5" y="8" on="1"/>
        <pt x="281" y="740" on="1"/>
        <pt x="461" y="740" on="1"/>
        <pt x="737" y="8" on="1"/>
        <pt x="737" y="0" on="1"/>
        <pt x="619" y="0" on="1"/>
        <pt x="542" y="205" on="1"/>
        <pt x="199" y="205" on="1"/>
        <pt x="123" y="0" on="1"/>
        <pt x="5" y="0" on="1"/>
      </contour>
      <contour>
        <pt x="510" y="302" on="1"/>
        <pt x="428" y="517" on="1"/>
        <pt x="376" y="659" on="1"/>
        <pt x="365" y="659" on="1"/>
        <pt x="314" y="516" on="1"/>
        <pt x="232" y="302" on="1"/>
      </contour>
      <contour>
        <pt x="322" y="813" on="1"/>
        <pt x="394" y="963" on="1"/>
        <pt x="515" y="963" on="1"/>
        <pt x="410" y="805" on="1"/>
      </contour>
    </TTGlyph>
    <TTGlyph name="Aacute.sc" xMin="10" yMin="0" xMax="664" yMax="760">
      <contour>
        <pt x="10" y="7" on="1"/>
        <pt x="252" y="577" on="1"/>
        <pt x="423" y="577" on="1"/>
        <pt x="664" y="7" on="1"/>
        <pt x="664" y="0" on="1"/>
        <pt x="552" y="0" on="1"/>
        <pt x="486" y="148" on="1"/>
        <pt x="187" y="148" on="1"/>
        <pt x="122" y="0" on="1"/>
        <pt x="10" y="0" on="1"/>
      </contour>
      <contour>
        <pt x="459" y="232" on="1"/>
        <pt x="387" y="396" on="1"/>
        <pt x="341" y="501" on="1"/>
        <pt x="331" y="501" on="1"/>
        <pt x="287" y="395" on="1"/>
        <pt x="214" y="232" on="1"/>
      </contour>
      <contour>
        <pt x="291" y="636" on="1"/>
        <pt x="352" y="760" on="1"/>
        <pt x="468" y="760" on="1"/>
        <pt x="374" y="629" on="1"/>
      </contour>
    </TTGlyph>
    <TTGlyph name="Abreve" xMin="5" yMin="0" xMax="737" yMax="972">
      <contour>
        <pt x="5" y="8" on="1"/>
        <pt x="281" y="740" on="1"/>
        <pt x="461" y="740" on="1"/>
        <pt x="737" y="8" on="1"/>
        <pt x="737" y="0" on="1"/>
        <pt x="619" y="0" on="1"/>
        <pt x="542" y="205" on="1"/>
        <pt x="199" y="205" on="1"/>
        <pt x="123" y="0" on="1"/>
        <pt x="5" y="0" on="1"/>
      </contour>
      <contour>
        <pt x="510" y="302" on="1"/>
        <pt x="428" y="517" on="1"/>
        <pt x="376" y="659" on="1"/>
        <pt x="365" y="659" on="1"/>
        <pt x="314" y="516" on="1"/>
        <pt x="232" y="302" on="1"/>
      </contour>
      <contour>
        <pt x="371" y="814" on="1"/>
        <pt x="317" y="814" on="0"/>
        <pt x="241" y="837" on="0"/>
        <pt x="191" y="879" on="0"/>
        <pt x="168" y="937" on="0"/>
        <pt x="168" y="972" on="1"/>
        <pt x="251" y="972" on="1"/>
        <pt x="251" y="928" on="0"/>
        <pt x="309" y="878" on="0"/>
        <pt x="371" y="878" on="1"/>
        <pt x="434" y="878" on="0"/>
        <pt x="492" y="928" on="0"/>
        <pt x="492" y="972" on="1"/>
        <pt x="575" y="972" on="1"/>
        <pt x="575" y="902" on="0"/>
        <pt x="478" y="814" on="0"/>
      </contour>
    </TTGlyph>
    <TTGlyph name="Abreve.sc" xMin="10" yMin="0" xMax="664" yMax="766">
      <contour>
        <pt x="337" y="635" on="1"/>
        <pt x="287" y="635" on="0"/>
        <pt x="218" y="655" on="0"/>
        <pt x="173" y="690" on="0"/>
        <pt x="153" y="738" on="0"/>
        <pt x="153" y="766" on="1"/>
        <pt x="231" y="766" on="1"/>
        <pt x="231" y="731" on="0"/>
        <pt x="281" y="693" on="0"/>
        <pt x="337" y="693" on="1"/>
        <pt x="394" y="693" on="0"/>
        <pt x="444" y="731" on="0"/>
        <pt x="444" y="766" on="1"/>
        <pt x="521" y="766" on="1"/>
        <pt x="521" y="709" on="0"/>
        <pt x="435" y="635" on="0"/>
      </contour>
      <contour>
        <pt x="10" y="7" on="1"/>
        <pt x="252" y="577" on="1"/>
        <pt x="423" y="577" on="1"/>
        <pt x="664" y="7" on="1"/>
        <pt x="664" y="0" on="1"/>
        <pt x="552" y="0" on="1"/>
        <pt x="486" y="148" on="1"/>
        <pt x="187" y="148" on="1"/>
        <pt x="122" y="0" on="1"/>
        <pt x="10" y="0" on="1"/>
      </contour>
      <contour>
        <pt x="459" y="232" on="1"/>
        <pt x="387" y="396" on="1"/>
        <pt x="341" y="501" on="1"/>
        <pt x="331" y="501" on="1"/>
        <pt x="287" y="395" on="1"/>
        <pt x="214" y="232" on="1"/>
      </contour>
    </TTGlyph>
    <TTGlyph name="Acircumflex" xMin="5" yMin="0" xMax="737" yMax="973">
      <contour>
        <pt x="5" y="8" on="1"/>
        <pt x="281" y="740" on="1"/>
        <pt x="461" y="740" on="1"/>
        <pt x="737" y="8" on="1"/>
        <pt x="737" y="0" on="1"/>
        <pt x="619" y="0" on="1"/>
        <pt x="542" y="205" on="1"/>
        <pt x="199" y="205" on="1"/>
        <pt x="123" y="0" on="1"/>
        <pt x="5" y="0" on="1"/>
      </contour>
      <contour>
        <pt x="510" y="302" on="1"/>
        <pt x="428" y="517" on="1"/>
        <pt x="376" y="659" on="1"/>
        <pt x="365" y="659" on="1"/>
        <pt x="314" y="516" on="1"/>
        <pt x="232" y="302" on="1"/>
      </contour>
      <contour>
        <pt x="185" y="896" on="1"/>
        <pt x="371" y="973" on="1"/>
        <pt x="559" y="896" on="1"/>
        <pt x="559" y="809" on="1"/>
        <pt x="372" y="885" on="1"/>
        <pt x="185" y="809" on="1"/>
      </contour>
    </TTGlyph>
    <TTGlyph name="Acircumflex.sc" xMin="10" yMin="0" xMax="664" yMax="769">
      <contour>
        <pt x="10" y="7" on="1"/>
        <pt x="252" y="577" on="1"/>
        <pt x="423" y="577" on="1"/>
        <pt x="664" y="7" on="1"/>
        <pt x="664" y="0" on="1"/>
        <pt x="552" y="0" on="1"/>
        <pt x="486" y="148" on="1"/>
        <pt x="187" y="148" on="1"/>
        <pt x="122" y="0" on="1"/>
        <pt x="10" y="0" on="1"/>
      </contour>
      <contour>
        <pt x="459" y="232" on="1"/>
        <pt x="387" y="396" on="1"/>
        <pt x="341" y="501" on="1"/>
        <pt x="331" y="501" on="1"/>
        <pt x="287" y="395" on="1"/>
        <pt x="214" y="232" on="1"/>
      </contour>
      <contour>
        <pt x="170" y="708" on="1"/>
        <pt x="337" y="769" on="1"/>
        <pt x="507" y="708" on="1"/>
        <pt x="507" y="630" on="1"/>
        <pt x="339" y="690" on="1"/>
        <pt x="170" y="630" on="1"/>
      </contour>
    </TTGlyph>
    <TTGlyph name="Adblgrave" xMin="5" yMin="0" xMax="737" yMax="957">
      <contour>
        <pt x="5" y="8" on="1"/>
        <pt x="281" y="740" on="1"/>
        <pt x="461" y="740" on="1"/>
        <pt x="737" y="8" on="1"/>
        <pt x="737" y="0" on="1"/>
        <pt x="619" y="0" on="1"/>
        <pt x="542" y="205" on="1"/>
        <pt x="199" y="205" on="1"/>
        <pt x="123" y="0" on="1"/>
        <pt x="5" y="0" on="1"/>
      </contour>
      <contour>
        <pt x="510" y="302" on="1"/>
        <pt x="428" y="517" on="1"/>
        <pt x="376" y="659" on="1"/>
        <pt x="365" y="659" on="1"/>
        <pt x="314" y="516" on="1"/>
        <pt x="232" y="302" on="1"/>
      </contour>
      <contour>
        <pt x="232" y="800" on="1"/>
        <pt x="127" y="957" on="1"/>
        <pt x="247" y="957" on="1"/>
        <pt x="318" y="812" on="1"/>
      </contour>
      <contour>
        <pt x="412" y="800" on="1"/>
        <pt x="306" y="957" on="1"/>
        <pt x="426" y="957" on="1"/>
        <pt x="498" y="812" on="1"/>
      </contour>
    </TTGlyph>
    <TTGlyph name="Adblgrave.sc" xMin="10" yMin="0" xMax="664" yMax="756">
      <contour>
        <pt x="10" y="7" on="1"/>
        <pt x="252" y="577" on="1"/>
        <pt x="423" y="577" on="1"/>
        <pt x="664" y="7" on="1"/>
        <pt x="664" y="0" on="1"/>
        <pt x="552" y="0" on="1"/>
        <pt x="486" y="148" on="1"/>
        <pt x="187" y="148" on="1"/>
        <pt x="122" y="0" on="1"/>
        <pt x="10" y="0" on="1"/>
      </contour>
      <contour>
        <pt x="459" y="232" on="1"/>
        <pt x="387" y="396" on="1"/>
        <pt x="341" y="501" on="1"/>
        <pt x="331" y="501" on="1"/>
        <pt x="287" y="395" on="1"/>
        <pt x="214" y="232" on="1"/>
      </contour>
      <contour>
        <pt x="113" y="756" on="1"/>
        <pt x="228" y="756" on="1"/>
        <pt x="289" y="635" on="1"/>
        <pt x="207" y="626" on="1"/>
      </contour>
      <contour>
        <pt x="277" y="756" on="1"/>
        <pt x="392" y="756" on="1"/>
        <pt x="453" y="635" on="1"/>
        <pt x="371" y="626" on="1"/>
      </contour>
    </TTGlyph>
    <TTGlyph name="Adieresis" xMin="5" yMin="0" xMax="737" yMax="955">
      <contour>
        <pt x="5" y="8" on="1"/>
        <pt x="281" y="740" on="1"/>
        <pt x="461" y="740" on="1"/>
        <pt x="737" y="8" on="1"/>
        <pt x="737" y="0" on="1"/>
        <pt x="619" y="0" on="1"/>
        <pt x="542" y="205" on="1"/>
        <pt x="199" y="205" on="1"/>
        <pt x="123" y="0" on="1"/>
        <pt x="5" y="0" on="1"/>
      </contour>
      <contour>
        <pt x="510" y="302" on="1"/>
        <pt x="428" y="517" on="1"/>
        <pt x="376" y="659" on="1"/>
        <pt x="365" y="659" on="1"/>
        <pt x="314" y="516" on="1"/>
        <pt x="232" y="302" on="1"/>
      </contour>
      <contour>
        <pt x="226" y="817" on="1"/>
        <pt x="190" y="817" on="0"/>
        <pt x="156" y="850" on="0"/>
        <pt x="156" y="886" on="1"/>
        <pt x="156" y="922" on="0"/>
        <pt x="190" y="955" on="0"/>
        <pt x="226" y="955" on="1"/>
        <pt x="297" y="955" on="0"/>
        <pt x="297" y="886" on="1"/>
        <pt x="297" y="817" on="0"/>
      </contour>
      <contour>
        <pt x="516" y="817" on="1"/>
        <pt x="479" y="817" on="0"/>
        <pt x="445" y="850" on="0"/>
        <pt x="445" y="886" on="1"/>
        <pt x="445" y="922" on="0"/>
        <pt x="479" y="955" on="0"/>
        <pt x="516" y="955" on="1"/>
        <pt x="586" y="955" on="0"/>
        <pt x="586" y="886" on="1"/>
        <pt x="586" y="817" on="0"/>
      </contour>
    </TTGlyph>
    <TTGlyph name="Adieresis.sc" xMin="10" yMin="0" xMax="664" yMax="760">
      <contour>
        <pt x="207" y="634" on="1"/>
        <pt x="173" y="634" on="0"/>
        <pt x="142" y="664" on="0"/>
        <pt x="142" y="697" on="1"/>
        <pt x="142" y="760" on="0"/>
        <pt x="207" y="760" on="1"/>
        <pt x="275" y="760" on="0"/>
        <pt x="275" y="697" on="1"/>
        <pt x="275" y="634" on="0"/>
      </contour>
      <contour>
        <pt x="466" y="634" on="1"/>
        <pt x="431" y="634" on="0"/>
        <pt x="400" y="664" on="0"/>
        <pt x="400" y="697" on="1"/>
        <pt x="400" y="729" on="0"/>
        <pt x="431" y="760" on="0"/>
        <pt x="466" y="760" on="1"/>
        <pt x="501" y="760" on="0"/>
        <pt x="532" y="729" on="0"/>
        <pt x="532" y="697" on="1"/>
        <pt x="532" y="665" on="0"/>
        <pt x="501" y="634" on="0"/>
      </contour>
      <contour>
        <pt x="10" y="7" on="1"/>
        <pt x="252" y="577" on="1"/>
        <pt x="423" y="577" on="1"/>
        <pt x="664" y="7" on="1"/>
        <pt x="664" y="0" on="1"/>
        <pt x="552" y="0" on="1"/>
        <pt x="486" y="148" on="1"/>
        <pt x="187" y="148" on="1"/>
        <pt x="122" y="0" on="1"/>
        <pt x="10" y="0" on="1"/>
      </contour>
      <contour>
        <pt x="459" y="232" on="1"/>
        <pt x="387" y="396" on="1"/>
        <pt x="341" y="501" on="1"/>
        <pt x="331" y="501" on="1"/>
        <pt x="287" y="395" on="1"/>
        <pt x="214" y="232" on="1"/>
      </contour>
    </TTGlyph>
    <TTGlyph name="Agrave" xMin="5" yMin="0" xMax="737" yMax="963">
      <contour>
        <pt x="5" y="8" on="1"/>
        <pt x="281" y="740" on="1"/>
        <pt x="461" y="740" on="1"/>
        <pt x="737" y="8" on="1"/>
        <pt x="737" y="0" on="1"/>
        <pt x="619" y="0" on="1"/>
        <pt x="542" y="205" on="1"/>
        <pt x="199" y="205" on="1"/>
        <pt x="123" y="0" on="1"/>
        <pt x="5" y="0" on="1"/>
      </contour>
      <contour>
        <pt x="510" y="302" on="1"/>
        <pt x="428" y="517" on="1"/>
        <pt x="376" y="659" on="1"/>
        <pt x="365" y="659" on="1"/>
        <pt x="314" y="516" on="1"/>
        <pt x="232" y="302" on="1"/>
      </contour>
      <contour>
        <pt x="320" y="805" on="1"/>
        <pt x="215" y="963" on="1"/>
        <pt x="337" y="963" on="1"/>
        <pt x="408" y="818" on="1"/>
      </contour>
    </TTGlyph>
    <TTGlyph name="Agrave.sc" xMin="10" yMin="0" xMax="664" yMax="760">
      <contour>
        <pt x="10" y="7" on="1"/>
        <pt x="252" y="577" on="1"/>
        <pt x="423" y="577" on="1"/>
        <pt x="664" y="7" on="1"/>
        <pt x="664" y="0" on="1"/>
        <pt x="552" y="0" on="1"/>
        <pt x="486" y="148" on="1"/>
        <pt x="187" y="148" on="1"/>
        <pt x="122" y="0" on="1"/>
        <pt x="10" y="0" on="1"/>
      </contour>
      <contour>
        <pt x="459" y="232" on="1"/>
        <pt x="387" y="396" on="1"/>
        <pt x="341" y="501" on="1"/>
        <pt x="331" y="501" on="1"/>
        <pt x="287" y="395" on="1"/>
        <pt x="214" y="232" on="1"/>
      </contour>
      <contour>
        <pt x="288" y="629" on="1"/>
        <pt x="193" y="760" on="1"/>
        <pt x="310" y="760" on="1"/>
        <pt x="371" y="639" on="1"/>
      </contour>
    </TTGlyph>
    <TTGlyph name="Ainvertedbreve" xMin="5" yMin="0" xMax="737" yMax="976">
      <contour>
        <pt x="5" y="8" on="1"/>
        <pt x="281" y="740" on="1"/>
        <pt x="461" y="740" on="1"/>
        <pt x="737" y="8" on="1"/>
        <pt x="737" y="0" on="1"/>
        <pt x="619" y="0" on="1"/>
        <pt x="542" y="205" on="1"/>
        <pt x="199" y="205" on="1"/>
        <pt x="123" y="0" on="1"/>
        <pt x="5" y="0" on="1"/>
      </contour>
      <contour>
        <pt x="510" y="302" on="1"/>
        <pt x="428" y="517" on="1"/>
        <pt x="376" y="659" on="1"/>
        <pt x="365" y="659" on="1"/>
        <pt x="314" y="516" on="1"/>
        <pt x="232" y="302" on="1"/>
      </contour>
      <contour>
        <pt x="492" y="819" on="1"/>
        <pt x="492" y="863" on="0"/>
        <pt x="434" y="912" on="0"/>
        <pt x="371" y="912" on="1"/>
        <pt x="308" y="912" on="0"/>
        <pt x="250" y="863" on="0"/>
        <pt x="250" y="819" on="1"/>
        <pt x="167" y="819" on="1"/>
        <pt x="167" y="888" on="0"/>
        <pt x="264" y="976" on="0"/>
        <pt x="371" y="976" on="1"/>
        <pt x="478" y="976" on="0"/>
        <pt x="575" y="889" on="0"/>
        <pt x="575" y="819" on="1"/>
      </contour>
    </TTGlyph>
    <TTGlyph name="Ainvertedbreve.sc" xMin="10" yMin="0" xMax="664" yMax="770">
      <contour>
        <pt x="153" y="639" on="1"/>
        <pt x="153" y="667" on="0"/>
        <pt x="173" y="715" on="0"/>
        <pt x="218" y="750" on="0"/>
        <pt x="287" y="770" on="0"/>
        <pt x="337" y="770" on="1"/>
        <pt x="435" y="770" on="0"/>
        <pt x="521" y="696" on="0"/>
        <pt x="521" y="639" on="1"/>
        <pt x="444" y="639" on="1"/>
        <pt x="444" y="673" on="0"/>
        <pt x="394" y="711" on="0"/>
        <pt x="337" y="711" on="1"/>
        <pt x="281" y="711" on="0"/>
        <pt x="231" y="673" on="0"/>
        <pt x="231" y="639" on="1"/>
      </contour>
      <contour>
        <pt x="10" y="7" on="1"/>
        <pt x="252" y="577" on="1"/>
        <pt x="423" y="577" on="1"/>
        <pt x="664" y="7" on="1"/>
        <pt x="664" y="0" on="1"/>
        <pt x="552" y="0" on="1"/>
        <pt x="486" y="148" on="1"/>
        <pt x="187" y="148" on="1"/>
        <pt x="122" y="0" on="1"/>
        <pt x="10" y="0" on="1"/>
      </contour>
      <contour>
        <pt x="459" y="232" on="1"/>
        <pt x="387" y="396" on="1"/>
        <pt x="341" y="501" on="1"/>
        <pt x="331" y="501" on="1"/>
        <pt x="287" y="395" on="1"/>
        <pt x="214" y="232" on="1"/>
      </contour>
    </TTGlyph>
    <TTGlyph name="Amacron" xMin="5" yMin="0" xMax="737" yMax="925">
      <contour>
        <pt x="5" y="8" on="1"/>
        <pt x="281" y="740" on="1"/>
        <pt x="461" y="740" on="1"/>
        <pt x="737" y="8" on="1"/>
        <pt x="737" y="0" on="1"/>
        <pt x="619" y="0" on="1"/>
        <pt x="542" y="205" on="1"/>
        <pt x="199" y="205" on="1"/>
        <pt x="123" y="0" on="1"/>
        <pt x="5" y="0" on="1"/>
      </contour>
      <contour>
        <pt x="510" y="302" on="1"/>
        <pt x="428" y="517" on="1"/>
        <pt x="376" y="659" on="1"/>
        <pt x="365" y="659" on="1"/>
        <pt x="314" y="516" on="1"/>
        <pt x="232" y="302" on="1"/>
      </contour>
      <contour>
        <pt x="187" y="925" on="1"/>
        <pt x="556" y="925" on="1"/>
        <pt x="556" y="842" on="1"/>
        <pt x="187" y="842" on="1"/>
      </contour>
    </TTGlyph>
    <TTGlyph name="Amacron.sc" xMin="10" yMin="0" xMax="664" yMax="733">
      <contour>
        <pt x="10" y="7" on="1"/>
        <pt x="252" y="577" on="1"/>
        <pt x="423" y="577" on="1"/>
        <pt x="664" y="7" on="1"/>
        <pt x="664" y="0" on="1"/>
        <pt x="552" y="0" on="1"/>
        <pt x="486" y="148" on="1"/>
        <pt x="187" y="148" on="1"/>
        <pt x="122" y="0" on="1"/>
        <pt x="10" y="0" on="1"/>
      </contour>
      <contour>
        <pt x="459" y="232" on="1"/>
        <pt x="387" y="396" on="1"/>
        <pt x="341" y="501" on="1"/>
        <pt x="331" y="501" on="1"/>
        <pt x="287" y="395" on="1"/>
        <pt x="214" y="232" on="1"/>
      </contour>
      <contour>
        <pt x="170" y="733" on="1"/>
        <pt x="505" y="733" on="1"/>
        <pt x="505" y="657" on="1"/>
        <pt x="170" y="657" on="1"/>
      </contour>
    </TTGlyph>
    <TTGlyph name="Aogonek" xMin="5" yMin="-220" xMax="737" yMax="740">
      <contour>
        <pt x="655" y="-220" on="1"/>
        <pt x="533" y="-220" on="0"/>
        <pt x="533" y="-135" on="1"/>
        <pt x="533" y="-98" on="0"/>
        <pt x="583" y="-34" on="0"/>
        <pt x="640" y="0" on="1"/>
        <pt x="619" y="0" on="1"/>
        <pt x="542" y="205" on="1"/>
        <pt x="199" y="205" on="1"/>
        <pt x="123" y="0" on="1"/>
        <pt x="5" y="0" on="1"/>
        <pt x="5" y="8" on="1"/>
        <pt x="281" y="740" on="1"/>
        <pt x="461" y="740" on="1"/>
        <pt x="737" y="8" on="1"/>
        <pt x="737" y="-16" on="1"/>
        <pt x="670" y="-48" on="0"/>
        <pt x="613" y="-98" on="0"/>
        <pt x="613" y="-124" on="1"/>
        <pt x="613" y="-154" on="0"/>
        <pt x="654" y="-154" on="1"/>
        <pt x="668" y="-154" on="0"/>
        <pt x="715" y="-147" on="0"/>
        <pt x="736" y="-142" on="1"/>
        <pt x="736" y="-208" on="1"/>
        <pt x="720" y="-214" on="0"/>
        <pt x="678" y="-220" on="0"/>
      </contour>
      <contour>
        <pt x="510" y="302" on="1"/>
        <pt x="428" y="517" on="1"/>
        <pt x="376" y="659" on="1"/>
        <pt x="365" y="659" on="1"/>
        <pt x="314" y="516" on="1"/>
        <pt x="232" y="302" on="1"/>
      </contour>
    </TTGlyph>
    <TTGlyph name="Aogonek.sc" xMin="9" yMin="-171" xMax="663" yMax="577">
      <contour>
        <pt x="588" y="-171" on="1"/>
        <pt x="534" y="-171" on="0"/>
        <pt x="478" y="-135" on="0"/>
        <pt x="478" y="-102" on="1"/>
        <pt x="478" y="-75" on="0"/>
        <pt x="519" y="-24" on="0"/>
        <pt x="565" y="0" on="1"/>
        <pt x="550" y="0" on="1"/>
        <pt x="485" y="148" on="1"/>
        <pt x="186" y="148" on="1"/>
        <pt x="121" y="0" on="1"/>
        <pt x="9" y="0" on="1"/>
        <pt x="9" y="7" on="1"/>
        <pt x="251" y="577" on="1"/>
        <pt x="422" y="577" on="1"/>
        <pt x="663" y="7" on="1"/>
        <pt x="663" y="-9" on="1"/>
        <pt x="600" y="-33" on="0"/>
        <pt x="554" y="-66" on="0"/>
        <pt x="554" y="-85" on="1"/>
        <pt x="554" y="-99" on="0"/>
        <pt x="571" y="-108" on="0"/>
        <pt x="588" y="-108" on="1"/>
        <pt x="602" y="-108" on="0"/>
        <pt x="648" y="-104" on="0"/>
        <pt x="663" y="-99" on="1"/>
        <pt x="663" y="-161" on="1"/>
        <pt x="646" y="-166" on="0"/>
        <pt x="607" y="-171" on="0"/>
      </contour>
      <contour>
        <pt x="457" y="232" on="1"/>
        <pt x="386" y="398" on="1"/>
        <pt x="340" y="501" on="1"/>
        <pt x="330" y="501" on="1"/>
        <pt x="286" y="397" on="1"/>
        <pt x="212" y="232" on="1"/>
      </contour>
    </TTGlyph>
    <TTGlyph name="Aring" xMin="5" yMin="0" xMax="737" yMax="1018">
      <contour>
        <pt x="5" y="8" on="1"/>
        <pt x="281" y="740" on="1"/>
        <pt x="461" y="740" on="1"/>
        <pt x="737" y="8" on="1"/>
        <pt x="737" y="0" on="1"/>
        <pt x="619" y="0" on="1"/>
        <pt x="542" y="205" on="1"/>
        <pt x="199" y="205" on="1"/>
        <pt x="123" y="0" on="1"/>
        <pt x="5" y="0" on="1"/>
      </contour>
      <contour>
        <pt x="510" y="302" on="1"/>
        <pt x="428" y="517" on="1"/>
        <pt x="376" y="659" on="1"/>
        <pt x="365" y="659" on="1"/>
        <pt x="314" y="516" on="1"/>
        <pt x="232" y="302" on="1"/>
      </contour>
      <contour>
        <pt x="373" y="795" on="1"/>
        <pt x="345" y="795" on="0"/>
        <pt x="297" y="811" on="0"/>
        <pt x="261" y="841" on="0"/>
        <pt x="241" y="881" on="0"/>
        <pt x="241" y="905" on="1"/>
        <pt x="241" y="930" on="0"/>
        <pt x="261" y="971" on="0"/>
        <pt x="297" y="1001" on="0"/>
        <pt x="345" y="1018" on="0"/>
        <pt x="373" y="1018" on="1"/>
        <pt x="401" y="1018" on="0"/>
        <pt x="449" y="1001" on="0"/>
        <pt x="484" y="971" on="0"/>
        <pt x="504" y="930" on="0"/>
        <pt x="504" y="905" on="1"/>
        <pt x="504" y="881" on="0"/>
        <pt x="484" y="841" on="0"/>
        <pt x="449" y="811" on="0"/>
        <pt x="401" y="795" on="0"/>
      </contour>
      <contour>
        <pt x="373" y="844" on="1"/>
        <pt x="447" y="844" on="0"/>
        <pt x="447" y="905" on="1"/>
        <pt x="447" y="968" on="0"/>
        <pt x="373" y="968" on="1"/>
        <pt x="298" y="968" on="0"/>
        <pt x="298" y="905" on="1"/>
        <pt x="298" y="844" on="0"/>
      </contour>
    </TTGlyph>
    <TTGlyph name="Aring.sc" xMin="10" yMin="0" xMax="664" yMax="797">
      <contour>
        <pt x="10" y="7" on="1"/>
        <pt x="252" y="577" on="1"/>
        <pt x="423" y="577" on="1"/>
        <pt x="664" y="7" on="1"/>
        <pt x="664" y="0" on="1"/>
        <pt x="552" y="0" on="1"/>
        <pt x="486" y="148" on="1"/>
        <pt x="187" y="148" on="1"/>
        <pt x="122" y="0" on="1"/>
        <pt x="10" y="0" on="1"/>
      </contour>
      <contour>
        <pt x="459" y="232" on="1"/>
        <pt x="387" y="396" on="1"/>
        <pt x="341" y="501" on="1"/>
        <pt x="331" y="501" on="1"/>
        <pt x="287" y="395" on="1"/>
        <pt x="214" y="232" on="1"/>
      </contour>
      <contour>
        <pt x="339" y="620" on="1"/>
        <pt x="314" y="620" on="0"/>
        <pt x="271" y="633" on="0"/>
        <pt x="239" y="656" on="0"/>
        <pt x="221" y="688" on="0"/>
        <pt x="221" y="708" on="1"/>
        <pt x="221" y="727" on="0"/>
        <pt x="239" y="760" on="0"/>
        <pt x="271" y="784" on="0"/>
        <pt x="314" y="797" on="0"/>
        <pt x="339" y="797" on="1"/>
        <pt x="389" y="797" on="0"/>
        <pt x="455" y="746" on="0"/>
        <pt x="455" y="708" on="1"/>
        <pt x="455" y="669" on="0"/>
        <pt x="390" y="620" on="0"/>
      </contour>
      <contour>
        <pt x="339" y="663" on="1"/>
        <pt x="403" y="663" on="0"/>
        <pt x="403" y="708" on="1"/>
        <pt x="403" y="754" on="0"/>
        <pt x="339" y="754" on="1"/>
        <pt x="273" y="754" on="0"/>
        <pt x="273" y="708" on="1"/>
        <pt x="273" y="663" on="0"/>
      </contour>
    </TTGlyph>
    <TTGlyph name="Aringacute" xMin="6" yMin="0" xMax="737" yMax="990">
      <contour>
        <pt x="6" y="8" on="1"/>
        <pt x="255" y="671" on="1"/>
        <pt x="233" y="685" on="0"/>
        <pt x="209" y="729" on="0"/>
        <pt x="209" y="757" on="1"/>
        <pt x="209" y="805" on="0"/>
        <pt x="277" y="872" on="0"/>
        <pt x="333" y="881" on="1"/>
        <pt x="390" y="990" on="1"/>
        <pt x="512" y="990" on="1"/>
        <pt x="435" y="874" on="1"/>
        <pt x="480" y="861" on="0"/>
        <pt x="533" y="799" on="0"/>
        <pt x="533" y="757" on="1"/>
        <pt x="533" y="730" on="0"/>
        <pt x="509" y="684" on="0"/>
        <pt x="488" y="668" on="1"/>
        <pt x="737" y="8" on="1"/>
        <pt x="737" y="0" on="1"/>
        <pt x="620" y="0" on="1"/>
        <pt x="543" y="204" on="1"/>
        <pt x="199" y="204" on="1"/>
        <pt x="123" y="0" on="1"/>
        <pt x="6" y="0" on="1"/>
      </contour>
      <contour>
        <pt x="371" y="692" on="1"/>
        <pt x="410" y="692" on="0"/>
        <pt x="457" y="727" on="0"/>
        <pt x="457" y="757" on="1"/>
        <pt x="457" y="787" on="0"/>
        <pt x="410" y="823" on="0"/>
        <pt x="371" y="823" on="1"/>
        <pt x="332" y="823" on="0"/>
        <pt x="286" y="787" on="0"/>
        <pt x="286" y="757" on="1"/>
        <pt x="286" y="727" on="0"/>
        <pt x="333" y="692" on="0"/>
      </contour>
      <contour>
        <pt x="510" y="302" on="1"/>
        <pt x="429" y="517" on="1"/>
        <pt x="391" y="623" on="1"/>
        <pt x="351" y="623" on="1"/>
        <pt x="312" y="516" on="1"/>
        <pt x="232" y="302" on="1"/>
      </contour>
    </TTGlyph>
    <TTGlyph name="Aringacute.sc" xMin="11" yMin="0" xMax="665" yMax="780">
      <contour>
        <pt x="11" y="7" on="1"/>
        <pt x="229" y="525" on="1"/>
        <pt x="191" y="551" on="0"/>
        <pt x="191" y="592" on="1"/>
        <pt x="191" y="631" on="0"/>
        <pt x="251" y="684" on="0"/>
        <pt x="302" y="692" on="1"/>
        <pt x="351" y="780" on="1"/>
        <pt x="467" y="780" on="1"/>
        <pt x="398" y="687" on="1"/>
        <pt x="438" y="676" on="0"/>
        <pt x="487" y="625" on="0"/>
        <pt x="487" y="592" on="1"/>
        <pt x="487" y="570" on="0"/>
        <pt x="465" y="536" on="0"/>
        <pt x="446" y="523" on="1"/>
        <pt x="665" y="7" on="1"/>
        <pt x="665" y="0" on="1"/>
        <pt x="552" y="0" on="1"/>
        <pt x="487" y="148" on="1"/>
        <pt x="187" y="148" on="1"/>
        <pt x="123" y="0" on="1"/>
        <pt x="11" y="0" on="1"/>
      </contour>
      <contour>
        <pt x="338" y="543" on="1"/>
        <pt x="373" y="543" on="0"/>
        <pt x="413" y="570" on="0"/>
        <pt x="413" y="592" on="1"/>
        <pt x="413" y="615" on="0"/>
        <pt x="373" y="641" on="0"/>
        <pt x="338" y="641" on="1"/>
        <pt x="303" y="641" on="0"/>
        <pt x="263" y="615" on="0"/>
        <pt x="263" y="592" on="1"/>
        <pt x="263" y="569" on="0"/>
        <pt x="304" y="543" on="0"/>
      </contour>
      <contour>
        <pt x="461" y="232" on="1"/>
        <pt x="387" y="396" on="1"/>
        <pt x="354" y="479" on="1"/>
        <pt x="320" y="479" on="1"/>
        <pt x="288" y="395" on="1"/>
        <pt x="216" y="232" on="1"/>
      </contour>
    </TTGlyph>
    <TTGlyph name="Atilde" xMin="5" yMin="0" xMax="737" yMax="955">
      <contour>
        <pt x="5" y="8" on="1"/>
        <pt x="281" y="740" on="1"/>
        <pt x="461" y="740" on="1"/>
        <pt x="737" y="8" on="1"/>
        <pt x="737" y="0" on="1"/>
        <pt x="619" y="0" on="1"/>
        <pt x="542" y="205" on="1"/>
        <pt x="199" y="205" on="1"/>
        <pt x="123" y="0" on="1"/>
        <pt x="5" y="0" on="1"/>
      </contour>
      <contour>
        <pt x="510" y="302" on="1"/>
        <pt x="428" y="517" on="1"/>
        <pt x="376" y="659" on="1"/>
        <pt x="365" y="659" on="1"/>
        <pt x="314" y="516" on="1"/>
        <pt x="232" y="302" on="1"/>
      </contour>
      <contour>
        <pt x="151" y="865" on="1"/>
        <pt x="183" y="911" on="0"/>
        <pt x="259" y="955" on="0"/>
        <pt x="295" y="955" on="1"/>
        <pt x="321" y="955" on="0"/>
        <pt x="368" y="942" on="0"/>
        <pt x="414" y="927" on="0"/>
        <pt x="460" y="915" on="0"/>
        <pt x="485" y="915" on="1"/>
        <pt x="511" y="915" on="0"/>
        <pt x="558" y="932" on="0"/>
        <pt x="586" y="953" on="1"/>
        <pt x="609" y="922" on="1"/>
        <pt x="578" y="877" on="0"/>
        <pt x="498" y="832" on="0"/>
        <pt x="460" y="832" on="1"/>
        <pt x="436" y="832" on="0"/>
        <pt x="389" y="844" on="0"/>
        <pt x="342" y="859" on="0"/>
        <pt x="295" y="871" on="0"/>
        <pt x="272" y="871" on="1"/>
        <pt x="248" y="871" on="0"/>
        <pt x="201" y="856" on="0"/>
        <pt x="175" y="835" on="1"/>
      </contour>
    </TTGlyph>
    <TTGlyph name="Atilde.sc" xMin="10" yMin="0" xMax="664" yMax="756">
      <contour>
        <pt x="10" y="7" on="1"/>
        <pt x="252" y="577" on="1"/>
        <pt x="423" y="577" on="1"/>
        <pt x="664" y="7" on="1"/>
        <pt x="664" y="0" on="1"/>
        <pt x="552" y="0" on="1"/>
        <pt x="486" y="148" on="1"/>
        <pt x="187" y="148" on="1"/>
        <pt x="122" y="0" on="1"/>
        <pt x="10" y="0" on="1"/>
      </contour>
      <contour>
        <pt x="459" y="232" on="1"/>
        <pt x="387" y="396" on="1"/>
        <pt x="341" y="501" on="1"/>
        <pt x="331" y="501" on="1"/>
        <pt x="287" y="395" on="1"/>
        <pt x="214" y="232" on="1"/>
      </contour>
      <contour>
        <pt x="139" y="675" on="1"/>
        <pt x="168" y="716" on="0"/>
        <pt x="236" y="756" on="0"/>
        <pt x="269" y="756" on="1"/>
        <pt x="292" y="756" on="0"/>
        <pt x="335" y="747" on="0"/>
        <pt x="376" y="735" on="0"/>
        <pt x="418" y="726" on="0"/>
        <pt x="440" y="726" on="1"/>
        <pt x="462" y="726" on="0"/>
        <pt x="505" y="738" on="0"/>
        <pt x="531" y="754" on="1"/>
        <pt x="551" y="729" on="1"/>
        <pt x="522" y="689" on="0"/>
        <pt x="450" y="648" on="0"/>
        <pt x="417" y="648" on="1"/>
        <pt x="395" y="648" on="0"/>
        <pt x="352" y="658" on="0"/>
        <pt x="309" y="669" on="0"/>
        <pt x="267" y="679" on="0"/>
        <pt x="246" y="679" on="1"/>
        <pt x="224" y="679" on="0"/>
        <pt x="182" y="667" on="0"/>
        <pt x="159" y="650" on="1"/>
      </contour>
    </TTGlyph>
    <TTGlyph name="B" xMin="89" yMin="-10" xMax="672" yMax="749">
      <contour>
        <pt x="365" y="-10" on="1"/>
        <pt x="299" y="-10" on="0"/>
        <pt x="167" y="-3" on="0"/>
        <pt x="89" y="5" on="1"/>
        <pt x="89" y="735" on="1"/>
        <pt x="165" y="742" on="0"/>
        <pt x="287" y="749" on="0"/>
        <pt x="345" y="749" on="1"/>
        <pt x="425" y="749" on="0"/>
        <pt x="540" y="726" on="0"/>
        <pt x="613" y="677" on="0"/>
        <pt x="647" y="601" on="0"/>
        <pt x="647" y="547" on="1"/>
        <pt x="647" y="482" on="0"/>
        <pt x="578" y="394" on="0"/>
        <pt x="515" y="380" on="1"/>
        <pt x="515" y="376" on="1"/>
        <pt x="593" y="361" on="0"/>
        <pt x="672" y="270" on="0"/>
        <pt x="672" y="197" on="1"/>
        <pt x="672" y="91" on="0"/>
        <pt x="521" y="-10" on="0"/>
      </contour>
      <contour>
        <pt x="358" y="77" on="1"/>
        <pt x="459" y="77" on="0"/>
        <pt x="554" y="140" on="0"/>
        <pt x="554" y="207" on="1"/>
        <pt x="554" y="273" on="0"/>
        <pt x="467" y="335" on="0"/>
        <pt x="376" y="335" on="1"/>
        <pt x="204" y="335" on="1"/>
        <pt x="204" y="85" on="1"/>
        <pt x="216" y="83" on="0"/>
        <pt x="244" y="80" on="0"/>
        <pt x="280" y="78" on="0"/>
        <pt x="327" y="77" on="0"/>
      </contour>
      <contour>
        <pt x="367" y="416" on="1"/>
        <pt x="455" y="416" on="0"/>
        <pt x="530" y="472" on="0"/>
        <pt x="530" y="540" on="1"/>
        <pt x="530" y="574" on="0"/>
        <pt x="511" y="620" on="0"/>
        <pt x="468" y="649" on="0"/>
        <pt x="399" y="662" on="0"/>
        <pt x="350" y="662" on="1"/>
        <pt x="303" y="662" on="0"/>
        <pt x="233" y="659" on="0"/>
        <pt x="204" y="654" on="1"/>
        <pt x="204" y="416" on="1"/>
      </contour>
    </TTGlyph>
    <TTGlyph name="B.sc" xMin="83" yMin="-8" xMax="607" yMax="584">
      <contour>
        <pt x="336" y="-8" on="1"/>
        <pt x="276" y="-8" on="0"/>
        <pt x="155" y="-2" on="0"/>
        <pt x="83" y="4" on="1"/>
        <pt x="83" y="573" on="1"/>
        <pt x="152" y="578" on="0"/>
        <pt x="263" y="584" on="0"/>
        <pt x="316" y="584" on="1"/>
        <pt x="458" y="584" on="0"/>
        <pt x="585" y="509" on="0"/>
        <pt x="585" y="425" on="1"/>
        <pt x="585" y="375" on="0"/>
        <pt x="524" y="308" on="0"/>
        <pt x="468" y="297" on="1"/>
        <pt x="468" y="294" on="1"/>
        <pt x="607" y="270" on="0"/>
        <pt x="607" y="155" on="1"/>
        <pt x="607" y="71" on="0"/>
        <pt x="475" y="-8" on="0"/>
      </contour>
      <contour>
        <pt x="329" y="71" on="1"/>
        <pt x="414" y="71" on="0"/>
        <pt x="494" y="117" on="0"/>
        <pt x="494" y="166" on="1"/>
        <pt x="494" y="214" on="0"/>
        <pt x="422" y="257" on="0"/>
        <pt x="345" y="257" on="1"/>
        <pt x="194" y="257" on="1"/>
        <pt x="194" y="77" on="1"/>
        <pt x="214" y="73" on="0"/>
        <pt x="272" y="71" on="0"/>
      </contour>
      <contour>
        <pt x="334" y="328" on="1"/>
        <pt x="409" y="328" on="0"/>
        <pt x="473" y="369" on="0"/>
        <pt x="473" y="417" on="1"/>
        <pt x="473" y="466" on="0"/>
        <pt x="404" y="506" on="0"/>
        <pt x="319" y="506" on="1"/>
        <pt x="279" y="506" on="0"/>
        <pt x="218" y="504" on="0"/>
        <pt x="194" y="500" on="1"/>
        <pt x="194" y="328" on="1"/>
      </contour>
    </TTGlyph>
    <TTGlyph name="C" xMin="50" yMin="-10" xMax="588" yMax="752">
      <contour>
        <pt x="410" y="-10" on="1"/>
        <pt x="230" y="-10" on="0"/>
        <pt x="50" y="179" on="0"/>
        <pt x="50" y="368" on="1"/>
        <pt x="50" y="560" on="0"/>
        <pt x="228" y="752" on="0"/>
        <pt x="405" y="752" on="1"/>
        <pt x="441" y="752" on="0"/>
        <pt x="536" y="741" on="0"/>
        <pt x="588" y="733" on="1"/>
        <pt x="588" y="634" on="1"/>
        <pt x="526" y="644" on="0"/>
        <pt x="448" y="652" on="0"/>
        <pt x="417" y="652" on="1"/>
        <pt x="289" y="652" on="0"/>
        <pt x="172" y="517" on="0"/>
        <pt x="172" y="369" on="1"/>
        <pt x="172" y="223" on="0"/>
        <pt x="285" y="89" on="0"/>
        <pt x="410" y="89" on="1"/>
        <pt x="428" y="89" on="0"/>
        <pt x="477" y="92" on="0"/>
        <pt x="527" y="98" on="0"/>
        <pt x="573" y="106" on="0"/>
        <pt x="588" y="110" on="1"/>
        <pt x="588" y="12" on="1"/>
        <pt x="568" y="7" on="0"/>
        <pt x="522" y="-1" on="0"/>
        <pt x="474" y="-7" on="0"/>
        <pt x="429" y="-10" on="0"/>
      </contour>
    </TTGlyph>
    <TTGlyph name="C.sc" xMin="50" yMin="-9" xMax="528" yMax="587">
      <contour>
        <pt x="372" y="-9" on="1"/>
        <pt x="50" y="-9" on="0"/>
        <pt x="50" y="287" on="1"/>
        <pt x="50" y="587" on="0"/>
        <pt x="366" y="587" on="1"/>
        <pt x="401" y="587" on="0"/>
        <pt x="486" y="579" on="0"/>
        <pt x="528" y="573" on="1"/>
        <pt x="528" y="479" on="1"/>
        <pt x="480" y="486" on="0"/>
        <pt x="411" y="493" on="0"/>
        <pt x="378" y="493" on="1"/>
        <pt x="321" y="493" on="0"/>
        <pt x="240" y="469" on="0"/>
        <pt x="190" y="420" on="0"/>
        <pt x="167" y="342" on="0"/>
        <pt x="167" y="288" on="1"/>
        <pt x="167" y="234" on="0"/>
        <pt x="189" y="158" on="0"/>
        <pt x="238" y="109" on="0"/>
        <pt x="316" y="86" on="0"/>
        <pt x="372" y="86" on="1"/>
        <pt x="388" y="86" on="0"/>
        <pt x="431" y="88" on="0"/>
        <pt x="475" y="92" on="0"/>
        <pt x="515" y="97" on="0"/>
        <pt x="528" y="100" on="1"/>
        <pt x="528" y="7" on="1"/>
        <pt x="511" y="4" on="0"/>
        <pt x="472" y="-2" on="0"/>
        <pt x="430" y="-7" on="0"/>
        <pt x="389" y="-9" on="0"/>
      </contour>
    </TTGlyph>
    <TTGlyph name="Cacute" xMin="50" yMin="-10" xMax="588" yMax="963">
      <contour>
        <pt x="410" y="-10" on="1"/>
        <pt x="230" y="-10" on="0"/>
        <pt x="50" y="179" on="0"/>
        <pt x="50" y="368" on="1"/>
        <pt x="50" y="560" on="0"/>
        <pt x="228" y="752" on="0"/>
        <pt x="405" y="752" on="1"/>
        <pt x="441" y="752" on="0"/>
        <pt x="536" y="741" on="0"/>
        <pt x="588" y="733" on="1"/>
        <pt x="588" y="634" on="1"/>
        <pt x="526" y="644" on="0"/>
        <pt x="448" y="652" on="0"/>
        <pt x="417" y="652" on="1"/>
        <pt x="289" y="652" on="0"/>
        <pt x="172" y="517" on="0"/>
        <pt x="172" y="369" on="1"/>
        <pt x="172" y="223" on="0"/>
        <pt x="285" y="89" on="0"/>
        <pt x="410" y="89" on="1"/>
        <pt x="428" y="89" on="0"/>
        <pt x="477" y="92" on="0"/>
        <pt x="527" y="98" on="0"/>
        <pt x="573" y="106" on="0"/>
        <pt x="588" y="110" on="1"/>
        <pt x="588" y="12" on="1"/>
        <pt x="568" y="7" on="0"/>
        <pt x="522" y="-1" on="0"/>
        <pt x="474" y="-7" on="0"/>
        <pt x="429" y="-10" on="0"/>
      </contour>
      <contour>
        <pt x="312" y="813" on="1"/>
        <pt x="384" y="963" on="1"/>
        <pt x="505" y="963" on="1"/>
        <pt x="400" y="805" on="1"/>
      </contour>
    </TTGlyph>
    <TTGlyph name="Cacute.sc" xMin="50" yMin="-9" xMax="528" yMax="760">
      <contour>
        <pt x="372" y="-9" on="1"/>
        <pt x="50" y="-9" on="0"/>
        <pt x="50" y="287" on="1"/>
        <pt x="50" y="587" on="0"/>
        <pt x="366" y="587" on="1"/>
        <pt x="397" y="587" on="0"/>
        <pt x="480" y="580" on="0"/>
        <pt x="528" y="573" on="1"/>
        <pt x="528" y="479" on="1"/>
        <pt x="472" y="486" on="0"/>
        <pt x="404" y="493" on="0"/>
        <pt x="377" y="493" on="1"/>
        <pt x="321" y="493" on="0"/>
        <pt x="242" y="470" on="0"/>
        <pt x="191" y="421" on="0"/>
        <pt x="167" y="343" on="0"/>
        <pt x="167" y="288" on="1"/>
        <pt x="167" y="234" on="0"/>
        <pt x="190" y="157" on="0"/>
        <pt x="239" y="109" on="0"/>
        <pt x="317" y="86" on="0"/>
        <pt x="372" y="86" on="1"/>
        <pt x="387" y="86" on="0"/>
        <pt x="430" y="88" on="0"/>
        <pt x="474" y="92" on="0"/>
        <pt x="515" y="97" on="0"/>
        <pt x="528" y="100" on="1"/>
        <pt x="528" y="7" on="1"/>
        <pt x="510" y="4" on="0"/>
        <pt x="469" y="-2" on="0"/>
        <pt x="428" y="-7" on="0"/>
        <pt x="388" y="-9" on="0"/>
      </contour>
      <contour>
        <pt x="278" y="636" on="1"/>
        <pt x="341" y="760" on="1"/>
        <pt x="457" y="760" on="1"/>
        <pt x="363" y="629" on="1"/>
      </contour>
    </TTGlyph>
    <TTGlyph name="Ccaron" xMin="50" yMin="-10" xMax="588" yMax="973">
      <contour>
        <pt x="410" y="-10" on="1"/>
        <pt x="230" y="-10" on="0"/>
        <pt x="50" y="179" on="0"/>
        <pt x="50" y="368" on="1"/>
        <pt x="50" y="560" on="0"/>
        <pt x="228" y="752" on="0"/>
        <pt x="405" y="752" on="1"/>
        <pt x="441" y="752" on="0"/>
        <pt x="536" y="741" on="0"/>
        <pt x="588" y="733" on="1"/>
        <pt x="588" y="634" on="1"/>
        <pt x="526" y="644" on="0"/>
        <pt x="448" y="652" on="0"/>
        <pt x="417" y="652" on="1"/>
        <pt x="289" y="652" on="0"/>
        <pt x="172" y="517" on="0"/>
        <pt x="172" y="369" on="1"/>
        <pt x="172" y="223" on="0"/>
        <pt x="285" y="89" on="0"/>
        <pt x="410" y="89" on="1"/>
        <pt x="428" y="89" on="0"/>
        <pt x="477" y="92" on="0"/>
        <pt x="527" y="98" on="0"/>
        <pt x="573" y="106" on="0"/>
        <pt x="588" y="110" on="1"/>
        <pt x="588" y="12" on="1"/>
        <pt x="568" y="7" on="0"/>
        <pt x="522" y="-1" on="0"/>
        <pt x="474" y="-7" on="0"/>
        <pt x="429" y="-10" on="0"/>
      </contour>
      <contour>
        <pt x="177" y="973" on="1"/>
        <pt x="364" y="896" on="1"/>
        <pt x="550" y="973" on="1"/>
        <pt x="550" y="885" on="1"/>
        <pt x="362" y="809" on="1"/>
        <pt x="177" y="885" on="1"/>
      </contour>
    </TTGlyph>
    <TTGlyph name="Ccaron.sc" xMin="50" yMin="-9" xMax="528" yMax="769">
      <contour>
        <pt x="372" y="-9" on="1"/>
        <pt x="50" y="-9" on="0"/>
        <pt x="50" y="287" on="1"/>
        <pt x="50" y="587" on="0"/>
        <pt x="366" y="587" on="1"/>
        <pt x="397" y="587" on="0"/>
        <pt x="480" y="580" on="0"/>
        <pt x="528" y="573" on="1"/>
        <pt x="528" y="479" on="1"/>
        <pt x="472" y="486" on="0"/>
        <pt x="404" y="493" on="0"/>
        <pt x="377" y="493" on="1"/>
        <pt x="321" y="493" on="0"/>
        <pt x="242" y="470" on="0"/>
        <pt x="191" y="421" on="0"/>
        <pt x="167" y="343" on="0"/>
        <pt x="167" y="288" on="1"/>
        <pt x="167" y="234" on="0"/>
        <pt x="190" y="157" on="0"/>
        <pt x="239" y="109" on="0"/>
        <pt x="317" y="86" on="0"/>
        <pt x="372" y="86" on="1"/>
        <pt x="387" y="86" on="0"/>
        <pt x="430" y="88" on="0"/>
        <pt x="474" y="92" on="0"/>
        <pt x="515" y="97" on="0"/>
        <pt x="528" y="100" on="1"/>
        <pt x="528" y="7" on="1"/>
        <pt x="510" y="4" on="0"/>
        <pt x="469" y="-2" on="0"/>
        <pt x="428" y="-7" on="0"/>
        <pt x="388" y="-9" on="0"/>
      </contour>
      <contour>
        <pt x="158" y="769" on="1"/>
        <pt x="327" y="709" on="1"/>
        <pt x="496" y="769" on="1"/>
        <pt x="496" y="691" on="1"/>
        <pt x="326" y="630" on="1"/>
        <pt x="158" y="691" on="1"/>
      </contour>
    </TTGlyph>
    <TTGlyph name="Ccedilla" xMin="50" yMin="-220" xMax="588" yMax="752">
      <contour>
        <pt x="338" y="-220" on="1"/>
        <pt x="317" y="-220" on="0"/>
        <pt x="263" y="-213" on="0"/>
        <pt x="238" y="-208" on="1"/>
        <pt x="238" y="-134" on="1"/>
        <pt x="255" y="-139" on="0"/>
        <pt x="294" y="-146" on="0"/>
        <pt x="315" y="-146" on="1"/>
        <pt x="352" y="-146" on="0"/>
        <pt x="382" y="-122" on="0"/>
        <pt x="382" y="-95" on="1"/>
        <pt x="382" y="-77" on="0"/>
        <pt x="365" y="-36" on="0"/>
        <pt x="344" y="-6" on="1"/>
        <pt x="197" y="10" on="0"/>
        <pt x="50" y="197" on="0"/>
        <pt x="50" y="368" on="1"/>
        <pt x="50" y="560" on="0"/>
        <pt x="228" y="752" on="0"/>
        <pt x="405" y="752" on="1"/>
        <pt x="441" y="752" on="0"/>
        <pt x="536" y="741" on="0"/>
        <pt x="588" y="733" on="1"/>
        <pt x="588" y="634" on="1"/>
        <pt x="526" y="644" on="0"/>
        <pt x="448" y="652" on="0"/>
        <pt x="417" y="652" on="1"/>
        <pt x="289" y="652" on="0"/>
        <pt x="172" y="517" on="0"/>
        <pt x="172" y="369" on="1"/>
        <pt x="172" y="223" on="0"/>
        <pt x="285" y="89" on="0"/>
        <pt x="410" y="89" on="1"/>
        <pt x="428" y="89" on="0"/>
        <pt x="477" y="92" on="0"/>
        <pt x="527" y="98" on="0"/>
        <pt x="573" y="106" on="0"/>
        <pt x="588" y="110" on="1"/>
        <pt x="588" y="12" on="1"/>
        <pt x="553" y="3" on="0"/>
        <pt x="463" y="-8" on="0"/>
        <pt x="426" y="-10" on="1"/>
        <pt x="449" y="-43" on="0"/>
        <pt x="465" y="-83" on="0"/>
        <pt x="465" y="-106" on="1"/>
        <pt x="465" y="-160" on="0"/>
        <pt x="398" y="-220" on="0"/>
      </contour>
    </TTGlyph>
    <TTGlyph name="Ccedilla.sc" xMin="50" yMin="-172" xMax="528" yMax="587">
      <contour>
        <pt x="309" y="-172" on="1"/>
        <pt x="290" y="-172" on="0"/>
        <pt x="243" y="-166" on="0"/>
        <pt x="219" y="-162" on="1"/>
        <pt x="219" y="-95" on="1"/>
        <pt x="235" y="-99" on="0"/>
        <pt x="270" y="-104" on="0"/>
        <pt x="290" y="-104" on="1"/>
        <pt x="322" y="-104" on="0"/>
        <pt x="344" y="-87" on="0"/>
        <pt x="344" y="-67" on="1"/>
        <pt x="344" y="-57" on="0"/>
        <pt x="333" y="-31" on="0"/>
        <pt x="317" y="-7" on="1"/>
        <pt x="183" y="3" on="0"/>
        <pt x="50" y="151" on="0"/>
        <pt x="50" y="287" on="1"/>
        <pt x="50" y="587" on="0"/>
        <pt x="366" y="587" on="1"/>
        <pt x="398" y="587" on="0"/>
        <pt x="480" y="580" on="0"/>
        <pt x="528" y="573" on="1"/>
        <pt x="528" y="479" on="1"/>
        <pt x="472" y="486" on="0"/>
        <pt x="404" y="493" on="0"/>
        <pt x="378" y="493" on="1"/>
        <pt x="322" y="493" on="0"/>
        <pt x="242" y="470" on="0"/>
        <pt x="191" y="421" on="0"/>
        <pt x="167" y="343" on="0"/>
        <pt x="167" y="288" on="1"/>
        <pt x="167" y="234" on="0"/>
        <pt x="190" y="157" on="0"/>
        <pt x="239" y="109" on="0"/>
        <pt x="317" y="86" on="0"/>
        <pt x="372" y="86" on="1"/>
        <pt x="387" y="86" on="0"/>
        <pt x="430" y="88" on="0"/>
        <pt x="475" y="92" on="0"/>
        <pt x="515" y="97" on="0"/>
        <pt x="528" y="100" on="1"/>
        <pt x="528" y="7" on="1"/>
        <pt x="499" y="1" on="0"/>
        <pt x="424" y="-7" on="0"/>
        <pt x="393" y="-9" on="1"/>
        <pt x="409" y="-35" on="0"/>
        <pt x="421" y="-65" on="0"/>
        <pt x="421" y="-82" on="1"/>
        <pt x="421" y="-125" on="0"/>
        <pt x="362" y="-172" on="0"/>
      </contour>
    </TTGlyph>
    <TTGlyph name="Ccircumflex" xMin="50" yMin="-10" xMax="588" yMax="973">
      <contour>
        <pt x="410" y="-10" on="1"/>
        <pt x="230" y="-10" on="0"/>
        <pt x="50" y="179" on="0"/>
        <pt x="50" y="368" on="1"/>
        <pt x="50" y="560" on="0"/>
        <pt x="228" y="752" on="0"/>
        <pt x="405" y="752" on="1"/>
        <pt x="441" y="752" on="0"/>
        <pt x="536" y="741" on="0"/>
        <pt x="588" y="733" on="1"/>
        <pt x="588" y="634" on="1"/>
        <pt x="526" y="644" on="0"/>
        <pt x="448" y="652" on="0"/>
        <pt x="417" y="652" on="1"/>
        <pt x="289" y="652" on="0"/>
        <pt x="172" y="517" on="0"/>
        <pt x="172" y="369" on="1"/>
        <pt x="172" y="223" on="0"/>
        <pt x="285" y="89" on="0"/>
        <pt x="410" y="89" on="1"/>
        <pt x="428" y="89" on="0"/>
        <pt x="477" y="92" on="0"/>
        <pt x="527" y="98" on="0"/>
        <pt x="573" y="106" on="0"/>
        <pt x="588" y="110" on="1"/>
        <pt x="588" y="12" on="1"/>
        <pt x="568" y="7" on="0"/>
        <pt x="522" y="-1" on="0"/>
        <pt x="474" y="-7" on="0"/>
        <pt x="429" y="-10" on="0"/>
      </contour>
      <contour>
        <pt x="175" y="896" on="1"/>
        <pt x="361" y="973" on="1"/>
        <pt x="549" y="896" on="1"/>
        <pt x="549" y="809" on="1"/>
        <pt x="362" y="885" on="1"/>
        <pt x="175" y="809" on="1"/>
      </contour>
    </TTGlyph>
    <TTGlyph name="Ccircumflex.sc" xMin="50" yMin="-9" xMax="528" yMax="769">
      <contour>
        <pt x="372" y="-9" on="1"/>
        <pt x="50" y="-9" on="0"/>
        <pt x="50" y="287" on="1"/>
        <pt x="50" y="587" on="0"/>
        <pt x="366" y="587" on="1"/>
        <pt x="397" y="587" on="0"/>
        <pt x="480" y="580" on="0"/>
        <pt x="528" y="573" on="1"/>
        <pt x="528" y="479" on="1"/>
        <pt x="472" y="486" on="0"/>
        <pt x="404" y="493" on="0"/>
        <pt x="377" y="493" on="1"/>
        <pt x="321" y="493" on="0"/>
        <pt x="242" y="470" on="0"/>
        <pt x="191" y="421" on="0"/>
        <pt x="167" y="343" on="0"/>
        <pt x="167" y="288" on="1"/>
        <pt x="167" y="234" on="0"/>
        <pt x="190" y="157" on="0"/>
        <pt x="239" y="109" on="0"/>
        <pt x="317" y="86" on="0"/>
        <pt x="372" y="86" on="1"/>
        <pt x="387" y="86" on="0"/>
        <pt x="430" y="88" on="0"/>
        <pt x="474" y="92" on="0"/>
        <pt x="515" y="97" on="0"/>
        <pt x="528" y="100" on="1"/>
        <pt x="528" y="7" on="1"/>
        <pt x="510" y="4" on="0"/>
        <pt x="469" y="-2" on="0"/>
        <pt x="428" y="-7" on="0"/>
        <pt x="388" y="-9" on="0"/>
      </contour>
      <contour>
        <pt x="157" y="708" on="1"/>
        <pt x="325" y="769" on="1"/>
        <pt x="496" y="708" on="1"/>
        <pt x="496" y="630" on="1"/>
        <pt x="327" y="690" on="1"/>
        <pt x="157" y="630" on="1"/>
      </contour>
    </TTGlyph>
    <TTGlyph name="Cdotaccent" xMin="50" yMin="-10" xMax="588" yMax="952">
      <contour>
        <pt x="375" y="814" on="1"/>
        <pt x="339" y="814" on="0"/>
        <pt x="304" y="846" on="0"/>
        <pt x="304" y="882" on="1"/>
        <pt x="304" y="919" on="0"/>
        <pt x="339" y="952" on="0"/>
        <pt x="375" y="952" on="1"/>
        <pt x="446" y="952" on="0"/>
        <pt x="446" y="882" on="1"/>
        <pt x="446" y="814" on="0"/>
      </contour>
      <contour>
        <pt x="410" y="-10" on="1"/>
        <pt x="230" y="-10" on="0"/>
        <pt x="50" y="179" on="0"/>
        <pt x="50" y="368" on="1"/>
        <pt x="50" y="560" on="0"/>
        <pt x="228" y="752" on="0"/>
        <pt x="405" y="752" on="1"/>
        <pt x="441" y="752" on="0"/>
        <pt x="536" y="741" on="0"/>
        <pt x="588" y="733" on="1"/>
        <pt x="588" y="634" on="1"/>
        <pt x="526" y="644" on="0"/>
        <pt x="448" y="652" on="0"/>
        <pt x="417" y="652" on="1"/>
        <pt x="289" y="652" on="0"/>
        <pt x="172" y="517" on="0"/>
        <pt x="172" y="369" on="1"/>
        <pt x="172" y="223" on="0"/>
        <pt x="285" y="89" on="0"/>
        <pt x="410" y="89" on="1"/>
        <pt x="428" y="89" on="0"/>
        <pt x="477" y="92" on="0"/>
        <pt x="527" y="98" on="0"/>
        <pt x="573" y="106" on="0"/>
        <pt x="588" y="110" on="1"/>
        <pt x="588" y="12" on="1"/>
        <pt x="568" y="7" on="0"/>
        <pt x="522" y="-1" on="0"/>
        <pt x="474" y="-7" on="0"/>
        <pt x="429" y="-10" on="0"/>
      </contour>
    </TTGlyph>
    <TTGlyph name="Cdotaccent.sc" xMin="50" yMin="-9" xMax="528" yMax="758">
      <contour>
        <pt x="372" y="-9" on="1"/>
        <pt x="50" y="-9" on="0"/>
        <pt x="50" y="287" on="1"/>
        <pt x="50" y="587" on="0"/>
        <pt x="366" y="587" on="1"/>
        <pt x="397" y="587" on="0"/>
        <pt x="480" y="580" on="0"/>
        <pt x="528" y="573" on="1"/>
        <pt x="528" y="479" on="1"/>
        <pt x="472" y="486" on="0"/>
        <pt x="404" y="493" on="0"/>
        <pt x="377" y="493" on="1"/>
        <pt x="321" y="493" on="0"/>
        <pt x="242" y="470" on="0"/>
        <pt x="191" y="421" on="0"/>
        <pt x="167" y="343" on="0"/>
        <pt x="167" y="288" on="1"/>
        <pt x="167" y="234" on="0"/>
        <pt x="190" y="157" on="0"/>
        <pt x="239" y="109" on="0"/>
        <pt x="317" y="86" on="0"/>
        <pt x="372" y="86" on="1"/>
        <pt x="387" y="86" on="0"/>
        <pt x="430" y="88" on="0"/>
        <pt x="474" y="92" on="0"/>
        <pt x="515" y="97" on="0"/>
        <pt x="528" y="100" on="1"/>
        <pt x="528" y="7" on="1"/>
        <pt x="510" y="4" on="0"/>
        <pt x="469" y="-2" on="0"/>
        <pt x="428" y="-7" on="0"/>
        <pt x="388" y="-9" on="0"/>
      </contour>
      <contour>
        <pt x="339" y="632" on="1"/>
        <pt x="304" y="632" on="0"/>
        <pt x="273" y="661" on="0"/>
        <pt x="273" y="695" on="1"/>
        <pt x="273" y="728" on="0"/>
        <pt x="304" y="758" on="0"/>
        <pt x="339" y="758" on="1"/>
        <pt x="406" y="758" on="0"/>
        <pt x="406" y="695" on="1"/>
        <pt x="406" y="632" on="0"/>
      </contour>
    </TTGlyph>
    <TTGlyph name="D" xMin="89" yMin="-9" xMax="740" yMax="749">
      <contour>
        <pt x="304" y="-9" on="1"/>
        <pt x="270" y="-9" on="0"/>
        <pt x="204" y="-7" on="0"/>
        <pt x="147" y="-3" on="0"/>
        <pt x="102" y="3" on="0"/>
        <pt x="89" y="6" on="1"/>
        <pt x="89" y="739" on="1"/>
        <pt x="120" y="741" on="0"/>
        <pt x="186" y="744" on="0"/>
        <pt x="250" y="747" on="0"/>
        <pt x="307" y="749" on="0"/>
        <pt x="328" y="749" on="1"/>
        <pt x="541" y="749" on="0"/>
        <pt x="740" y="566" on="0"/>
        <pt x="740" y="370" on="1"/>
        <pt x="740" y="271" on="0"/>
        <pt x="690" y="127" on="0"/>
        <pt x="584" y="35" on="0"/>
        <pt x="419" y="-9" on="0"/>
      </contour>
      <contour>
        <pt x="345" y="87" on="1"/>
        <pt x="417" y="87" on="0"/>
        <pt x="521" y="119" on="0"/>
        <pt x="587" y="188" on="0"/>
        <pt x="618" y="295" on="0"/>
        <pt x="618" y="370" on="1"/>
        <pt x="618" y="518" on="0"/>
        <pt x="488" y="651" on="0"/>
        <pt x="342" y="651" on="1"/>
        <pt x="316" y="651" on="0"/>
        <pt x="243" y="647" on="0"/>
        <pt x="208" y="644" on="1"/>
        <pt x="208" y="98" on="1"/>
        <pt x="245" y="92" on="0"/>
        <pt x="307" y="87" on="0"/>
      </contour>
    </TTGlyph>
    <TTGlyph name="D.sc" xMin="84" yMin="-7" xMax="667" yMax="584">
      <contour>
        <pt x="301" y="-7" on="1"/>
        <pt x="268" y="-7" on="0"/>
        <pt x="204" y="-5" on="0"/>
        <pt x="146" y="-2" on="0"/>
        <pt x="99" y="2" on="0"/>
        <pt x="84" y="5" on="1"/>
        <pt x="84" y="576" on="1"/>
        <pt x="111" y="578" on="0"/>
        <pt x="171" y="581" on="0"/>
        <pt x="228" y="583" on="0"/>
        <pt x="281" y="584" on="0"/>
        <pt x="301" y="584" on="1"/>
        <pt x="490" y="584" on="0"/>
        <pt x="667" y="441" on="0"/>
        <pt x="667" y="288" on="1"/>
        <pt x="667" y="136" on="0"/>
        <pt x="490" y="-7" on="0"/>
      </contour>
      <contour>
        <pt x="318" y="84" on="1"/>
        <pt x="380" y="84" on="0"/>
        <pt x="469" y="107" on="0"/>
        <pt x="525" y="156" on="0"/>
        <pt x="551" y="234" on="0"/>
        <pt x="551" y="288" on="1"/>
        <pt x="551" y="396" on="0"/>
        <pt x="440" y="492" on="0"/>
        <pt x="315" y="492" on="1"/>
        <pt x="292" y="492" on="0"/>
        <pt x="228" y="489" on="0"/>
        <pt x="198" y="487" on="1"/>
        <pt x="198" y="92" on="1"/>
        <pt x="230" y="87" on="0"/>
        <pt x="284" y="84" on="0"/>
      </contour>
    </TTGlyph>
    <TTGlyph name="Dcaron" xMin="89" yMin="-9" xMax="740" yMax="973">
      <contour>
        <pt x="188" y="973" on="1"/>
        <pt x="375" y="896" on="1"/>
        <pt x="561" y="973" on="1"/>
        <pt x="561" y="885" on="1"/>
        <pt x="373" y="809" on="1"/>
        <pt x="188" y="885" on="1"/>
      </contour>
      <contour>
        <pt x="304" y="-9" on="1"/>
        <pt x="270" y="-9" on="0"/>
        <pt x="204" y="-7" on="0"/>
        <pt x="147" y="-3" on="0"/>
        <pt x="102" y="3" on="0"/>
        <pt x="89" y="6" on="1"/>
        <pt x="89" y="739" on="1"/>
        <pt x="120" y="741" on="0"/>
        <pt x="186" y="744" on="0"/>
        <pt x="250" y="747" on="0"/>
        <pt x="307" y="749" on="0"/>
        <pt x="328" y="749" on="1"/>
        <pt x="541" y="749" on="0"/>
        <pt x="740" y="566" on="0"/>
        <pt x="740" y="370" on="1"/>
        <pt x="740" y="271" on="0"/>
        <pt x="690" y="127" on="0"/>
        <pt x="584" y="35" on="0"/>
        <pt x="419" y="-9" on="0"/>
      </contour>
      <contour>
        <pt x="345" y="87" on="1"/>
        <pt x="417" y="87" on="0"/>
        <pt x="521" y="119" on="0"/>
        <pt x="587" y="188" on="0"/>
        <pt x="618" y="295" on="0"/>
        <pt x="618" y="370" on="1"/>
        <pt x="618" y="518" on="0"/>
        <pt x="488" y="651" on="0"/>
        <pt x="342" y="651" on="1"/>
        <pt x="316" y="651" on="0"/>
        <pt x="243" y="647" on="0"/>
        <pt x="208" y="644" on="1"/>
        <pt x="208" y="98" on="1"/>
        <pt x="245" y="92" on="0"/>
        <pt x="307" y="87" on="0"/>
      </contour>
    </TTGlyph>
    <TTGlyph name="Dcaron.sc" xMin="84" yMin="-7" xMax="667" yMax="769">
      <contour>
        <pt x="301" y="-7" on="1"/>
        <pt x="268" y="-7" on="0"/>
        <pt x="204" y="-5" on="0"/>
        <pt x="146" y="-2" on="0"/>
        <pt x="99" y="2" on="0"/>
        <pt x="84" y="5" on="1"/>
        <pt x="84" y="576" on="1"/>
        <pt x="111" y="578" on="0"/>
        <pt x="171" y="581" on="0"/>
        <pt x="228" y="583" on="0"/>
        <pt x="281" y="584" on="0"/>
        <pt x="301" y="584" on="1"/>
        <pt x="490" y="584" on="0"/>
        <pt x="667" y="441" on="0"/>
        <pt x="667" y="288" on="1"/>
        <pt x="667" y="136" on="0"/>
        <pt x="490" y="-7" on="0"/>
      </contour>
      <contour>
        <pt x="318" y="84" on="1"/>
        <pt x="380" y="84" on="0"/>
        <pt x="469" y="107" on="0"/>
        <pt x="525" y="156" on="0"/>
        <pt x="551" y="234" on="0"/>
        <pt x="551" y="288" on="1"/>
        <pt x="551" y="396" on="0"/>
        <pt x="440" y="492" on="0"/>
        <pt x="315" y="492" on="1"/>
        <pt x="292" y="492" on="0"/>
        <pt x="228" y="489" on="0"/>
        <pt x="198" y="487" on="1"/>
        <pt x="198" y="92" on="1"/>
        <pt x="230" y="87" on="0"/>
        <pt x="284" y="84" on="0"/>
      </contour>
      <contour>
        <pt x="174" y="691" on="1"/>
        <pt x="174" y="769" on="1"/>
        <pt x="343" y="709" on="1"/>
        <pt x="512" y="769" on="1"/>
        <pt x="512" y="691" on="1"/>
        <pt x="341" y="630" on="1"/>
      </contour>
    </TTGlyph>
    <TTGlyph name="Dcroat" xMin="6" yMin="-9" xMax="754" yMax="749">
      <contour>
        <pt x="6" y="418" on="1"/>
        <pt x="103" y="418" on="1"/>
        <pt x="103" y="739" on="1"/>
        <pt x="134" y="741" on="0"/>
        <pt x="200" y="744" on="0"/>
        <pt x="264" y="747" on="0"/>
        <pt x="321" y="749" on="0"/>
        <pt x="342" y="749" on="1"/>
        <pt x="555" y="749" on="0"/>
        <pt x="754" y="566" on="0"/>
        <pt x="754" y="370" on="1"/>
        <pt x="754" y="271" on="0"/>
        <pt x="704" y="127" on="0"/>
        <pt x="598" y="35" on="0"/>
        <pt x="433" y="-9" on="0"/>
        <pt x="318" y="-9" on="1"/>
        <pt x="284" y="-9" on="0"/>
        <pt x="218" y="-7" on="0"/>
        <pt x="161" y="-3" on="0"/>
        <pt x="116" y="3" on="0"/>
        <pt x="103" y="6" on="1"/>
        <pt x="103" y="324" on="1"/>
        <pt x="6" y="324" on="1"/>
      </contour>
      <contour>
        <pt x="359" y="87" on="1"/>
        <pt x="431" y="87" on="0"/>
        <pt x="535" y="119" on="0"/>
        <pt x="601" y="188" on="0"/>
        <pt x="632" y="295" on="0"/>
        <pt x="632" y="370" on="1"/>
        <pt x="632" y="518" on="0"/>
        <pt x="502" y="651" on="0"/>
        <pt x="356" y="651" on="1"/>
        <pt x="330" y="651" on="0"/>
        <pt x="257" y="647" on="0"/>
        <pt x="222" y="644" on="1"/>
        <pt x="222" y="418" on="1"/>
        <pt x="399" y="418" on="1"/>
        <pt x="399" y="324" on="1"/>
        <pt x="222" y="324" on="1"/>
        <pt x="222" y="98" on="1"/>
        <pt x="259" y="92" on="0"/>
        <pt x="321" y="87" on="0"/>
      </contour>
    </TTGlyph>
    <TTGlyph name="Dcroat.sc" xMin="16" yMin="-7" xMax="683" yMax="584">
      <contour>
        <pt x="16" y="334" on="1"/>
        <pt x="100" y="334" on="1"/>
        <pt x="100" y="576" on="1"/>
        <pt x="129" y="578" on="0"/>
        <pt x="190" y="581" on="0"/>
        <pt x="247" y="583" on="0"/>
        <pt x="297" y="584" on="0"/>
        <pt x="316" y="584" on="1"/>
        <pt x="506" y="584" on="0"/>
        <pt x="683" y="441" on="0"/>
        <pt x="683" y="288" on="1"/>
        <pt x="683" y="210" on="0"/>
        <pt x="638" y="98" on="0"/>
        <pt x="544" y="27" on="0"/>
        <pt x="395" y="-7" on="0"/>
        <pt x="292" y="-7" on="1"/>
        <pt x="262" y="-7" on="0"/>
        <pt x="203" y="-5" on="0"/>
        <pt x="152" y="-2" on="0"/>
        <pt x="112" y="2" on="0"/>
        <pt x="100" y="5" on="1"/>
        <pt x="100" y="246" on="1"/>
        <pt x="16" y="246" on="1"/>
      </contour>
      <contour>
        <pt x="334" y="84" on="1"/>
        <pt x="396" y="84" on="0"/>
        <pt x="484" y="107" on="0"/>
        <pt x="540" y="156" on="0"/>
        <pt x="566" y="233" on="0"/>
        <pt x="566" y="288" on="1"/>
        <pt x="566" y="342" on="0"/>
        <pt x="540" y="420" on="0"/>
        <pt x="483" y="469" on="0"/>
        <pt x="394" y="492" on="0"/>
        <pt x="331" y="492" on="1"/>
        <pt x="309" y="492" on="0"/>
        <pt x="246" y="489" on="0"/>
        <pt x="214" y="487" on="1"/>
        <pt x="214" y="334" on="1"/>
        <pt x="364" y="334" on="1"/>
        <pt x="364" y="246" on="1"/>
        <pt x="214" y="246" on="1"/>
        <pt x="214" y="92" on="1"/>
        <pt x="246" y="87" on="0"/>
        <pt x="302" y="84" on="0"/>
      </contour>
    </TTGlyph>
    <TTGlyph name="Ddotbelow" xMin="89" yMin="-191" xMax="740" yMax="749">
      <contour>
        <pt x="379" y="-191" on="1"/>
        <pt x="349" y="-191" on="0"/>
        <pt x="319" y="-164" on="0"/>
        <pt x="319" y="-133" on="1"/>
        <pt x="319" y="-74" on="0"/>
        <pt x="379" y="-74" on="1"/>
        <pt x="440" y="-74" on="0"/>
        <pt x="440" y="-133" on="1"/>
        <pt x="440" y="-164" on="0"/>
        <pt x="411" y="-191" on="0"/>
      </contour>
      <contour>
        <pt x="304" y="-9" on="1"/>
        <pt x="270" y="-9" on="0"/>
        <pt x="204" y="-7" on="0"/>
        <pt x="147" y="-3" on="0"/>
        <pt x="102" y="3" on="0"/>
        <pt x="89" y="6" on="1"/>
        <pt x="89" y="739" on="1"/>
        <pt x="120" y="741" on="0"/>
        <pt x="186" y="744" on="0"/>
        <pt x="250" y="747" on="0"/>
        <pt x="307" y="749" on="0"/>
        <pt x="328" y="749" on="1"/>
        <pt x="541" y="749" on="0"/>
        <pt x="740" y="566" on="0"/>
        <pt x="740" y="370" on="1"/>
        <pt x="740" y="271" on="0"/>
        <pt x="690" y="127" on="0"/>
        <pt x="584" y="35" on="0"/>
        <pt x="419" y="-9" on="0"/>
      </contour>
      <contour>
        <pt x="345" y="87" on="1"/>
        <pt x="417" y="87" on="0"/>
        <pt x="521" y="119" on="0"/>
        <pt x="587" y="188" on="0"/>
        <pt x="618" y="295" on="0"/>
        <pt x="618" y="370" on="1"/>
        <pt x="618" y="518" on="0"/>
        <pt x="488" y="651" on="0"/>
        <pt x="342" y="651" on="1"/>
        <pt x="316" y="651" on="0"/>
        <pt x="243" y="647" on="0"/>
        <pt x="208" y="644" on="1"/>
        <pt x="208" y="98" on="1"/>
        <pt x="245" y="92" on="0"/>
        <pt x="307" y="87" on="0"/>
      </contour>
    </TTGlyph>
    <TTGlyph name="Ddotbelow.sc" xMin="84" yMin="-155" xMax="667" yMax="584">
      <contour>
        <pt x="301" y="-7" on="1"/>
        <pt x="268" y="-7" on="0"/>
        <pt x="204" y="-5" on="0"/>
        <pt x="146" y="-2" on="0"/>
        <pt x="99" y="2" on="0"/>
        <pt x="84" y="5" on="1"/>
        <pt x="84" y="576" on="1"/>
        <pt x="111" y="578" on="0"/>
        <pt x="171" y="581" on="0"/>
        <pt x="228" y="583" on="0"/>
        <pt x="281" y="584" on="0"/>
        <pt x="301" y="584" on="1"/>
        <pt x="490" y="584" on="0"/>
        <pt x="667" y="441" on="0"/>
        <pt x="667" y="288" on="1"/>
        <pt x="667" y="136" on="0"/>
        <pt x="490" y="-7" on="0"/>
      </contour>
      <contour>
        <pt x="318" y="84" on="1"/>
        <pt x="380" y="84" on="0"/>
        <pt x="469" y="107" on="0"/>
        <pt x="525" y="156" on="0"/>
        <pt x="551" y="234" on="0"/>
        <pt x="551" y="288" on="1"/>
        <pt x="551" y="396" on="0"/>
        <pt x="440" y="492" on="0"/>
        <pt x="315" y="492" on="1"/>
        <pt x="292" y="492" on="0"/>
        <pt x="228" y="489" on="0"/>
        <pt x="198" y="487" on="1"/>
        <pt x="198" y="92" on="1"/>
        <pt x="230" y="87" on="0"/>
        <pt x="284" y="84" on="0"/>
      </contour>
      <contour>
        <pt x="346" y="-155" on="1"/>
        <pt x="291" y="-155" on="0"/>
        <pt x="291" y="-104" on="1"/>
        <pt x="291" y="-52" on="0"/>
        <pt x="346" y="-52" on="1"/>
        <pt x="402" y="-52" on="0"/>
        <pt x="402" y="-104" on="1"/>
        <pt x="402" y="-155" on="0"/>
      </contour>
    </TTGlyph>
    <TTGlyph name="Delta" xMin="25" yMin="0" xMax="795" yMax="740">
      <contour>
        <pt x="340" y="740" on="1"/>
        <pt x="480" y="740" on="1"/>
        <pt x="795" y="0" on="1"/>
        <pt x="25" y="0" on="1"/>
      </contour>
      <contour>
        <pt x="643" y="93" on="1"/>
        <pt x="410" y="640" on="1"/>
        <pt x="176" y="93" on="1"/>
      </contour>
    </TTGlyph>
    <TTGlyph name="E" xMin="89" yMin="0" xMax="617" yMax="740">
      <contour>
        <pt x="89" y="740" on="1"/>
        <pt x="608" y="740" on="1"/>
        <pt x="608" y="646" on="1"/>
        <pt x="208" y="646" on="1"/>
        <pt x="208" y="422" on="1"/>
        <pt x="581" y="422" on="1"/>
        <pt x="581" y="327" on="1"/>
        <pt x="208" y="327" on="1"/>
        <pt x="208" y="94" on="1"/>
        <pt x="617" y="94" on="1"/>
        <pt x="617" y="0" on="1"/>
        <pt x="89" y="0" on="1"/>
      </contour>
    </TTGlyph>
    <TTGlyph name="E.sc" xMin="84" yMin="0" xMax="558" yMax="577">
      <contour>
        <pt x="84" y="577" on="1"/>
        <pt x="551" y="577" on="1"/>
        <pt x="551" y="491" on="1"/>
        <pt x="199" y="491" on="1"/>
        <pt x="199" y="330" on="1"/>
        <pt x="526" y="330" on="1"/>
        <pt x="526" y="255" on="1"/>
        <pt x="199" y="255" on="1"/>
        <pt x="199" y="86" on="1"/>
        <pt x="558" y="86" on="1"/>
        <pt x="558" y="0" on="1"/>
        <pt x="84" y="0" on="1"/>
      </contour>
    </TTGlyph>
    <TTGlyph name="Eacute" xMin="89" yMin="0" xMax="617" yMax="963">
      <contour>
        <pt x="297" y="813" on="1"/>
        <pt x="369" y="963" on="1"/>
        <pt x="490" y="963" on="1"/>
        <pt x="385" y="805" on="1"/>
      </contour>
      <contour>
        <pt x="89" y="740" on="1"/>
        <pt x="608" y="740" on="1"/>
        <pt x="608" y="646" on="1"/>
        <pt x="208" y="646" on="1"/>
        <pt x="208" y="422" on="1"/>
        <pt x="581" y="422" on="1"/>
        <pt x="581" y="327" on="1"/>
        <pt x="208" y="327" on="1"/>
        <pt x="208" y="94" on="1"/>
        <pt x="617" y="94" on="1"/>
        <pt x="617" y="0" on="1"/>
        <pt x="89" y="0" on="1"/>
      </contour>
    </TTGlyph>
    <TTGlyph name="Eacute.sc" xMin="84" yMin="0" xMax="558" yMax="760">
      <contour>
        <pt x="84" y="577" on="1"/>
        <pt x="551" y="577" on="1"/>
        <pt x="551" y="491" on="1"/>
        <pt x="199" y="491" on="1"/>
        <pt x="199" y="330" on="1"/>
        <pt x="526" y="330" on="1"/>
        <pt x="526" y="255" on="1"/>
        <pt x="199" y="255" on="1"/>
        <pt x="199" y="86" on="1"/>
        <pt x="558" y="86" on="1"/>
        <pt x="558" y="0" on="1"/>
        <pt x="84" y="0" on="1"/>
      </contour>
      <contour>
        <pt x="268" y="636" on="1"/>
        <pt x="329" y="760" on="1"/>
        <pt x="445" y="760" on="1"/>
        <pt x="352" y="629" on="1"/>
      </contour>
    </TTGlyph>
    <TTGlyph name="Ebreve" xMin="89" yMin="0" xMax="617" yMax="972">
      <contour>
        <pt x="344" y="814" on="1"/>
        <pt x="290" y="814" on="0"/>
        <pt x="214" y="837" on="0"/>
        <pt x="164" y="879" on="0"/>
        <pt x="141" y="937" on="0"/>
        <pt x="141" y="972" on="1"/>
        <pt x="224" y="972" on="1"/>
        <pt x="224" y="928" on="0"/>
        <pt x="282" y="878" on="0"/>
        <pt x="344" y="878" on="1"/>
        <pt x="407" y="878" on="0"/>
        <pt x="465" y="928" on="0"/>
        <pt x="465" y="972" on="1"/>
        <pt x="548" y="972" on="1"/>
        <pt x="548" y="902" on="0"/>
        <pt x="451" y="814" on="0"/>
      </contour>
      <contour>
        <pt x="89" y="740" on="1"/>
        <pt x="608" y="740" on="1"/>
        <pt x="608" y="646" on="1"/>
        <pt x="208" y="646" on="1"/>
        <pt x="208" y="422" on="1"/>
        <pt x="581" y="422" on="1"/>
        <pt x="581" y="327" on="1"/>
        <pt x="208" y="327" on="1"/>
        <pt x="208" y="94" on="1"/>
        <pt x="617" y="94" on="1"/>
        <pt x="617" y="0" on="1"/>
        <pt x="89" y="0" on="1"/>
      </contour>
    </TTGlyph>
    <TTGlyph name="Ebreve.sc" xMin="84" yMin="0" xMax="558" yMax="766">
      <contour>
        <pt x="314" y="635" on="1"/>
        <pt x="265" y="635" on="0"/>
        <pt x="195" y="655" on="0"/>
        <pt x="151" y="690" on="0"/>
        <pt x="130" y="738" on="0"/>
        <pt x="130" y="766" on="1"/>
        <pt x="208" y="766" on="1"/>
        <pt x="208" y="731" on="0"/>
        <pt x="258" y="693" on="0"/>
        <pt x="314" y="693" on="1"/>
        <pt x="370" y="693" on="0"/>
        <pt x="420" y="731" on="0"/>
        <pt x="420" y="766" on="1"/>
        <pt x="498" y="766" on="1"/>
        <pt x="498" y="709" on="0"/>
        <pt x="412" y="635" on="0"/>
      </contour>
      <contour>
        <pt x="84" y="577" on="1"/>
        <pt x="551" y="577" on="1"/>
        <pt x="551" y="491" on="1"/>
        <pt x="199" y="491" on="1"/>
        <pt x="199" y="330" on="1"/>
        <pt x="526" y="330" on="1"/>
        <pt x="526" y="255" on="1"/>
        <pt x="199" y="255" on="1"/>
        <pt x="199" y="86" on="1"/>
        <pt x="558" y="86" on="1"/>
        <pt x="558" y="0" on="1"/>
        <pt x="84" y="0" on="1"/>
      </contour>
    </TTGlyph>
    <TTGlyph name="Ecaron" xMin="89" yMin="0" xMax="617" yMax="973">
      <contour>
        <pt x="163" y="973" on="1"/>
        <pt x="350" y="896" on="1"/>
        <pt x="536" y="973" on="1"/>
        <pt x="536" y="885" on="1"/>
        <pt x="348" y="809" on="1"/>
        <pt x="163" y="885" on="1"/>
      </contour>
      <contour>
        <pt x="89" y="740" on="1"/>
        <pt x="608" y="740" on="1"/>
        <pt x="608" y="646" on="1"/>
        <pt x="208" y="646" on="1"/>
        <pt x="208" y="422" on="1"/>
        <pt x="581" y="422" on="1"/>
        <pt x="581" y="327" on="1"/>
        <pt x="208" y="327" on="1"/>
        <pt x="208" y="94" on="1"/>
        <pt x="617" y="94" on="1"/>
        <pt x="617" y="0" on="1"/>
        <pt x="89" y="0" on="1"/>
      </contour>
    </TTGlyph>
    <TTGlyph name="Ecaron.sc" xMin="84" yMin="0" xMax="558" yMax="769">
      <contour>
        <pt x="84" y="577" on="1"/>
        <pt x="551" y="577" on="1"/>
        <pt x="551" y="491" on="1"/>
        <pt x="199" y="491" on="1"/>
        <pt x="199" y="330" on="1"/>
        <pt x="526" y="330" on="1"/>
        <pt x="526" y="255" on="1"/>
        <pt x="199" y="255" on="1"/>
        <pt x="199" y="86" on="1"/>
        <pt x="558" y="86" on="1"/>
        <pt x="558" y="0" on="1"/>
        <pt x="84" y="0" on="1"/>
      </contour>
      <contour>
        <pt x="149" y="691" on="1"/>
        <pt x="149" y="769" on="1"/>
        <pt x="318" y="709" on="1"/>
        <pt x="487" y="769" on="1"/>
        <pt x="487" y="691" on="1"/>
        <pt x="316" y="630" on="1"/>
      </contour>
    </TTGlyph>
    <TTGlyph name="Ecircumflex" xMin="89" yMin="0" xMax="617" yMax="973">
      <contour>
        <pt x="89" y="740" on="1"/>
        <pt x="608" y="740" on="1"/>
        <pt x="608" y="646" on="1"/>
        <pt x="208" y="646" on="1"/>
        <pt x="208" y="422" on="1"/>
        <pt x="581" y="422" on="1"/>
        <pt x="581" y="327" on="1"/>
        <pt x="208" y="327" on="1"/>
        <pt x="208" y="94" on="1"/>
        <pt x="617" y="94" on="1"/>
        <pt x="617" y="0" on="1"/>
        <pt x="89" y="0" on="1"/>
      </contour>
      <contour>
        <pt x="171" y="896" on="1"/>
        <pt x="357" y="973" on="1"/>
        <pt x="545" y="896" on="1"/>
        <pt x="545" y="809" on="1"/>
        <pt x="358" y="885" on="1"/>
        <pt x="171" y="809" on="1"/>
      </contour>
    </TTGlyph>
    <TTGlyph name="Ecircumflex.sc" xMin="84" yMin="0" xMax="558" yMax="769">
      <contour>
        <pt x="84" y="577" on="1"/>
        <pt x="551" y="577" on="1"/>
        <pt x="551" y="491" on="1"/>
        <pt x="199" y="491" on="1"/>
        <pt x="199" y="330" on="1"/>
        <pt x="526" y="330" on="1"/>
        <pt x="526" y="255" on="1"/>
        <pt x="199" y="255" on="1"/>
        <pt x="199" y="86" on="1"/>
        <pt x="558" y="86" on="1"/>
        <pt x="558" y="0" on="1"/>
        <pt x="84" y="0" on="1"/>
      </contour>
      <contour>
        <pt x="159" y="708" on="1"/>
        <pt x="326" y="769" on="1"/>
        <pt x="496" y="708" on="1"/>
        <pt x="496" y="630" on="1"/>
        <pt x="327" y="690" on="1"/>
        <pt x="159" y="630" on="1"/>
      </contour>
    </TTGlyph>
    <TTGlyph name="Edblgrave" xMin="89" yMin="0" xMax="617" yMax="957">
      <contour>
        <pt x="89" y="740" on="1"/>
        <pt x="608" y="740" on="1"/>
        <pt x="608" y="646" on="1"/>
        <pt x="208" y="646" on="1"/>
        <pt x="208" y="422" on="1"/>
        <pt x="581" y="422" on="1"/>
        <pt x="581" y="327" on="1"/>
        <pt x="208" y="327" on="1"/>
        <pt x="208" y="94" on="1"/>
        <pt x="617" y="94" on="1"/>
        <pt x="617" y="0" on="1"/>
        <pt x="89" y="0" on="1"/>
      </contour>
      <contour>
        <pt x="214" y="800" on="1"/>
        <pt x="109" y="957" on="1"/>
        <pt x="229" y="957" on="1"/>
        <pt x="300" y="812" on="1"/>
      </contour>
      <contour>
        <pt x="394" y="800" on="1"/>
        <pt x="288" y="957" on="1"/>
        <pt x="408" y="957" on="1"/>
        <pt x="480" y="812" on="1"/>
      </contour>
    </TTGlyph>
    <TTGlyph name="Edblgrave.sc" xMin="84" yMin="0" xMax="558" yMax="756">
      <contour>
        <pt x="84" y="577" on="1"/>
        <pt x="551" y="577" on="1"/>
        <pt x="551" y="491" on="1"/>
        <pt x="199" y="491" on="1"/>
        <pt x="199" y="330" on="1"/>
        <pt x="526" y="330" on="1"/>
        <pt x="526" y="255" on="1"/>
        <pt x="199" y="255" on="1"/>
        <pt x="199" y="86" on="1"/>
        <pt x="558" y="86" on="1"/>
        <pt x="558" y="0" on="1"/>
        <pt x="84" y="0" on="1"/>
      </contour>
      <contour>
        <pt x="98" y="756" on="1"/>
        <pt x="213" y="756" on="1"/>
        <pt x="274" y="635" on="1"/>
        <pt x="191" y="626" on="1"/>
      </contour>
      <contour>
        <pt x="262" y="756" on="1"/>
        <pt x="377" y="756" on="1"/>
        <pt x="439" y="635" on="1"/>
        <pt x="356" y="626" on="1"/>
      </contour>
    </TTGlyph>
    <TTGlyph name="Edieresis" xMin="89" yMin="0" xMax="617" yMax="955">
      <contour>
        <pt x="210" y="817" on="1"/>
        <pt x="174" y="817" on="0"/>
        <pt x="140" y="850" on="0"/>
        <pt x="140" y="886" on="1"/>
        <pt x="140" y="922" on="0"/>
        <pt x="174" y="955" on="0"/>
        <pt x="210" y="955" on="1"/>
        <pt x="281" y="955" on="0"/>
        <pt x="281" y="886" on="1"/>
        <pt x="281" y="817" on="0"/>
      </contour>
      <contour>
        <pt x="500" y="817" on="1"/>
        <pt x="463" y="817" on="0"/>
        <pt x="429" y="850" on="0"/>
        <pt x="429" y="886" on="1"/>
        <pt x="429" y="922" on="0"/>
        <pt x="463" y="955" on="0"/>
        <pt x="500" y="955" on="1"/>
        <pt x="570" y="955" on="0"/>
        <pt x="570" y="886" on="1"/>
        <pt x="570" y="817" on="0"/>
      </contour>
      <contour>
        <pt x="89" y="740" on="1"/>
        <pt x="608" y="740" on="1"/>
        <pt x="608" y="646" on="1"/>
        <pt x="208" y="646" on="1"/>
        <pt x="208" y="422" on="1"/>
        <pt x="581" y="422" on="1"/>
        <pt x="581" y="327" on="1"/>
        <pt x="208" y="327" on="1"/>
        <pt x="208" y="94" on="1"/>
        <pt x="617" y="94" on="1"/>
        <pt x="617" y="0" on="1"/>
        <pt x="89" y="0" on="1"/>
      </contour>
    </TTGlyph>
    <TTGlyph name="Edieresis.sc" xMin="84" yMin="0" xMax="558" yMax="760">
      <contour>
        <pt x="195" y="634" on="1"/>
        <pt x="161" y="634" on="0"/>
        <pt x="128" y="664" on="0"/>
        <pt x="128" y="697" on="1"/>
        <pt x="128" y="760" on="0"/>
        <pt x="195" y="760" on="1"/>
        <pt x="230" y="760" on="0"/>
        <pt x="261" y="729" on="0"/>
        <pt x="261" y="697" on="1"/>
        <pt x="261" y="665" on="0"/>
        <pt x="230" y="634" on="0"/>
      </contour>
      <contour>
        <pt x="454" y="634" on="1"/>
        <pt x="419" y="634" on="0"/>
        <pt x="387" y="664" on="0"/>
        <pt x="387" y="697" on="1"/>
        <pt x="387" y="760" on="0"/>
        <pt x="454" y="760" on="1"/>
        <pt x="519" y="760" on="0"/>
        <pt x="519" y="697" on="1"/>
        <pt x="519" y="634" on="0"/>
      </contour>
      <contour>
        <pt x="84" y="577" on="1"/>
        <pt x="551" y="577" on="1"/>
        <pt x="551" y="491" on="1"/>
        <pt x="199" y="491" on="1"/>
        <pt x="199" y="330" on="1"/>
        <pt x="526" y="330" on="1"/>
        <pt x="526" y="255" on="1"/>
        <pt x="199" y="255" on="1"/>
        <pt x="199" y="86" on="1"/>
        <pt x="558" y="86" on="1"/>
        <pt x="558" y="0" on="1"/>
        <pt x="84" y="0" on="1"/>
      </contour>
    </TTGlyph>
    <TTGlyph name="Edotaccent" xMin="89" yMin="0" xMax="617" yMax="952">
      <contour>
        <pt x="346" y="814" on="1"/>
        <pt x="310" y="814" on="0"/>
        <pt x="275" y="846" on="0"/>
        <pt x="275" y="882" on="1"/>
        <pt x="275" y="919" on="0"/>
        <pt x="310" y="952" on="0"/>
        <pt x="346" y="952" on="1"/>
        <pt x="417" y="952" on="0"/>
        <pt x="417" y="882" on="1"/>
        <pt x="417" y="814" on="0"/>
      </contour>
      <contour>
        <pt x="89" y="740" on="1"/>
        <pt x="608" y="740" on="1"/>
        <pt x="608" y="646" on="1"/>
        <pt x="208" y="646" on="1"/>
        <pt x="208" y="422" on="1"/>
        <pt x="581" y="422" on="1"/>
        <pt x="581" y="327" on="1"/>
        <pt x="208" y="327" on="1"/>
        <pt x="208" y="94" on="1"/>
        <pt x="617" y="94" on="1"/>
        <pt x="617" y="0" on="1"/>
        <pt x="89" y="0" on="1"/>
      </contour>
    </TTGlyph>
    <TTGlyph name="Edotaccent.sc" xMin="84" yMin="0" xMax="558" yMax="758">
      <contour>
        <pt x="315" y="632" on="1"/>
        <pt x="280" y="632" on="0"/>
        <pt x="248" y="661" on="0"/>
        <pt x="248" y="695" on="1"/>
        <pt x="248" y="728" on="0"/>
        <pt x="280" y="758" on="0"/>
        <pt x="315" y="758" on="1"/>
        <pt x="381" y="758" on="0"/>
        <pt x="381" y="695" on="1"/>
        <pt x="381" y="632" on="0"/>
      </contour>
      <contour>
        <pt x="84" y="577" on="1"/>
        <pt x="551" y="577" on="1"/>
        <pt x="551" y="491" on="1"/>
        <pt x="199" y="491" on="1"/>
        <pt x="199" y="330" on="1"/>
        <pt x="526" y="330" on="1"/>
        <pt x="526" y="255" on="1"/>
        <pt x="199" y="255" on="1"/>
        <pt x="199" y="86" on="1"/>
        <pt x="558" y="86" on="1"/>
        <pt x="558" y="0" on="1"/>
        <pt x="84" y="0" on="1"/>
      </contour>
    </TTGlyph>
    <TTGlyph name="Edotbelow" xMin="89" yMin="-191" xMax="617" yMax="740">
      <contour>
        <pt x="89" y="740" on="1"/>
        <pt x="608" y="740" on="1"/>
        <pt x="608" y="646" on="1"/>
        <pt x="208" y="646" on="1"/>
        <pt x="208" y="422" on="1"/>
        <pt x="581" y="422" on="1"/>
        <pt x="581" y="327" on="1"/>
        <pt x="208" y="327" on="1"/>
        <pt x="208" y="94" on="1"/>
        <pt x="617" y="94" on="1"/>
        <pt x="617" y="0" on="1"/>
        <pt x="89" y="0" on="1"/>
      </contour>
      <contour>
        <pt x="369" y="-191" on="1"/>
        <pt x="339" y="-191" on="0"/>
        <pt x="309" y="-164" on="0"/>
        <pt x="309" y="-133" on="1"/>
        <pt x="309" y="-74" on="0"/>
        <pt x="369" y="-74" on="1"/>
        <pt x="430" y="-74" on="0"/>
        <pt x="430" y="-133" on="1"/>
        <pt x="430" y="-164" on="0"/>
        <pt x="401" y="-191" on="0"/>
      </contour>
    </TTGlyph>
    <TTGlyph name="Edotbelow.sc" xMin="84" yMin="-155" xMax="558" yMax="577">
      <contour>
        <pt x="336" y="-155" on="1"/>
        <pt x="280" y="-155" on="0"/>
        <pt x="280" y="-104" on="1"/>
        <pt x="280" y="-52" on="0"/>
        <pt x="336" y="-52" on="1"/>
        <pt x="391" y="-52" on="0"/>
        <pt x="391" y="-104" on="1"/>
        <pt x="391" y="-155" on="0"/>
      </contour>
      <contour>
        <pt x="84" y="577" on="1"/>
        <pt x="551" y="577" on="1"/>
        <pt x="551" y="491" on="1"/>
        <pt x="199" y="491" on="1"/>
        <pt x="199" y="330" on="1"/>
        <pt x="526" y="330" on="1"/>
        <pt x="526" y="255" on="1"/>
        <pt x="199" y="255" on="1"/>
        <pt x="199" y="86" on="1"/>
        <pt x="558" y="86" on="1"/>
        <pt x="558" y="0" on="1"/>
        <pt x="84" y="0" on="1"/>
      </contour>
    </TTGlyph>
    <TTGlyph name="Egrave" xMin="89" yMin="0" xMax="617" yMax="963">
      <contour>
        <pt x="322" y="805" on="1"/>
        <pt x="217" y="963" on="1"/>
        <pt x="339" y="963" on="1"/>
        <pt x="410" y="818" on="1"/>
      </contour>
      <contour>
        <pt x="89" y="740" on="1"/>
        <pt x="608" y="740" on="1"/>
        <pt x="608" y="646" on="1"/>
        <pt x="208" y="646" on="1"/>
        <pt x="208" y="422" on="1"/>
        <pt x="581" y="422" on="1"/>
        <pt x="581" y="327" on="1"/>
        <pt x="208" y="327" on="1"/>
        <pt x="208" y="94" on="1"/>
        <pt x="617" y="94" on="1"/>
        <pt x="617" y="0" on="1"/>
        <pt x="89" y="0" on="1"/>
      </contour>
    </TTGlyph>
    <TTGlyph name="Egrave.sc" xMin="84" yMin="0" xMax="558" yMax="760">
      <contour>
        <pt x="84" y="577" on="1"/>
        <pt x="551" y="577" on="1"/>
        <pt x="551" y="491" on="1"/>
        <pt x="199" y="491" on="1"/>
        <pt x="199" y="330" on="1"/>
        <pt x="526" y="330" on="1"/>
        <pt x="526" y="255" on="1"/>
        <pt x="199" y="255" on="1"/>
        <pt x="199" y="86" on="1"/>
        <pt x="558" y="86" on="1"/>
        <pt x="558" y="0" on="1"/>
        <pt x="84" y="0" on="1"/>
      </contour>
      <contour>
        <pt x="199" y="760" on="1"/>
        <pt x="315" y="760" on="1"/>
        <pt x="376" y="639" on="1"/>
        <pt x="293" y="629" on="1"/>
      </contour>
    </TTGlyph>
    <TTGlyph name="Einvertedbreve" xMin="89" yMin="0" xMax="617" yMax="976">
      <contour>
        <pt x="89" y="740" on="1"/>
        <pt x="608" y="740" on="1"/>
        <pt x="608" y="646" on="1"/>
        <pt x="208" y="646" on="1"/>
        <pt x="208" y="422" on="1"/>
        <pt x="581" y="422" on="1"/>
        <pt x="581" y="327" on="1"/>
        <pt x="208" y="327" on="1"/>
        <pt x="208" y="94" on="1"/>
        <pt x="617" y="94" on="1"/>
        <pt x="617" y="0" on="1"/>
        <pt x="89" y="0" on="1"/>
      </contour>
      <contour>
        <pt x="471" y="819" on="1"/>
        <pt x="471" y="863" on="0"/>
        <pt x="413" y="912" on="0"/>
        <pt x="350" y="912" on="1"/>
        <pt x="287" y="912" on="0"/>
        <pt x="229" y="863" on="0"/>
        <pt x="229" y="819" on="1"/>
        <pt x="146" y="819" on="1"/>
        <pt x="146" y="888" on="0"/>
        <pt x="243" y="976" on="0"/>
        <pt x="350" y="976" on="1"/>
        <pt x="457" y="976" on="0"/>
        <pt x="554" y="889" on="0"/>
        <pt x="554" y="819" on="1"/>
      </contour>
    </TTGlyph>
    <TTGlyph name="Einvertedbreve.sc" xMin="84" yMin="0" xMax="558" yMax="770">
      <contour>
        <pt x="135" y="639" on="1"/>
        <pt x="135" y="667" on="0"/>
        <pt x="155" y="715" on="0"/>
        <pt x="199" y="750" on="0"/>
        <pt x="269" y="770" on="0"/>
        <pt x="318" y="770" on="1"/>
        <pt x="416" y="770" on="0"/>
        <pt x="503" y="696" on="0"/>
        <pt x="503" y="639" on="1"/>
        <pt x="425" y="639" on="1"/>
        <pt x="425" y="673" on="0"/>
        <pt x="375" y="711" on="0"/>
        <pt x="318" y="711" on="1"/>
        <pt x="262" y="711" on="0"/>
        <pt x="213" y="673" on="0"/>
        <pt x="213" y="639" on="1"/>
      </contour>
      <contour>
        <pt x="84" y="577" on="1"/>
        <pt x="551" y="577" on="1"/>
        <pt x="551" y="491" on="1"/>
        <pt x="199" y="491" on="1"/>
        <pt x="199" y="330" on="1"/>
        <pt x="526" y="330" on="1"/>
        <pt x="526" y="255" on="1"/>
        <pt x="199" y="255" on="1"/>
        <pt x="199" y="86" on="1"/>
        <pt x="558" y="86" on="1"/>
        <pt x="558" y="0" on="1"/>
        <pt x="84" y="0" on="1"/>
      </contour>
    </TTGlyph>
    <TTGlyph name="Emacron" xMin="89" yMin="0" xMax="617" yMax="925">
      <contour>
        <pt x="167" y="925" on="1"/>
        <pt x="536" y="925" on="1"/>
        <pt x="536" y="842" on="1"/>
        <pt x="167" y="842" on="1"/>
      </contour>
      <contour>
        <pt x="89" y="740" on="1"/>
        <pt x="608" y="740" on="1"/>
        <pt x="608" y="646" on="1"/>
        <pt x="208" y="646" on="1"/>
        <pt x="208" y="422" on="1"/>
        <pt x="581" y="422" on="1"/>
        <pt x="581" y="327" on="1"/>
        <pt x="208" y="327" on="1"/>
        <pt x="208" y="94" on="1"/>
        <pt x="617" y="94" on="1"/>
        <pt x="617" y="0" on="1"/>
        <pt x="89" y="0" on="1"/>
      </contour>
    </TTGlyph>
    <TTGlyph name="Emacron.sc" xMin="84" yMin="0" xMax="558" yMax="733">
      <contour>
        <pt x="84" y="577" on="1"/>
        <pt x="551" y="577" on="1"/>
        <pt x="551" y="491" on="1"/>
        <pt x="199" y="491" on="1"/>
        <pt x="199" y="330" on="1"/>
        <pt x="526" y="330" on="1"/>
        <pt x="526" y="255" on="1"/>
        <pt x="199" y="255" on="1"/>
        <pt x="199" y="86" on="1"/>
        <pt x="558" y="86" on="1"/>
        <pt x="558" y="0" on="1"/>
        <pt x="84" y="0" on="1"/>
      </contour>
      <contour>
        <pt x="154" y="733" on="1"/>
        <pt x="488" y="733" on="1"/>
        <pt x="488" y="657" on="1"/>
        <pt x="154" y="657" on="1"/>
      </contour>
    </TTGlyph>
    <TTGlyph name="Eng" xMin="89" yMin="-198" xMax="745" yMax="740">
      <contour>
        <pt x="554" y="-172" on="1"/>
        <pt x="584" y="-118" on="0"/>
        <pt x="620" y="-14" on="0"/>
        <pt x="625" y="29" on="1"/>
        <pt x="270" y="478" on="1"/>
        <pt x="203" y="568" on="1"/>
        <pt x="196" y="568" on="1"/>
        <pt x="196" y="0" on="1"/>
        <pt x="89" y="0" on="1"/>
        <pt x="89" y="740" on="1"/>
        <pt x="183" y="740" on="1"/>
        <pt x="565" y="260" on="1"/>
        <pt x="630" y="171" on="1"/>
        <pt x="638" y="171" on="1"/>
        <pt x="638" y="740" on="1"/>
        <pt x="745" y="740" on="1"/>
        <pt x="745" y="100" on="1"/>
        <pt x="745" y="68" on="0"/>
        <pt x="728" y="-9" on="0"/>
        <pt x="699" y="-89" on="0"/>
        <pt x="660" y="-167" on="0"/>
        <pt x="637" y="-198" on="1"/>
      </contour>
    </TTGlyph>
    <TTGlyph name="Eng.sc" xMin="84" yMin="-159" xMax="658" yMax="577">
      <contour>
        <pt x="489" y="-134" on="1"/>
        <pt x="540" y="-43" on="0"/>
        <pt x="551" y="18" on="1"/>
        <pt x="254" y="348" on="1"/>
        <pt x="193" y="420" on="1"/>
        <pt x="187" y="420" on="1"/>
        <pt x="187" y="0" on="1"/>
        <pt x="84" y="0" on="1"/>
        <pt x="84" y="577" on="1"/>
        <pt x="173" y="577" on="1"/>
        <pt x="490" y="225" on="1"/>
        <pt x="549" y="156" on="1"/>
        <pt x="555" y="156" on="1"/>
        <pt x="555" y="577" on="1"/>
        <pt x="658" y="577" on="1"/>
        <pt x="658" y="85" on="1"/>
        <pt x="658" y="31" on="0"/>
        <pt x="608" y="-101" on="0"/>
        <pt x="567" y="-159" on="1"/>
      </contour>
    </TTGlyph>
    <TTGlyph name="Eogonek" xMin="89" yMin="-220" xMax="617" yMax="740">
      <contour>
        <pt x="89" y="740" on="1"/>
        <pt x="608" y="740" on="1"/>
        <pt x="608" y="646" on="1"/>
        <pt x="208" y="646" on="1"/>
        <pt x="208" y="422" on="1"/>
        <pt x="581" y="422" on="1"/>
        <pt x="581" y="327" on="1"/>
        <pt x="208" y="327" on="1"/>
        <pt x="208" y="94" on="1"/>
        <pt x="617" y="94" on="1"/>
        <pt x="617" y="-16" on="1"/>
        <pt x="550" y="-48" on="0"/>
        <pt x="493" y="-98" on="0"/>
        <pt x="493" y="-124" on="1"/>
        <pt x="493" y="-154" on="0"/>
        <pt x="534" y="-154" on="1"/>
        <pt x="548" y="-154" on="0"/>
        <pt x="595" y="-147" on="0"/>
        <pt x="616" y="-142" on="1"/>
        <pt x="616" y="-208" on="1"/>
        <pt x="600" y="-214" on="0"/>
        <pt x="558" y="-220" on="0"/>
        <pt x="535" y="-220" on="1"/>
        <pt x="413" y="-220" on="0"/>
        <pt x="413" y="-135" on="1"/>
        <pt x="413" y="-98" on="0"/>
        <pt x="463" y="-34" on="0"/>
        <pt x="520" y="0" on="1"/>
        <pt x="89" y="0" on="1"/>
      </contour>
    </TTGlyph>
    <TTGlyph name="Eogonek.sc" xMin="84" yMin="-172" xMax="558" yMax="577">
      <contour>
        <pt x="484" y="-172" on="1"/>
        <pt x="426" y="-172" on="0"/>
        <pt x="373" y="-137" on="0"/>
        <pt x="373" y="-103" on="1"/>
        <pt x="373" y="-72" on="0"/>
        <pt x="414" y="-25" on="0"/>
        <pt x="462" y="0" on="1"/>
        <pt x="84" y="0" on="1"/>
        <pt x="84" y="577" on="1"/>
        <pt x="551" y="577" on="1"/>
        <pt x="551" y="491" on="1"/>
        <pt x="199" y="491" on="1"/>
        <pt x="199" y="330" on="1"/>
        <pt x="526" y="330" on="1"/>
        <pt x="526" y="255" on="1"/>
        <pt x="199" y="255" on="1"/>
        <pt x="199" y="86" on="1"/>
        <pt x="558" y="86" on="1"/>
        <pt x="558" y="-11" on="1"/>
        <pt x="496" y="-34" on="0"/>
        <pt x="448" y="-69" on="0"/>
        <pt x="448" y="-88" on="1"/>
        <pt x="448" y="-101" on="0"/>
        <pt x="467" y="-110" on="0"/>
        <pt x="484" y="-110" on="1"/>
        <pt x="498" y="-110" on="0"/>
        <pt x="543" y="-105" on="0"/>
        <pt x="558" y="-101" on="1"/>
        <pt x="558" y="-162" on="1"/>
        <pt x="541" y="-167" on="0"/>
        <pt x="503" y="-172" on="0"/>
      </contour>
    </TTGlyph>
    <TTGlyph name="Eth" xMin="6" yMin="-9" xMax="754" yMax="749">
      <contour>
        <pt x="6" y="418" on="1"/>
        <pt x="103" y="418" on="1"/>
        <pt x="103" y="739" on="1"/>
        <pt x="134" y="741" on="0"/>
        <pt x="200" y="744" on="0"/>
        <pt x="264" y="747" on="0"/>
        <pt x="321" y="749" on="0"/>
        <pt x="342" y="749" on="1"/>
        <pt x="555" y="749" on="0"/>
        <pt x="754" y="566" on="0"/>
        <pt x="754" y="370" on="1"/>
        <pt x="754" y="271" on="0"/>
        <pt x="704" y="127" on="0"/>
        <pt x="598" y="35" on="0"/>
        <pt x="433" y="-9" on="0"/>
        <pt x="318" y="-9" on="1"/>
        <pt x="284" y="-9" on="0"/>
        <pt x="218" y="-7" on="0"/>
        <pt x="161" y="-3" on="0"/>
        <pt x="116" y="3" on="0"/>
        <pt x="103" y="6" on="1"/>
        <pt x="103" y="324" on="1"/>
        <pt x="6" y="324" on="1"/>
      </contour>
      <contour>
        <pt x="359" y="87" on="1"/>
        <pt x="431" y="87" on="0"/>
        <pt x="535" y="119" on="0"/>
        <pt x="601" y="188" on="0"/>
        <pt x="632" y="295" on="0"/>
        <pt x="632" y="370" on="1"/>
        <pt x="632" y="518" on="0"/>
        <pt x="502" y="651" on="0"/>
        <pt x="356" y="651" on="1"/>
        <pt x="330" y="651" on="0"/>
        <pt x="257" y="647" on="0"/>
        <pt x="222" y="644" on="1"/>
        <pt x="222" y="418" on="1"/>
        <pt x="399" y="418" on="1"/>
        <pt x="399" y="324" on="1"/>
        <pt x="222" y="324" on="1"/>
        <pt x="222" y="98" on="1"/>
        <pt x="259" y="92" on="0"/>
        <pt x="321" y="87" on="0"/>
      </contour>
    </TTGlyph>
    <TTGlyph name="Eth.sc" xMin="14" yMin="-7" xMax="682" yMax="584">
      <contour>
        <pt x="14" y="330" on="1"/>
        <pt x="98" y="330" on="1"/>
        <pt x="98" y="576" on="1"/>
        <pt x="127" y="578" on="0"/>
        <pt x="188" y="581" on="0"/>
        <pt x="246" y="583" on="0"/>
        <pt x="297" y="584" on="0"/>
        <pt x="316" y="584" on="1"/>
        <pt x="505" y="584" on="0"/>
        <pt x="682" y="441" on="0"/>
        <pt x="682" y="288" on="1"/>
        <pt x="682" y="210" on="0"/>
        <pt x="637" y="98" on="0"/>
        <pt x="542" y="27" on="0"/>
        <pt x="394" y="-7" on="0"/>
        <pt x="291" y="-7" on="1"/>
        <pt x="230" y="-7" on="0"/>
        <pt x="123" y="0" on="0"/>
        <pt x="98" y="5" on="1"/>
        <pt x="98" y="248" on="1"/>
        <pt x="14" y="248" on="1"/>
      </contour>
      <contour>
        <pt x="333" y="84" on="1"/>
        <pt x="395" y="84" on="0"/>
        <pt x="483" y="107" on="0"/>
        <pt x="539" y="156" on="0"/>
        <pt x="565" y="233" on="0"/>
        <pt x="565" y="288" on="1"/>
        <pt x="565" y="342" on="0"/>
        <pt x="539" y="420" on="0"/>
        <pt x="482" y="469" on="0"/>
        <pt x="393" y="492" on="0"/>
        <pt x="330" y="492" on="1"/>
        <pt x="308" y="492" on="0"/>
        <pt x="244" y="489" on="0"/>
        <pt x="213" y="487" on="1"/>
        <pt x="213" y="330" on="1"/>
        <pt x="363" y="330" on="1"/>
        <pt x="363" y="248" on="1"/>
        <pt x="213" y="248" on="1"/>
        <pt x="213" y="92" on="1"/>
        <pt x="245" y="87" on="0"/>
        <pt x="300" y="84" on="0"/>
      </contour>
    </TTGlyph>
    <TTGlyph name="Etilde" xMin="89" yMin="0" xMax="617" yMax="955">
      <contour>
        <pt x="130" y="865" on="1"/>
        <pt x="162" y="911" on="0"/>
        <pt x="238" y="955" on="0"/>
        <pt x="274" y="955" on="1"/>
        <pt x="300" y="955" on="0"/>
        <pt x="347" y="942" on="0"/>
        <pt x="393" y="927" on="0"/>
        <pt x="439" y="915" on="0"/>
        <pt x="464" y="915" on="1"/>
        <pt x="490" y="915" on="0"/>
        <pt x="537" y="932" on="0"/>
        <pt x="565" y="953" on="1"/>
        <pt x="588" y="922" on="1"/>
        <pt x="557" y="877" on="0"/>
        <pt x="477" y="832" on="0"/>
        <pt x="439" y="832" on="1"/>
        <pt x="415" y="832" on="0"/>
        <pt x="368" y="844" on="0"/>
        <pt x="321" y="859" on="0"/>
        <pt x="274" y="871" on="0"/>
        <pt x="251" y="871" on="1"/>
        <pt x="227" y="871" on="0"/>
        <pt x="180" y="856" on="0"/>
        <pt x="154" y="835" on="1"/>
      </contour>
      <contour>
        <pt x="89" y="740" on="1"/>
        <pt x="608" y="740" on="1"/>
        <pt x="608" y="646" on="1"/>
        <pt x="208" y="646" on="1"/>
        <pt x="208" y="422" on="1"/>
        <pt x="581" y="422" on="1"/>
        <pt x="581" y="327" on="1"/>
        <pt x="208" y="327" on="1"/>
        <pt x="208" y="94" on="1"/>
        <pt x="617" y="94" on="1"/>
        <pt x="617" y="0" on="1"/>
        <pt x="89" y="0" on="1"/>
      </contour>
    </TTGlyph>
    <TTGlyph name="Etilde.sc" xMin="84" yMin="0" xMax="558" yMax="756">
      <contour>
        <pt x="120" y="675" on="1"/>
        <pt x="149" y="716" on="0"/>
        <pt x="217" y="756" on="0"/>
        <pt x="250" y="756" on="1"/>
        <pt x="273" y="756" on="0"/>
        <pt x="316" y="747" on="0"/>
        <pt x="358" y="735" on="0"/>
        <pt x="399" y="726" on="0"/>
        <pt x="422" y="726" on="1"/>
        <pt x="444" y="726" on="0"/>
        <pt x="487" y="738" on="0"/>
        <pt x="512" y="754" on="1"/>
        <pt x="533" y="729" on="1"/>
        <pt x="504" y="689" on="0"/>
        <pt x="431" y="648" on="0"/>
        <pt x="398" y="648" on="1"/>
        <pt x="376" y="648" on="0"/>
        <pt x="333" y="658" on="0"/>
        <pt x="290" y="669" on="0"/>
        <pt x="248" y="679" on="0"/>
        <pt x="227" y="679" on="1"/>
        <pt x="205" y="679" on="0"/>
        <pt x="164" y="667" on="0"/>
        <pt x="141" y="650" on="1"/>
      </contour>
      <contour>
        <pt x="84" y="577" on="1"/>
        <pt x="551" y="577" on="1"/>
        <pt x="551" y="491" on="1"/>
        <pt x="199" y="491" on="1"/>
        <pt x="199" y="330" on="1"/>
        <pt x="526" y="330" on="1"/>
        <pt x="526" y="255" on="1"/>
        <pt x="199" y="255" on="1"/>
        <pt x="199" y="86" on="1"/>
        <pt x="558" y="86" on="1"/>
        <pt x="558" y="0" on="1"/>
        <pt x="84" y="0" on="1"/>
      </contour>
    </TTGlyph>
    <TTGlyph name="Euro" xMin="44" yMin="-10" xMax="648" yMax="749">
      <contour>
        <pt x="44" y="490" on="1"/>
        <pt x="136" y="490" on="1"/>
        <pt x="161" y="623" on="0"/>
        <pt x="343" y="749" on="0"/>
        <pt x="516" y="749" on="1"/>
        <pt x="562" y="749" on="0"/>
        <pt x="625" y="741" on="0"/>
        <pt x="648" y="739" on="1"/>
        <pt x="613" y="641" on="1"/>
        <pt x="603" y="643" on="0"/>
        <pt x="561" y="647" on="0"/>
        <pt x="541" y="647" on="1"/>
        <pt x="473" y="647" on="0"/>
        <pt x="374" y="631" on="0"/>
        <pt x="307" y="594" on="0"/>
        <pt x="266" y="534" on="0"/>
        <pt x="257" y="490" on="1"/>
        <pt x="564" y="490" on="1"/>
        <pt x="547" y="418" on="1"/>
        <pt x="248" y="418" on="1"/>
        <pt x="247" y="407" on="0"/>
        <pt x="247" y="383" on="0"/>
        <pt x="247" y="370" on="1"/>
        <pt x="247" y="356" on="0"/>
        <pt x="247" y="332" on="0"/>
        <pt x="248" y="321" on="1"/>
        <pt x="526" y="321" on="1"/>
        <pt x="509" y="250" on="1"/>
        <pt x="258" y="250" on="1"/>
        <pt x="268" y="206" on="0"/>
        <pt x="308" y="146" on="0"/>
        <pt x="376" y="109" on="0"/>
        <pt x="473" y="92" on="0"/>
        <pt x="539" y="92" on="1"/>
        <pt x="561" y="92" on="0"/>
        <pt x="609" y="96" on="0"/>
        <pt x="637" y="101" on="1"/>
        <pt x="637" y="-1" on="1"/>
        <pt x="619" y="-6" on="0"/>
        <pt x="560" y="-10" on="0"/>
        <pt x="525" y="-10" on="1"/>
        <pt x="348" y="-9" on="0"/>
        <pt x="162" y="118" on="0"/>
        <pt x="137" y="250" on="1"/>
        <pt x="44" y="250" on="1"/>
        <pt x="44" y="321" on="1"/>
        <pt x="128" y="321" on="1"/>
        <pt x="127" y="332" on="0"/>
        <pt x="127" y="356" on="0"/>
        <pt x="127" y="369" on="1"/>
        <pt x="127" y="382" on="0"/>
        <pt x="127" y="406" on="0"/>
        <pt x="128" y="418" on="1"/>
        <pt x="44" y="418" on="1"/>
      </contour>
    </TTGlyph>
    <TTGlyph name="Euro.tab" xMin="10" yMin="-10" xMax="585" yMax="749">
      <contour>
        <pt x="10" y="490" on="1"/>
        <pt x="98" y="490" on="1"/>
        <pt x="122" y="625" on="0"/>
        <pt x="294" y="749" on="0"/>
        <pt x="457" y="749" on="1"/>
        <pt x="502" y="749" on="0"/>
        <pt x="563" y="741" on="0"/>
        <pt x="585" y="739" on="1"/>
        <pt x="551" y="641" on="1"/>
        <pt x="543" y="643" on="0"/>
        <pt x="501" y="647" on="0"/>
        <pt x="481" y="647" on="1"/>
        <pt x="421" y="647" on="0"/>
        <pt x="332" y="630" on="0"/>
        <pt x="269" y="593" on="0"/>
        <pt x="229" y="533" on="0"/>
        <pt x="220" y="490" on="1"/>
        <pt x="506" y="490" on="1"/>
        <pt x="490" y="418" on="1"/>
        <pt x="207" y="418" on="1"/>
        <pt x="206" y="409" on="0"/>
        <pt x="205" y="381" on="0"/>
        <pt x="205" y="370" on="1"/>
        <pt x="205" y="359" on="0"/>
        <pt x="206" y="331" on="0"/>
        <pt x="207" y="321" on="1"/>
        <pt x="471" y="321" on="1"/>
        <pt x="455" y="250" on="1"/>
        <pt x="220" y="250" on="1"/>
        <pt x="239" y="166" on="0"/>
        <pt x="363" y="92" on="0"/>
        <pt x="480" y="92" on="1"/>
        <pt x="502" y="92" on="0"/>
        <pt x="549" y="96" on="0"/>
        <pt x="575" y="101" on="1"/>
        <pt x="575" y="-1" on="1"/>
        <pt x="557" y="-6" on="0"/>
        <pt x="501" y="-10" on="0"/>
        <pt x="466" y="-10" on="1"/>
        <pt x="299" y="-9" on="0"/>
        <pt x="122" y="117" on="0"/>
        <pt x="98" y="250" on="1"/>
        <pt x="10" y="250" on="1"/>
        <pt x="10" y="321" on="1"/>
        <pt x="89" y="321" on="1"/>
        <pt x="89" y="331" on="0"/>
        <pt x="88" y="359" on="0"/>
        <pt x="88" y="369" on="1"/>
        <pt x="88" y="380" on="0"/>
        <pt x="88" y="409" on="0"/>
        <pt x="89" y="418" on="1"/>
        <pt x="10" y="418" on="1"/>
      </contour>
    </TTGlyph>
    <TTGlyph name="F" xMin="89" yMin="0" xMax="608" yMax="740">
      <contour>
        <pt x="89" y="740" on="1"/>
        <pt x="608" y="740" on="1"/>
        <pt x="608" y="646" on="1"/>
        <pt x="208" y="646" on="1"/>
        <pt x="208" y="409" on="1"/>
        <pt x="569" y="409" on="1"/>
        <pt x="569" y="315" on="1"/>
        <pt x="208" y="315" on="1"/>
        <pt x="208" y="0" on="1"/>
        <pt x="89" y="0" on="1"/>
      </contour>
    </TTGlyph>
    <TTGlyph name="F.sc" xMin="84" yMin="0" xMax="551" yMax="577">
      <contour>
        <pt x="84" y="577" on="1"/>
        <pt x="551" y="577" on="1"/>
        <pt x="551" y="489" on="1"/>
        <pt x="199" y="489" on="1"/>
        <pt x="199" y="318" on="1"/>
        <pt x="516" y="318" on="1"/>
        <pt x="516" y="239" on="1"/>
        <pt x="199" y="239" on="1"/>
        <pt x="199" y="0" on="1"/>
        <pt x="84" y="0" on="1"/>
      </contour>
    </TTGlyph>
    <TTGlyph name="F_B.sc" xMin="84" yMin="-8" xMax="1175" yMax="584">
      <contour>
        <pt x="84" y="577" on="1"/>
        <pt x="551" y="577" on="1"/>
        <pt x="551" y="489" on="1"/>
        <pt x="199" y="489" on="1"/>
        <pt x="199" y="318" on="1"/>
        <pt x="516" y="318" on="1"/>
        <pt x="516" y="239" on="1"/>
        <pt x="199" y="239" on="1"/>
        <pt x="199" y="0" on="1"/>
        <pt x="84" y="0" on="1"/>
      </contour>
      <contour>
        <pt x="904" y="-8" on="1"/>
        <pt x="844" y="-8" on="0"/>
        <pt x="723" y="-2" on="0"/>
        <pt x="651" y="4" on="1"/>
        <pt x="651" y="573" on="1"/>
        <pt x="720" y="578" on="0"/>
        <pt x="831" y="584" on="0"/>
        <pt x="884" y="584" on="1"/>
        <pt x="1026" y="584" on="0"/>
        <pt x="1153" y="509" on="0"/>
        <pt x="1153" y="425" on="1"/>
        <pt x="1153" y="375" on="0"/>
        <pt x="1092" y="308" on="0"/>
        <pt x="1036" y="297" on="1"/>
        <pt x="1036" y="294" on="1"/>
        <pt x="1175" y="270" on="0"/>
        <pt x="1175" y="155" on="1"/>
        <pt x="1175" y="71" on="0"/>
        <pt x="1043" y="-8" on="0"/>
      </contour>
      <contour>
        <pt x="897" y="71" on="1"/>
        <pt x="982" y="71" on="0"/>
        <pt x="1062" y="117" on="0"/>
        <pt x="1062" y="166" on="1"/>
        <pt x="1062" y="214" on="0"/>
        <pt x="990" y="257" on="0"/>
        <pt x="913" y="257" on="1"/>
        <pt x="762" y="257" on="1"/>
        <pt x="762" y="77" on="1"/>
        <pt x="782" y="73" on="0"/>
        <pt x="840" y="71" on="0"/>
      </contour>
      <contour>
        <pt x="902" y="328" on="1"/>
        <pt x="977" y="328" on="0"/>
        <pt x="1041" y="369" on="0"/>
        <pt x="1041" y="417" on="1"/>
        <pt x="1041" y="466" on="0"/>
        <pt x="972" y="506" on="0"/>
        <pt x="887" y="506" on="1"/>
        <pt x="847" y="506" on="0"/>
        <pt x="786" y="504" on="0"/>
        <pt x="762" y="500" on="1"/>
        <pt x="762" y="328" on="1"/>
      </contour>
    </TTGlyph>
    <TTGlyph name="F_F.sc" xMin="84" yMin="0" xMax="1118" yMax="577">
      <contour>
        <pt x="84" y="577" on="1"/>
        <pt x="551" y="577" on="1"/>
        <pt x="551" y="489" on="1"/>
        <pt x="199" y="489" on="1"/>
        <pt x="199" y="318" on="1"/>
        <pt x="516" y="318" on="1"/>
        <pt x="516" y="239" on="1"/>
        <pt x="199" y="239" on="1"/>
        <pt x="199" y="0" on="1"/>
        <pt x="84" y="0" on="1"/>
      </contour>
      <contour>
        <pt x="651" y="577" on="1"/>
        <pt x="1118" y="577" on="1"/>
        <pt x="1118" y="489" on="1"/>
        <pt x="766" y="489" on="1"/>
        <pt x="766" y="318" on="1"/>
        <pt x="1083" y="318" on="1"/>
        <pt x="1083" y="239" on="1"/>
        <pt x="766" y="239" on="1"/>
        <pt x="766" y="0" on="1"/>
        <pt x="651" y="0" on="1"/>
      </contour>
    </TTGlyph>
    <TTGlyph name="F_F_B.sc" xMin="84" yMin="-8" xMax="1742" yMax="584">
      <contour>
        <pt x="84" y="577" on="1"/>
        <pt x="551" y="577" on="1"/>
        <pt x="551" y="489" on="1"/>
        <pt x="199" y="489" on="1"/>
        <pt x="199" y="318" on="1"/>
        <pt x="516" y="318" on="1"/>
        <pt x="516" y="239" on="1"/>
        <pt x="199" y="239" on="1"/>
        <pt x="199" y="0" on="1"/>
        <pt x="84" y="0" on="1"/>
      </contour>
      <contour>
        <pt x="651" y="577" on="1"/>
        <pt x="1118" y="577" on="1"/>
        <pt x="1118" y="489" on="1"/>
        <pt x="766" y="489" on="1"/>
        <pt x="766" y="318" on="1"/>
        <pt x="1083" y="318" on="1"/>
        <pt x="1083" y="239" on="1"/>
        <pt x="766" y="239" on="1"/>
        <pt x="766" y="0" on="1"/>
        <pt x="651" y="0" on="1"/>
      </contour>
      <contour>
        <pt x="1471" y="-8" on="1"/>
        <pt x="1411" y="-8" on="0"/>
        <pt x="1290" y="-2" on="0"/>
        <pt x="1218" y="4" on="1"/>
        <pt x="1218" y="573" on="1"/>
        <pt x="1287" y="578" on="0"/>
        <pt x="1398" y="584" on="0"/>
        <pt x="1451" y="584" on="1"/>
        <pt x="1593" y="584" on="0"/>
        <pt x="1720" y="509" on="0"/>
        <pt x="1720" y="425" on="1"/>
        <pt x="1720" y="375" on="0"/>
        <pt x="1659" y="308" on="0"/>
        <pt x="1603" y="297" on="1"/>
        <pt x="1603" y="294" on="1"/>
        <pt x="1742" y="270" on="0"/>
        <pt x="1742" y="155" on="1"/>
        <pt x="1742" y="71" on="0"/>
        <pt x="1610" y="-8" on="0"/>
      </contour>
      <contour>
        <pt x="1464" y="71" on="1"/>
        <pt x="1549" y="71" on="0"/>
        <pt x="1629" y="117" on="0"/>
        <pt x="1629" y="166" on="1"/>
        <pt x="1629" y="214" on="0"/>
        <pt x="1557" y="257" on="0"/>
        <pt x="1480" y="257" on="1"/>
        <pt x="1329" y="257" on="1"/>
        <pt x="1329" y="77" on="1"/>
        <pt x="1349" y="73" on="0"/>
        <pt x="1407" y="71" on="0"/>
      </contour>
      <contour>
        <pt x="1469" y="328" on="1"/>
        <pt x="1544" y="328" on="0"/>
        <pt x="1608" y="369" on="0"/>
        <pt x="1608" y="417" on="1"/>
        <pt x="1608" y="466" on="0"/>
        <pt x="1539" y="506" on="0"/>
        <pt x="1454" y="506" on="1"/>
        <pt x="1414" y="506" on="0"/>
        <pt x="1353" y="504" on="0"/>
        <pt x="1329" y="500" on="1"/>
        <pt x="1329" y="328" on="1"/>
      </contour>
    </TTGlyph>
    <TTGlyph name="F_F_H.sc" xMin="84" yMin="0" xMax="1803" yMax="577">
      <contour>
        <pt x="84" y="577" on="1"/>
        <pt x="551" y="577" on="1"/>
        <pt x="551" y="489" on="1"/>
        <pt x="199" y="489" on="1"/>
        <pt x="199" y="318" on="1"/>
        <pt x="516" y="318" on="1"/>
        <pt x="516" y="239" on="1"/>
        <pt x="199" y="239" on="1"/>
        <pt x="199" y="0" on="1"/>
        <pt x="84" y="0" on="1"/>
      </contour>
      <contour>
        <pt x="651" y="577" on="1"/>
        <pt x="1118" y="577" on="1"/>
        <pt x="1118" y="489" on="1"/>
        <pt x="766" y="489" on="1"/>
        <pt x="766" y="318" on="1"/>
        <pt x="1083" y="318" on="1"/>
        <pt x="1083" y="239" on="1"/>
        <pt x="766" y="239" on="1"/>
        <pt x="766" y="0" on="1"/>
        <pt x="651" y="0" on="1"/>
      </contour>
      <contour>
        <pt x="1218" y="577" on="1"/>
        <pt x="1333" y="577" on="1"/>
        <pt x="1333" y="340" on="1"/>
        <pt x="1689" y="340" on="1"/>
        <pt x="1689" y="577" on="1"/>
        <pt x="1803" y="577" on="1"/>
        <pt x="1803" y="0" on="1"/>
        <pt x="1689" y="0" on="1"/>
        <pt x="1689" y="253" on="1"/>
        <pt x="1333" y="253" on="1"/>
        <pt x="1333" y="0" on="1"/>
        <pt x="1218" y="0" on="1"/>
      </contour>
    </TTGlyph>
    <TTGlyph name="F_F_I.sc" xMin="84" yMin="0" xMax="1333" yMax="577">
      <contour>
        <pt x="84" y="577" on="1"/>
        <pt x="551" y="577" on="1"/>
        <pt x="551" y="489" on="1"/>
        <pt x="199" y="489" on="1"/>
        <pt x="199" y="318" on="1"/>
        <pt x="516" y="318" on="1"/>
        <pt x="516" y="239" on="1"/>
        <pt x="199" y="239" on="1"/>
        <pt x="199" y="0" on="1"/>
        <pt x="84" y="0" on="1"/>
      </contour>
      <contour>
        <pt x="651" y="577" on="1"/>
        <pt x="1118" y="577" on="1"/>
        <pt x="1118" y="489" on="1"/>
        <pt x="766" y="489" on="1"/>
        <pt x="766" y="318" on="1"/>
        <pt x="1083" y="318" on="1"/>
        <pt x="1083" y="239" on="1"/>
        <pt x="766" y="239" on="1"/>
        <pt x="766" y="0" on="1"/>
        <pt x="651" y="0" on="1"/>
      </contour>
      <contour>
        <pt x="1218" y="577" on="1"/>
        <pt x="1333" y="577" on="1"/>
        <pt x="1333" y="0" on="1"/>
        <pt x="1218" y="0" on="1"/>
      </contour>
    </TTGlyph>
    <TTGlyph name="F_F_J.sc" xMin="84" yMin="-157" xMax="1343" yMax="577">
      <contour>
        <pt x="84" y="577" on="1"/>
        <pt x="551" y="577" on="1"/>
        <pt x="551" y="489" on="1"/>
        <pt x="199" y="489" on="1"/>
        <pt x="199" y="318" on="1"/>
        <pt x="516" y="318" on="1"/>
        <pt x="516" y="239" on="1"/>
        <pt x="199" y="239" on="1"/>
        <pt x="199" y="0" on="1"/>
        <pt x="84" y="0" on="1"/>
      </contour>
      <contour>
        <pt x="651" y="577" on="1"/>
        <pt x="1118" y="577" on="1"/>
        <pt x="1118" y="489" on="1"/>
        <pt x="766" y="489" on="1"/>
        <pt x="766" y="318" on="1"/>
        <pt x="1083" y="318" on="1"/>
        <pt x="1083" y="239" on="1"/>
        <pt x="766" y="239" on="1"/>
        <pt x="766" y="0" on="1"/>
        <pt x="651" y="0" on="1"/>
      </contour>
      <contour>
        <pt x="1161" y="-123" on="1"/>
        <pt x="1180" y="-86" on="0"/>
        <pt x="1206" y="-21" on="0"/>
        <pt x="1221" y="42" on="0"/>
        <pt x="1228" y="110" on="0"/>
        <pt x="1228" y="150" on="1"/>
        <pt x="1228" y="577" on="1"/>
        <pt x="1343" y="577" on="1"/>
        <pt x="1343" y="143" on="1"/>
        <pt x="1343" y="102" on="0"/>
        <pt x="1333" y="33" on="0"/>
        <pt x="1308" y="-37" on="0"/>
        <pt x="1267" y="-112" on="0"/>
        <pt x="1237" y="-157" on="1"/>
      </contour>
    </TTGlyph>
    <TTGlyph name="F_F_K.sc" xMin="84" yMin="0" xMax="1785" yMax="577">
      <contour>
        <pt x="84" y="577" on="1"/>
        <pt x="551" y="577" on="1"/>
        <pt x="551" y="489" on="1"/>
        <pt x="199" y="489" on="1"/>
        <pt x="199" y="318" on="1"/>
        <pt x="516" y="318" on="1"/>
        <pt x="516" y="239" on="1"/>
        <pt x="199" y="239" on="1"/>
        <pt x="199" y="0" on="1"/>
        <pt x="84" y="0" on="1"/>
      </contour>
      <contour>
        <pt x="651" y="577" on="1"/>
        <pt x="1118" y="577" on="1"/>
        <pt x="1118" y="489" on="1"/>
        <pt x="766" y="489" on="1"/>
        <pt x="766" y="318" on="1"/>
        <pt x="1083" y="318" on="1"/>
        <pt x="1083" y="239" on="1"/>
        <pt x="766" y="239" on="1"/>
        <pt x="766" y="0" on="1"/>
        <pt x="651" y="0" on="1"/>
      </contour>
      <contour>
        <pt x="1218" y="577" on="1"/>
        <pt x="1333" y="577" on="1"/>
        <pt x="1333" y="335" on="1"/>
        <pt x="1458" y="335" on="1"/>
        <pt x="1641" y="577" on="1"/>
        <pt x="1770" y="577" on="1"/>
        <pt x="1572" y="324" on="1"/>
        <pt x="1537" y="304" on="1"/>
        <pt x="1537" y="298" on="1"/>
        <pt x="1575" y="278" on="1"/>
        <pt x="1785" y="0" on="1"/>
        <pt x="1655" y="0" on="1"/>
        <pt x="1469" y="248" on="1"/>
        <pt x="1333" y="248" on="1"/>
        <pt x="1333" y="0" on="1"/>
        <pt x="1218" y="0" on="1"/>
      </contour>
    </TTGlyph>
    <TTGlyph name="F_F_L.sc" xMin="84" yMin="0" xMax="1650" yMax="577">
      <contour>
        <pt x="1218" y="577" on="1"/>
        <pt x="1333" y="577" on="1"/>
        <pt x="1333" y="88" on="1"/>
        <pt x="1650" y="88" on="1"/>
        <pt x="1650" y="0" on="1"/>
        <pt x="1218" y="0" on="1"/>
      </contour>
      <contour>
        <pt x="84" y="577" on="1"/>
        <pt x="551" y="577" on="1"/>
        <pt x="551" y="489" on="1"/>
        <pt x="199" y="489" on="1"/>
        <pt x="199" y="318" on="1"/>
        <pt x="516" y="318" on="1"/>
        <pt x="516" y="239" on="1"/>
        <pt x="199" y="239" on="1"/>
        <pt x="199" y="0" on="1"/>
        <pt x="84" y="0" on="1"/>
      </contour>
      <contour>
        <pt x="651" y="577" on="1"/>
        <pt x="1118" y="577" on="1"/>
        <pt x="1118" y="489" on="1"/>
        <pt x="766" y="489" on="1"/>
        <pt x="766" y="318" on="1"/>
        <pt x="1083" y="318" on="1"/>
        <pt x="1083" y="239" on="1"/>
        <pt x="766" y="239" on="1"/>
        <pt x="766" y="0" on="1"/>
        <pt x="651" y="0" on="1"/>
      </contour>
    </TTGlyph>
    <TTGlyph name="F_F_T.sc" xMin="84" yMin="0" xMax="1691" yMax="577">
      <contour>
        <pt x="1361" y="489" on="1"/>
        <pt x="1144" y="489" on="1"/>
        <pt x="1144" y="577" on="1"/>
        <pt x="1691" y="577" on="1"/>
        <pt x="1691" y="489" on="1"/>
        <pt x="1475" y="489" on="1"/>
        <pt x="1475" y="0" on="1"/>
        <pt x="1361" y="0" on="1"/>
      </contour>
      <contour>
        <pt x="84" y="577" on="1"/>
        <pt x="551" y="577" on="1"/>
        <pt x="551" y="489" on="1"/>
        <pt x="199" y="489" on="1"/>
        <pt x="199" y="318" on="1"/>
        <pt x="516" y="318" on="1"/>
        <pt x="516" y="239" on="1"/>
        <pt x="199" y="239" on="1"/>
        <pt x="199" y="0" on="1"/>
        <pt x="84" y="0" on="1"/>
      </contour>
      <contour>
        <pt x="651" y="577" on="1"/>
        <pt x="1118" y="577" on="1"/>
        <pt x="1118" y="489" on="1"/>
        <pt x="766" y="489" on="1"/>
        <pt x="766" y="318" on="1"/>
        <pt x="1083" y="318" on="1"/>
        <pt x="1083" y="239" on="1"/>
        <pt x="766" y="239" on="1"/>
        <pt x="766" y="0" on="1"/>
        <pt x="651" y="0" on="1"/>
      </contour>
    </TTGlyph>
    <TTGlyph name="F_H.sc" xMin="84" yMin="0" xMax="1236" yMax="577">
      <contour>
        <pt x="84" y="577" on="1"/>
        <pt x="551" y="577" on="1"/>
        <pt x="551" y="489" on="1"/>
        <pt x="199" y="489" on="1"/>
        <pt x="199" y="318" on="1"/>
        <pt x="516" y="318" on="1"/>
        <pt x="516" y="239" on="1"/>
        <pt x="199" y="239" on="1"/>
        <pt x="199" y="0" on="1"/>
        <pt x="84" y="0" on="1"/>
      </contour>
      <contour>
        <pt x="651" y="577" on="1"/>
        <pt x="766" y="577" on="1"/>
        <pt x="766" y="340" on="1"/>
        <pt x="1122" y="340" on="1"/>
        <pt x="1122" y="577" on="1"/>
        <pt x="1236" y="577" on="1"/>
        <pt x="1236" y="0" on="1"/>
        <pt x="1122" y="0" on="1"/>
        <pt x="1122" y="253" on="1"/>
        <pt x="766" y="253" on="1"/>
        <pt x="766" y="0" on="1"/>
        <pt x="651" y="0" on="1"/>
      </contour>
    </TTGlyph>
    <TTGlyph name="F_I.sc" xMin="84" yMin="0" xMax="766" yMax="577">
      <contour>
        <pt x="84" y="577" on="1"/>
        <pt x="551" y="577" on="1"/>
        <pt x="551" y="489" on="1"/>
        <pt x="199" y="489" on="1"/>
        <pt x="199" y="318" on="1"/>
        <pt x="516" y="318" on="1"/>
        <pt x="516" y="239" on="1"/>
        <pt x="199" y="239" on="1"/>
        <pt x="199" y="0" on="1"/>
        <pt x="84" y="0" on="1"/>
      </contour>
      <contour>
        <pt x="651" y="577" on="1"/>
        <pt x="766" y="577" on="1"/>
        <pt x="766" y="0" on="1"/>
        <pt x="651" y="0" on="1"/>
      </contour>
    </TTGlyph>
    <TTGlyph name="F_J.sc" xMin="84" yMin="-157" xMax="775" yMax="577">
      <contour>
        <pt x="84" y="577" on="1"/>
        <pt x="551" y="577" on="1"/>
        <pt x="551" y="489" on="1"/>
        <pt x="199" y="489" on="1"/>
        <pt x="199" y="318" on="1"/>
        <pt x="516" y="318" on="1"/>
        <pt x="516" y="239" on="1"/>
        <pt x="199" y="239" on="1"/>
        <pt x="199" y="0" on="1"/>
        <pt x="84" y="0" on="1"/>
      </contour>
      <contour>
        <pt x="593" y="-123" on="1"/>
        <pt x="612" y="-86" on="0"/>
        <pt x="638" y="-21" on="0"/>
        <pt x="653" y="42" on="0"/>
        <pt x="660" y="110" on="0"/>
        <pt x="660" y="150" on="1"/>
        <pt x="660" y="577" on="1"/>
        <pt x="775" y="577" on="1"/>
        <pt x="775" y="143" on="1"/>
        <pt x="775" y="102" on="0"/>
        <pt x="765" y="33" on="0"/>
        <pt x="740" y="-37" on="0"/>
        <pt x="699" y="-112" on="0"/>
        <pt x="669" y="-157" on="1"/>
      </contour>
    </TTGlyph>
    <TTGlyph name="F_K.sc" xMin="84" yMin="0" xMax="1218" yMax="577">
      <contour>
        <pt x="84" y="577" on="1"/>
        <pt x="551" y="577" on="1"/>
        <pt x="551" y="489" on="1"/>
        <pt x="199" y="489" on="1"/>
        <pt x="199" y="318" on="1"/>
        <pt x="516" y="318" on="1"/>
        <pt x="516" y="239" on="1"/>
        <pt x="199" y="239" on="1"/>
        <pt x="199" y="0" on="1"/>
        <pt x="84" y="0" on="1"/>
      </contour>
      <contour>
        <pt x="651" y="577" on="1"/>
        <pt x="766" y="577" on="1"/>
        <pt x="766" y="335" on="1"/>
        <pt x="891" y="335" on="1"/>
        <pt x="1074" y="577" on="1"/>
        <pt x="1203" y="577" on="1"/>
        <pt x="1005" y="324" on="1"/>
        <pt x="970" y="304" on="1"/>
        <pt x="970" y="298" on="1"/>
        <pt x="1008" y="278" on="1"/>
        <pt x="1218" y="0" on="1"/>
        <pt x="1088" y="0" on="1"/>
        <pt x="902" y="248" on="1"/>
        <pt x="766" y="248" on="1"/>
        <pt x="766" y="0" on="1"/>
        <pt x="651" y="0" on="1"/>
      </contour>
    </TTGlyph>
    <TTGlyph name="F_L.sc" xMin="84" yMin="0" xMax="1083" yMax="577">
      <contour>
        <pt x="651" y="577" on="1"/>
        <pt x="766" y="577" on="1"/>
        <pt x="766" y="88" on="1"/>
        <pt x="1083" y="88" on="1"/>
        <pt x="1083" y="0" on="1"/>
        <pt x="651" y="0" on="1"/>
      </contour>
      <contour>
        <pt x="84" y="577" on="1"/>
        <pt x="551" y="577" on="1"/>
        <pt x="551" y="489" on="1"/>
        <pt x="199" y="489" on="1"/>
        <pt x="199" y="318" on="1"/>
        <pt x="516" y="318" on="1"/>
        <pt x="516" y="239" on="1"/>
        <pt x="199" y="239" on="1"/>
        <pt x="199" y="0" on="1"/>
        <pt x="84" y="0" on="1"/>
      </contour>
    </TTGlyph>
    <TTGlyph name="F_T.sc" xMin="84" yMin="0" xMax="1125" yMax="577">
      <contour>
        <pt x="795" y="489" on="1"/>
        <pt x="578" y="489" on="1"/>
        <pt x="578" y="577" on="1"/>
        <pt x="1125" y="577" on="1"/>
        <pt x="1125" y="489" on="1"/>
        <pt x="909" y="489" on="1"/>
        <pt x="909" y="0" on="1"/>
        <pt x="795" y="0" on="1"/>
      </contour>
      <contour>
        <pt x="84" y="577" on="1"/>
        <pt x="551" y="577" on="1"/>
        <pt x="551" y="489" on="1"/>
        <pt x="199" y="489" on="1"/>
        <pt x="199" y="318" on="1"/>
        <pt x="516" y="318" on="1"/>
        <pt x="516" y="239" on="1"/>
        <pt x="199" y="239" on="1"/>
        <pt x="199" y="0" on="1"/>
        <pt x="84" y="0" on="1"/>
      </contour>
    </TTGlyph>
    <TTGlyph name="G" xMin="50" yMin="-10" xMax="647" yMax="752">
      <contour>
        <pt x="418" y="-10" on="1"/>
        <pt x="234" y="-10" on="0"/>
        <pt x="50" y="179" on="0"/>
        <pt x="50" y="368" on="1"/>
        <pt x="50" y="559" on="0"/>
        <pt x="239" y="752" on="0"/>
        <pt x="428" y="752" on="1"/>
        <pt x="479" y="752" on="0"/>
        <pt x="589" y="739" on="0"/>
        <pt x="639" y="725" on="1"/>
        <pt x="639" y="627" on="1"/>
        <pt x="571" y="640" on="0"/>
        <pt x="478" y="652" on="0"/>
        <pt x="436" y="652" on="1"/>
        <pt x="366" y="652" on="0"/>
        <pt x="266" y="619" on="0"/>
        <pt x="202" y="549" on="0"/>
        <pt x="172" y="442" on="0"/>
        <pt x="172" y="369" on="1"/>
        <pt x="172" y="223" on="0"/>
        <pt x="289" y="89" on="0"/>
        <pt x="418" y="89" on="1"/>
        <pt x="441" y="89" on="0"/>
        <pt x="506" y="94" on="0"/>
        <pt x="536" y="99" on="1"/>
        <pt x="536" y="376" on="1"/>
        <pt x="647" y="376" on="1"/>
        <pt x="647" y="29" on="1"/>
        <pt x="621" y="20" on="0"/>
        <pt x="561" y="6" on="0"/>
        <pt x="499" y="-4" on="0"/>
        <pt x="441" y="-10" on="0"/>
      </contour>
    </TTGlyph>
    <TTGlyph name="G.sc" xMin="50" yMin="-9" xMax="585" yMax="587">
      <contour>
        <pt x="378" y="-9" on="1"/>
        <pt x="50" y="-9" on="0"/>
        <pt x="50" y="287" on="1"/>
        <pt x="50" y="436" on="0"/>
        <pt x="218" y="587" on="0"/>
        <pt x="387" y="587" on="1"/>
        <pt x="433" y="587" on="0"/>
        <pt x="533" y="577" on="0"/>
        <pt x="576" y="566" on="1"/>
        <pt x="576" y="475" on="1"/>
        <pt x="514" y="485" on="0"/>
        <pt x="431" y="493" on="0"/>
        <pt x="395" y="493" on="1"/>
        <pt x="333" y="493" on="0"/>
        <pt x="246" y="469" on="0"/>
        <pt x="192" y="420" on="0"/>
        <pt x="167" y="342" on="0"/>
        <pt x="167" y="288" on="1"/>
        <pt x="167" y="234" on="0"/>
        <pt x="190" y="158" on="0"/>
        <pt x="241" y="109" on="0"/>
        <pt x="322" y="86" on="0"/>
        <pt x="379" y="86" on="1"/>
        <pt x="387" y="86" on="0"/>
        <pt x="413" y="87" on="0"/>
        <pt x="442" y="90" on="0"/>
        <pt x="469" y="94" on="0"/>
        <pt x="478" y="96" on="1"/>
        <pt x="478" y="293" on="1"/>
        <pt x="585" y="293" on="1"/>
        <pt x="585" y="24" on="1"/>
        <pt x="562" y="17" on="0"/>
        <pt x="507" y="5" on="0"/>
        <pt x="451" y="-4" on="0"/>
        <pt x="399" y="-9" on="0"/>
      </contour>
    </TTGlyph>
    <TTGlyph name="Gacute" xMin="50" yMin="-10" xMax="647" yMax="963">
      <contour>
        <pt x="326" y="813" on="1"/>
        <pt x="398" y="963" on="1"/>
        <pt x="519" y="963" on="1"/>
        <pt x="414" y="805" on="1"/>
      </contour>
      <contour>
        <pt x="418" y="-10" on="1"/>
        <pt x="234" y="-10" on="0"/>
        <pt x="50" y="179" on="0"/>
        <pt x="50" y="368" on="1"/>
        <pt x="50" y="559" on="0"/>
        <pt x="239" y="752" on="0"/>
        <pt x="428" y="752" on="1"/>
        <pt x="479" y="752" on="0"/>
        <pt x="589" y="739" on="0"/>
        <pt x="639" y="725" on="1"/>
        <pt x="639" y="627" on="1"/>
        <pt x="571" y="640" on="0"/>
        <pt x="478" y="652" on="0"/>
        <pt x="436" y="652" on="1"/>
        <pt x="366" y="652" on="0"/>
        <pt x="266" y="619" on="0"/>
        <pt x="202" y="549" on="0"/>
        <pt x="172" y="442" on="0"/>
        <pt x="172" y="369" on="1"/>
        <pt x="172" y="223" on="0"/>
        <pt x="289" y="89" on="0"/>
        <pt x="418" y="89" on="1"/>
        <pt x="441" y="89" on="0"/>
        <pt x="506" y="94" on="0"/>
        <pt x="536" y="99" on="1"/>
        <pt x="536" y="376" on="1"/>
        <pt x="647" y="376" on="1"/>
        <pt x="647" y="29" on="1"/>
        <pt x="621" y="20" on="0"/>
        <pt x="561" y="6" on="0"/>
        <pt x="499" y="-4" on="0"/>
        <pt x="441" y="-10" on="0"/>
      </contour>
    </TTGlyph>
    <TTGlyph name="Gacute.sc" xMin="50" yMin="-9" xMax="585" yMax="760">
      <contour>
        <pt x="378" y="-9" on="1"/>
        <pt x="50" y="-9" on="0"/>
        <pt x="50" y="287" on="1"/>
        <pt x="50" y="587" on="0"/>
        <pt x="387" y="587" on="1"/>
        <pt x="434" y="587" on="0"/>
        <pt x="533" y="577" on="0"/>
        <pt x="576" y="566" on="1"/>
        <pt x="576" y="473" on="1"/>
        <pt x="515" y="484" on="0"/>
        <pt x="431" y="493" on="0"/>
        <pt x="395" y="493" on="1"/>
        <pt x="334" y="493" on="0"/>
        <pt x="248" y="470" on="0"/>
        <pt x="193" y="421" on="0"/>
        <pt x="167" y="343" on="0"/>
        <pt x="167" y="288" on="1"/>
        <pt x="167" y="234" on="0"/>
        <pt x="191" y="157" on="0"/>
        <pt x="242" y="109" on="0"/>
        <pt x="323" y="86" on="0"/>
        <pt x="379" y="86" on="1"/>
        <pt x="387" y="86" on="0"/>
        <pt x="413" y="87" on="0"/>
        <pt x="442" y="90" on="0"/>
        <pt x="469" y="94" on="0"/>
        <pt x="478" y="96" on="1"/>
        <pt x="478" y="293" on="1"/>
        <pt x="585" y="293" on="1"/>
        <pt x="585" y="24" on="1"/>
        <pt x="562" y="17" on="0"/>
        <pt x="508" y="5" on="0"/>
        <pt x="452" y="-4" on="0"/>
        <pt x="399" y="-9" on="0"/>
      </contour>
      <contour>
        <pt x="293" y="636" on="1"/>
        <pt x="353" y="760" on="1"/>
        <pt x="470" y="760" on="1"/>
        <pt x="376" y="629" on="1"/>
      </contour>
    </TTGlyph>
    <TTGlyph name="Gbreve" xMin="50" yMin="-10" xMax="647" yMax="972">
      <contour>
        <pt x="383" y="814" on="1"/>
        <pt x="329" y="814" on="0"/>
        <pt x="253" y="837" on="0"/>
        <pt x="203" y="879" on="0"/>
        <pt x="180" y="937" on="0"/>
        <pt x="180" y="972" on="1"/>
        <pt x="263" y="972" on="1"/>
        <pt x="263" y="928" on="0"/>
        <pt x="321" y="878" on="0"/>
        <pt x="383" y="878" on="1"/>
        <pt x="446" y="878" on="0"/>
        <pt x="504" y="928" on="0"/>
        <pt x="504" y="972" on="1"/>
        <pt x="587" y="972" on="1"/>
        <pt x="587" y="902" on="0"/>
        <pt x="490" y="814" on="0"/>
      </contour>
      <contour>
        <pt x="418" y="-10" on="1"/>
        <pt x="234" y="-10" on="0"/>
        <pt x="50" y="179" on="0"/>
        <pt x="50" y="368" on="1"/>
        <pt x="50" y="559" on="0"/>
        <pt x="239" y="752" on="0"/>
        <pt x="428" y="752" on="1"/>
        <pt x="479" y="752" on="0"/>
        <pt x="589" y="739" on="0"/>
        <pt x="639" y="725" on="1"/>
        <pt x="639" y="627" on="1"/>
        <pt x="571" y="640" on="0"/>
        <pt x="478" y="652" on="0"/>
        <pt x="436" y="652" on="1"/>
        <pt x="366" y="652" on="0"/>
        <pt x="266" y="619" on="0"/>
        <pt x="202" y="549" on="0"/>
        <pt x="172" y="442" on="0"/>
        <pt x="172" y="369" on="1"/>
        <pt x="172" y="223" on="0"/>
        <pt x="289" y="89" on="0"/>
        <pt x="418" y="89" on="1"/>
        <pt x="441" y="89" on="0"/>
        <pt x="506" y="94" on="0"/>
        <pt x="536" y="99" on="1"/>
        <pt x="536" y="376" on="1"/>
        <pt x="647" y="376" on="1"/>
        <pt x="647" y="29" on="1"/>
        <pt x="621" y="20" on="0"/>
        <pt x="561" y="6" on="0"/>
        <pt x="499" y="-4" on="0"/>
        <pt x="441" y="-10" on="0"/>
      </contour>
    </TTGlyph>
    <TTGlyph name="Gbreve.sc" xMin="50" yMin="-9" xMax="585" yMax="766">
      <contour>
        <pt x="378" y="-9" on="1"/>
        <pt x="50" y="-9" on="0"/>
        <pt x="50" y="287" on="1"/>
        <pt x="50" y="587" on="0"/>
        <pt x="387" y="587" on="1"/>
        <pt x="434" y="587" on="0"/>
        <pt x="533" y="577" on="0"/>
        <pt x="576" y="566" on="1"/>
        <pt x="576" y="473" on="1"/>
        <pt x="515" y="484" on="0"/>
        <pt x="431" y="493" on="0"/>
        <pt x="395" y="493" on="1"/>
        <pt x="334" y="493" on="0"/>
        <pt x="248" y="470" on="0"/>
        <pt x="193" y="421" on="0"/>
        <pt x="167" y="343" on="0"/>
        <pt x="167" y="288" on="1"/>
        <pt x="167" y="234" on="0"/>
        <pt x="191" y="157" on="0"/>
        <pt x="242" y="109" on="0"/>
        <pt x="323" y="86" on="0"/>
        <pt x="379" y="86" on="1"/>
        <pt x="387" y="86" on="0"/>
        <pt x="413" y="87" on="0"/>
        <pt x="442" y="90" on="0"/>
        <pt x="469" y="94" on="0"/>
        <pt x="478" y="96" on="1"/>
        <pt x="478" y="293" on="1"/>
        <pt x="585" y="293" on="1"/>
        <pt x="585" y="24" on="1"/>
        <pt x="562" y="17" on="0"/>
        <pt x="508" y="5" on="0"/>
        <pt x="452" y="-4" on="0"/>
        <pt x="399" y="-9" on="0"/>
      </contour>
      <contour>
        <pt x="348" y="635" on="1"/>
        <pt x="298" y="635" on="0"/>
        <pt x="229" y="655" on="0"/>
        <pt x="184" y="690" on="0"/>
        <pt x="164" y="738" on="0"/>
        <pt x="164" y="766" on="1"/>
        <pt x="241" y="766" on="1"/>
        <pt x="241" y="731" on="0"/>
        <pt x="292" y="693" on="0"/>
        <pt x="348" y="693" on="1"/>
        <pt x="404" y="693" on="0"/>
        <pt x="453" y="731" on="0"/>
        <pt x="453" y="766" on="1"/>
        <pt x="531" y="766" on="1"/>
        <pt x="531" y="709" on="0"/>
        <pt x="446" y="635" on="0"/>
      </contour>
    </TTGlyph>
    <TTGlyph name="Gcircumflex" xMin="50" yMin="-10" xMax="647" yMax="973">
      <contour>
        <pt x="418" y="-10" on="1"/>
        <pt x="234" y="-10" on="0"/>
        <pt x="50" y="179" on="0"/>
        <pt x="50" y="368" on="1"/>
        <pt x="50" y="559" on="0"/>
        <pt x="239" y="752" on="0"/>
        <pt x="428" y="752" on="1"/>
        <pt x="479" y="752" on="0"/>
        <pt x="589" y="739" on="0"/>
        <pt x="639" y="725" on="1"/>
        <pt x="639" y="627" on="1"/>
        <pt x="571" y="640" on="0"/>
        <pt x="478" y="652" on="0"/>
        <pt x="436" y="652" on="1"/>
        <pt x="366" y="652" on="0"/>
        <pt x="266" y="619" on="0"/>
        <pt x="202" y="549" on="0"/>
        <pt x="172" y="442" on="0"/>
        <pt x="172" y="369" on="1"/>
        <pt x="172" y="223" on="0"/>
        <pt x="289" y="89" on="0"/>
        <pt x="418" y="89" on="1"/>
        <pt x="441" y="89" on="0"/>
        <pt x="506" y="94" on="0"/>
        <pt x="536" y="99" on="1"/>
        <pt x="536" y="376" on="1"/>
        <pt x="647" y="376" on="1"/>
        <pt x="647" y="29" on="1"/>
        <pt x="621" y="20" on="0"/>
        <pt x="561" y="6" on="0"/>
        <pt x="499" y="-4" on="0"/>
        <pt x="441" y="-10" on="0"/>
      </contour>
      <contour>
        <pt x="190" y="896" on="1"/>
        <pt x="376" y="973" on="1"/>
        <pt x="564" y="896" on="1"/>
        <pt x="564" y="809" on="1"/>
        <pt x="377" y="885" on="1"/>
        <pt x="190" y="809" on="1"/>
      </contour>
    </TTGlyph>
    <TTGlyph name="Gcircumflex.sc" xMin="50" yMin="-9" xMax="585" yMax="769">
      <contour>
        <pt x="378" y="-9" on="1"/>
        <pt x="50" y="-9" on="0"/>
        <pt x="50" y="287" on="1"/>
        <pt x="50" y="587" on="0"/>
        <pt x="387" y="587" on="1"/>
        <pt x="434" y="587" on="0"/>
        <pt x="533" y="577" on="0"/>
        <pt x="576" y="566" on="1"/>
        <pt x="576" y="473" on="1"/>
        <pt x="515" y="484" on="0"/>
        <pt x="431" y="493" on="0"/>
        <pt x="395" y="493" on="1"/>
        <pt x="334" y="493" on="0"/>
        <pt x="248" y="470" on="0"/>
        <pt x="193" y="421" on="0"/>
        <pt x="167" y="343" on="0"/>
        <pt x="167" y="288" on="1"/>
        <pt x="167" y="234" on="0"/>
        <pt x="191" y="157" on="0"/>
        <pt x="242" y="109" on="0"/>
        <pt x="323" y="86" on="0"/>
        <pt x="379" y="86" on="1"/>
        <pt x="387" y="86" on="0"/>
        <pt x="413" y="87" on="0"/>
        <pt x="442" y="90" on="0"/>
        <pt x="469" y="94" on="0"/>
        <pt x="478" y="96" on="1"/>
        <pt x="478" y="293" on="1"/>
        <pt x="585" y="293" on="1"/>
        <pt x="585" y="24" on="1"/>
        <pt x="562" y="17" on="0"/>
        <pt x="508" y="5" on="0"/>
        <pt x="452" y="-4" on="0"/>
        <pt x="399" y="-9" on="0"/>
      </contour>
      <contour>
        <pt x="172" y="708" on="1"/>
        <pt x="339" y="769" on="1"/>
        <pt x="509" y="708" on="1"/>
        <pt x="509" y="630" on="1"/>
        <pt x="341" y="690" on="1"/>
        <pt x="172" y="630" on="1"/>
      </contour>
    </TTGlyph>
    <TTGlyph name="Gcommaaccent" xMin="50" yMin="-220" xMax="647" yMax="752">
      <contour>
        <pt x="327" y="-70" on="1"/>
        <pt x="448" y="-70" on="1"/>
        <pt x="373" y="-220" on="1"/>
        <pt x="280" y="-220" on="1"/>
      </contour>
      <contour>
        <pt x="418" y="-10" on="1"/>
        <pt x="234" y="-10" on="0"/>
        <pt x="50" y="179" on="0"/>
        <pt x="50" y="368" on="1"/>
        <pt x="50" y="559" on="0"/>
        <pt x="239" y="752" on="0"/>
        <pt x="428" y="752" on="1"/>
        <pt x="479" y="752" on="0"/>
        <pt x="589" y="739" on="0"/>
        <pt x="639" y="725" on="1"/>
        <pt x="639" y="627" on="1"/>
        <pt x="571" y="640" on="0"/>
        <pt x="478" y="652" on="0"/>
        <pt x="436" y="652" on="1"/>
        <pt x="366" y="652" on="0"/>
        <pt x="266" y="619" on="0"/>
        <pt x="202" y="549" on="0"/>
        <pt x="172" y="442" on="0"/>
        <pt x="172" y="369" on="1"/>
        <pt x="172" y="223" on="0"/>
        <pt x="289" y="89" on="0"/>
        <pt x="418" y="89" on="1"/>
        <pt x="441" y="89" on="0"/>
        <pt x="506" y="94" on="0"/>
        <pt x="536" y="99" on="1"/>
        <pt x="536" y="376" on="1"/>
        <pt x="647" y="376" on="1"/>
        <pt x="647" y="29" on="1"/>
        <pt x="621" y="20" on="0"/>
        <pt x="561" y="6" on="0"/>
        <pt x="499" y="-4" on="0"/>
        <pt x="441" y="-10" on="0"/>
      </contour>
    </TTGlyph>
    <TTGlyph name="Gcommaaccent.sc" xMin="50" yMin="-172" xMax="585" yMax="587">
      <contour>
        <pt x="378" y="-9" on="1"/>
        <pt x="50" y="-9" on="0"/>
        <pt x="50" y="287" on="1"/>
        <pt x="50" y="587" on="0"/>
        <pt x="387" y="587" on="1"/>
        <pt x="434" y="587" on="0"/>
        <pt x="533" y="577" on="0"/>
        <pt x="576" y="566" on="1"/>
        <pt x="576" y="473" on="1"/>
        <pt x="515" y="484" on="0"/>
        <pt x="431" y="493" on="0"/>
        <pt x="395" y="493" on="1"/>
        <pt x="334" y="493" on="0"/>
        <pt x="248" y="470" on="0"/>
        <pt x="193" y="421" on="0"/>
        <pt x="167" y="343" on="0"/>
        <pt x="167" y="288" on="1"/>
        <pt x="167" y="234" on="0"/>
        <pt x="191" y="157" on="0"/>
        <pt x="242" y="109" on="0"/>
        <pt x="323" y="86" on="0"/>
        <pt x="379" y="86" on="1"/>
        <pt x="387" y="86" on="0"/>
        <pt x="413" y="87" on="0"/>
        <pt x="442" y="90" on="0"/>
        <pt x="469" y="94" on="0"/>
        <pt x="478" y="96" on="1"/>
        <pt x="478" y="293" on="1"/>
        <pt x="585" y="293" on="1"/>
        <pt x="585" y="24" on="1"/>
        <pt x="562" y="17" on="0"/>
        <pt x="508" y="5" on="0"/>
        <pt x="452" y="-4" on="0"/>
        <pt x="399" y="-9" on="0"/>
      </contour>
      <contour>
        <pt x="291" y="-55" on="1"/>
        <pt x="407" y="-55" on="1"/>
        <pt x="339" y="-172" on="1"/>
        <pt x="252" y="-172" on="1"/>
      </contour>
    </TTGlyph>
    <TTGlyph name="Gdotaccent" xMin="50" yMin="-10" xMax="647" yMax="952">
      <contour>
        <pt x="387" y="814" on="1"/>
        <pt x="351" y="814" on="0"/>
        <pt x="316" y="846" on="0"/>
        <pt x="316" y="882" on="1"/>
        <pt x="316" y="919" on="0"/>
        <pt x="351" y="952" on="0"/>
        <pt x="387" y="952" on="1"/>
        <pt x="458" y="952" on="0"/>
        <pt x="458" y="882" on="1"/>
        <pt x="458" y="814" on="0"/>
      </contour>
      <contour>
        <pt x="418" y="-10" on="1"/>
        <pt x="234" y="-10" on="0"/>
        <pt x="50" y="179" on="0"/>
        <pt x="50" y="368" on="1"/>
        <pt x="50" y="559" on="0"/>
        <pt x="239" y="752" on="0"/>
        <pt x="428" y="752" on="1"/>
        <pt x="479" y="752" on="0"/>
        <pt x="589" y="739" on="0"/>
        <pt x="639" y="725" on="1"/>
        <pt x="639" y="627" on="1"/>
        <pt x="571" y="640" on="0"/>
        <pt x="478" y="652" on="0"/>
        <pt x="436" y="652" on="1"/>
        <pt x="366" y="652" on="0"/>
        <pt x="266" y="619" on="0"/>
        <pt x="202" y="549" on="0"/>
        <pt x="172" y="442" on="0"/>
        <pt x="172" y="369" on="1"/>
        <pt x="172" y="223" on="0"/>
        <pt x="289" y="89" on="0"/>
        <pt x="418" y="89" on="1"/>
        <pt x="441" y="89" on="0"/>
        <pt x="506" y="94" on="0"/>
        <pt x="536" y="99" on="1"/>
        <pt x="536" y="376" on="1"/>
        <pt x="647" y="376" on="1"/>
        <pt x="647" y="29" on="1"/>
        <pt x="621" y="20" on="0"/>
        <pt x="561" y="6" on="0"/>
        <pt x="499" y="-4" on="0"/>
        <pt x="441" y="-10" on="0"/>
      </contour>
    </TTGlyph>
    <TTGlyph name="Gdotaccent.sc" xMin="50" yMin="-9" xMax="585" yMax="758">
      <contour>
        <pt x="378" y="-9" on="1"/>
        <pt x="50" y="-9" on="0"/>
        <pt x="50" y="287" on="1"/>
        <pt x="50" y="587" on="0"/>
        <pt x="387" y="587" on="1"/>
        <pt x="434" y="587" on="0"/>
        <pt x="533" y="577" on="0"/>
        <pt x="576" y="566" on="1"/>
        <pt x="576" y="473" on="1"/>
        <pt x="515" y="484" on="0"/>
        <pt x="431" y="493" on="0"/>
        <pt x="395" y="493" on="1"/>
        <pt x="334" y="493" on="0"/>
        <pt x="248" y="470" on="0"/>
        <pt x="193" y="421" on="0"/>
        <pt x="167" y="343" on="0"/>
        <pt x="167" y="288" on="1"/>
        <pt x="167" y="234" on="0"/>
        <pt x="191" y="157" on="0"/>
        <pt x="242" y="109" on="0"/>
        <pt x="323" y="86" on="0"/>
        <pt x="379" y="86" on="1"/>
        <pt x="387" y="86" on="0"/>
        <pt x="413" y="87" on="0"/>
        <pt x="442" y="90" on="0"/>
        <pt x="469" y="94" on="0"/>
        <pt x="478" y="96" on="1"/>
        <pt x="478" y="293" on="1"/>
        <pt x="585" y="293" on="1"/>
        <pt x="585" y="24" on="1"/>
        <pt x="562" y="17" on="0"/>
        <pt x="508" y="5" on="0"/>
        <pt x="452" y="-4" on="0"/>
        <pt x="399" y="-9" on="0"/>
      </contour>
      <contour>
        <pt x="350" y="632" on="1"/>
        <pt x="316" y="632" on="0"/>
        <pt x="284" y="661" on="0"/>
        <pt x="284" y="695" on="1"/>
        <pt x="284" y="728" on="0"/>
        <pt x="316" y="758" on="0"/>
        <pt x="350" y="758" on="1"/>
        <pt x="385" y="758" on="0"/>
        <pt x="416" y="727" on="0"/>
        <pt x="416" y="695" on="1"/>
        <pt x="416" y="663" on="0"/>
        <pt x="385" y="632" on="0"/>
      </contour>
    </TTGlyph>
    <TTGlyph name="H" xMin="89" yMin="0" xMax="741" yMax="740">
      <contour>
        <pt x="89" y="740" on="1"/>
        <pt x="208" y="740" on="1"/>
        <pt x="208" y="427" on="1"/>
        <pt x="622" y="427" on="1"/>
        <pt x="622" y="740" on="1"/>
        <pt x="741" y="740" on="1"/>
        <pt x="741" y="0" on="1"/>
        <pt x="622" y="0" on="1"/>
        <pt x="622" y="333" on="1"/>
        <pt x="208" y="333" on="1"/>
        <pt x="208" y="0" on="1"/>
        <pt x="89" y="0" on="1"/>
      </contour>
    </TTGlyph>
    <TTGlyph name="H.sc" xMin="84" yMin="0" xMax="669" yMax="577">
      <contour>
        <pt x="84" y="577" on="1"/>
        <pt x="199" y="577" on="1"/>
        <pt x="199" y="340" on="1"/>
        <pt x="555" y="340" on="1"/>
        <pt x="555" y="577" on="1"/>
        <pt x="669" y="577" on="1"/>
        <pt x="669" y="0" on="1"/>
        <pt x="555" y="0" on="1"/>
        <pt x="555" y="253" on="1"/>
        <pt x="199" y="253" on="1"/>
        <pt x="199" y="0" on="1"/>
        <pt x="84" y="0" on="1"/>
      </contour>
    </TTGlyph>
    <TTGlyph name="Hbar" xMin="9" yMin="0" xMax="833" yMax="740">
      <contour>
        <pt x="9" y="607" on="1"/>
        <pt x="94" y="607" on="1"/>
        <pt x="94" y="740" on="1"/>
        <pt x="213" y="740" on="1"/>
        <pt x="213" y="607" on="1"/>
        <pt x="627" y="607" on="1"/>
        <pt x="627" y="740" on="1"/>
        <pt x="746" y="740" on="1"/>
        <pt x="746" y="607" on="1"/>
        <pt x="833" y="607" on="1"/>
        <pt x="833" y="543" on="1"/>
        <pt x="746" y="543" on="1"/>
        <pt x="746" y="0" on="1"/>
        <pt x="627" y="0" on="1"/>
        <pt x="627" y="333" on="1"/>
        <pt x="213" y="333" on="1"/>
        <pt x="213" y="0" on="1"/>
        <pt x="94" y="0" on="1"/>
        <pt x="94" y="543" on="1"/>
        <pt x="9" y="543" on="1"/>
      </contour>
      <contour>
        <pt x="627" y="427" on="1"/>
        <pt x="627" y="543" on="1"/>
        <pt x="213" y="543" on="1"/>
        <pt x="213" y="427" on="1"/>
      </contour>
    </TTGlyph>
    <TTGlyph name="Hbar.sc" xMin="16" yMin="0" xMax="748" yMax="577">
      <contour>
        <pt x="16" y="479" on="1"/>
        <pt x="90" y="479" on="1"/>
        <pt x="90" y="577" on="1"/>
        <pt x="203" y="577" on="1"/>
        <pt x="203" y="479" on="1"/>
        <pt x="560" y="479" on="1"/>
        <pt x="560" y="577" on="1"/>
        <pt x="674" y="577" on="1"/>
        <pt x="674" y="479" on="1"/>
        <pt x="748" y="479" on="1"/>
        <pt x="748" y="422" on="1"/>
        <pt x="674" y="422" on="1"/>
        <pt x="674" y="0" on="1"/>
        <pt x="560" y="0" on="1"/>
        <pt x="560" y="244" on="1"/>
        <pt x="203" y="244" on="1"/>
        <pt x="203" y="0" on="1"/>
        <pt x="90" y="0" on="1"/>
        <pt x="90" y="422" on="1"/>
        <pt x="16" y="422" on="1"/>
      </contour>
      <contour>
        <pt x="560" y="332" on="1"/>
        <pt x="560" y="422" on="1"/>
        <pt x="203" y="422" on="1"/>
        <pt x="203" y="332" on="1"/>
      </contour>
    </TTGlyph>
    <TTGlyph name="Hcircumflex" xMin="89" yMin="0" xMax="741" yMax="973">
      <contour>
        <pt x="89" y="740" on="1"/>
        <pt x="208" y="740" on="1"/>
        <pt x="208" y="427" on="1"/>
        <pt x="622" y="427" on="1"/>
        <pt x="622" y="740" on="1"/>
        <pt x="741" y="740" on="1"/>
        <pt x="741" y="0" on="1"/>
        <pt x="622" y="0" on="1"/>
        <pt x="622" y="333" on="1"/>
        <pt x="208" y="333" on="1"/>
        <pt x="208" y="0" on="1"/>
        <pt x="89" y="0" on="1"/>
      </contour>
      <contour>
        <pt x="224" y="896" on="1"/>
        <pt x="410" y="973" on="1"/>
        <pt x="598" y="896" on="1"/>
        <pt x="598" y="809" on="1"/>
        <pt x="411" y="885" on="1"/>
        <pt x="224" y="809" on="1"/>
      </contour>
    </TTGlyph>
    <TTGlyph name="Hcircumflex.sc" xMin="84" yMin="0" xMax="669" yMax="769">
      <contour>
        <pt x="84" y="577" on="1"/>
        <pt x="199" y="577" on="1"/>
        <pt x="199" y="340" on="1"/>
        <pt x="555" y="340" on="1"/>
        <pt x="555" y="577" on="1"/>
        <pt x="669" y="577" on="1"/>
        <pt x="669" y="0" on="1"/>
        <pt x="555" y="0" on="1"/>
        <pt x="555" y="253" on="1"/>
        <pt x="199" y="253" on="1"/>
        <pt x="199" y="0" on="1"/>
        <pt x="84" y="0" on="1"/>
      </contour>
      <contour>
        <pt x="205" y="708" on="1"/>
        <pt x="373" y="769" on="1"/>
        <pt x="543" y="708" on="1"/>
        <pt x="543" y="630" on="1"/>
        <pt x="374" y="690" on="1"/>
        <pt x="205" y="630" on="1"/>
      </contour>
    </TTGlyph>
    <TTGlyph name="Hdotbelow" xMin="89" yMin="-191" xMax="741" yMax="740">
      <contour>
        <pt x="89" y="740" on="1"/>
        <pt x="208" y="740" on="1"/>
        <pt x="208" y="427" on="1"/>
        <pt x="622" y="427" on="1"/>
        <pt x="622" y="740" on="1"/>
        <pt x="741" y="740" on="1"/>
        <pt x="741" y="0" on="1"/>
        <pt x="622" y="0" on="1"/>
        <pt x="622" y="333" on="1"/>
        <pt x="208" y="333" on="1"/>
        <pt x="208" y="0" on="1"/>
        <pt x="89" y="0" on="1"/>
      </contour>
      <contour>
        <pt x="420" y="-191" on="1"/>
        <pt x="390" y="-191" on="0"/>
        <pt x="360" y="-164" on="0"/>
        <pt x="360" y="-133" on="1"/>
        <pt x="360" y="-74" on="0"/>
        <pt x="420" y="-74" on="1"/>
        <pt x="481" y="-74" on="0"/>
        <pt x="481" y="-133" on="1"/>
        <pt x="481" y="-164" on="0"/>
        <pt x="452" y="-191" on="0"/>
      </contour>
    </TTGlyph>
    <TTGlyph name="Hdotbelow.sc" xMin="84" yMin="-155" xMax="669" yMax="577">
      <contour>
        <pt x="84" y="577" on="1"/>
        <pt x="199" y="577" on="1"/>
        <pt x="199" y="340" on="1"/>
        <pt x="555" y="340" on="1"/>
        <pt x="555" y="577" on="1"/>
        <pt x="669" y="577" on="1"/>
        <pt x="669" y="0" on="1"/>
        <pt x="555" y="0" on="1"/>
        <pt x="555" y="253" on="1"/>
        <pt x="199" y="253" on="1"/>
        <pt x="199" y="0" on="1"/>
        <pt x="84" y="0" on="1"/>
      </contour>
      <contour>
        <pt x="381" y="-155" on="1"/>
        <pt x="327" y="-155" on="0"/>
        <pt x="327" y="-104" on="1"/>
        <pt x="327" y="-52" on="0"/>
        <pt x="381" y="-52" on="1"/>
        <pt x="410" y="-52" on="0"/>
        <pt x="436" y="-77" on="0"/>
        <pt x="436" y="-104" on="1"/>
        <pt x="436" y="-130" on="0"/>
        <pt x="410" y="-155" on="0"/>
      </contour>
    </TTGlyph>
    <TTGlyph name="I" xMin="89" yMin="0" xMax="208" yMax="740">
      <contour>
        <pt x="89" y="740" on="1"/>
        <pt x="208" y="740" on="1"/>
        <pt x="208" y="0" on="1"/>
        <pt x="89" y="0" on="1"/>
      </contour>
    </TTGlyph>
    <TTGlyph name="I.sc" xMin="84" yMin="0" xMax="199" yMax="577">
      <contour>
        <pt x="84" y="577" on="1"/>
        <pt x="199" y="577" on="1"/>
        <pt x="199" y="0" on="1"/>
        <pt x="84" y="0" on="1"/>
      </contour>
    </TTGlyph>
    <TTGlyph name="IJ" xMin="89" yMin="-195" xMax="507" yMax="740">
      <contour>
        <pt x="89" y="740" on="1"/>
        <pt x="208" y="740" on="1"/>
        <pt x="208" y="0" on="1"/>
        <pt x="89" y="0" on="1"/>
      </contour>
      <contour>
        <pt x="310" y="-159" on="1"/>
        <pt x="332" y="-111" on="0"/>
        <pt x="362" y="-29" on="0"/>
        <pt x="380" y="52" on="0"/>
        <pt x="388" y="138" on="0"/>
        <pt x="388" y="190" on="1"/>
        <pt x="388" y="740" on="1"/>
        <pt x="507" y="740" on="1"/>
        <pt x="507" y="182" on="1"/>
        <pt x="507" y="131" on="0"/>
        <pt x="495" y="43" on="0"/>
        <pt x="468" y="-44" on="0"/>
        <pt x="423" y="-138" on="0"/>
        <pt x="390" y="-195" on="1"/>
      </contour>
    </TTGlyph>
    <TTGlyph name="Iacute" xMin="89" yMin="0" xMax="293" yMax="963">
      <contour>
        <pt x="89" y="740" on="1"/>
        <pt x="208" y="740" on="1"/>
        <pt x="208" y="0" on="1"/>
        <pt x="89" y="0" on="1"/>
      </contour>
      <contour>
        <pt x="100" y="813" on="1"/>
        <pt x="172" y="963" on="1"/>
        <pt x="293" y="963" on="1"/>
        <pt x="188" y="805" on="1"/>
      </contour>
    </TTGlyph>
    <TTGlyph name="Iacute.sc" xMin="84" yMin="0" xMax="272" yMax="760">
      <contour>
        <pt x="84" y="577" on="1"/>
        <pt x="199" y="577" on="1"/>
        <pt x="199" y="0" on="1"/>
        <pt x="84" y="0" on="1"/>
      </contour>
      <contour>
        <pt x="95" y="636" on="1"/>
        <pt x="157" y="760" on="1"/>
        <pt x="272" y="760" on="1"/>
        <pt x="179" y="629" on="1"/>
      </contour>
    </TTGlyph>
    <TTGlyph name="Ibreve" xMin="-56" yMin="0" xMax="351" yMax="972">
      <contour>
        <pt x="89" y="740" on="1"/>
        <pt x="208" y="740" on="1"/>
        <pt x="208" y="0" on="1"/>
        <pt x="89" y="0" on="1"/>
      </contour>
      <contour>
        <pt x="147" y="814" on="1"/>
        <pt x="93" y="814" on="0"/>
        <pt x="17" y="837" on="0"/>
        <pt x="-33" y="879" on="0"/>
        <pt x="-56" y="937" on="0"/>
        <pt x="-56" y="972" on="1"/>
        <pt x="27" y="972" on="1"/>
        <pt x="27" y="928" on="0"/>
        <pt x="85" y="878" on="0"/>
        <pt x="147" y="878" on="1"/>
        <pt x="210" y="878" on="0"/>
        <pt x="268" y="928" on="0"/>
        <pt x="268" y="972" on="1"/>
        <pt x="351" y="972" on="1"/>
        <pt x="351" y="902" on="0"/>
        <pt x="254" y="814" on="0"/>
      </contour>
    </TTGlyph>
    <TTGlyph name="Ibreve.sc" xMin="-43" yMin="0" xMax="325" yMax="766">
      <contour>
        <pt x="84" y="577" on="1"/>
        <pt x="199" y="577" on="1"/>
        <pt x="199" y="0" on="1"/>
        <pt x="84" y="0" on="1"/>
      </contour>
      <contour>
        <pt x="141" y="635" on="1"/>
        <pt x="92" y="635" on="0"/>
        <pt x="22" y="655" on="0"/>
        <pt x="-22" y="690" on="0"/>
        <pt x="-43" y="738" on="0"/>
        <pt x="-43" y="766" on="1"/>
        <pt x="35" y="766" on="1"/>
        <pt x="35" y="731" on="0"/>
        <pt x="85" y="693" on="0"/>
        <pt x="141" y="693" on="1"/>
        <pt x="197" y="693" on="0"/>
        <pt x="247" y="731" on="0"/>
        <pt x="247" y="766" on="1"/>
        <pt x="325" y="766" on="1"/>
        <pt x="325" y="709" on="0"/>
        <pt x="239" y="635" on="0"/>
      </contour>
    </TTGlyph>
    <TTGlyph name="Icircumflex" xMin="-37" yMin="0" xMax="337" yMax="973">
      <contour>
        <pt x="89" y="740" on="1"/>
        <pt x="208" y="740" on="1"/>
        <pt x="208" y="0" on="1"/>
        <pt x="89" y="0" on="1"/>
      </contour>
      <contour>
        <pt x="-37" y="896" on="1"/>
        <pt x="149" y="973" on="1"/>
        <pt x="337" y="896" on="1"/>
        <pt x="337" y="809" on="1"/>
        <pt x="150" y="885" on="1"/>
        <pt x="-37" y="809" on="1"/>
      </contour>
    </TTGlyph>
    <TTGlyph name="Icircumflex.sc" xMin="-25" yMin="0" xMax="311" yMax="769">
      <contour>
        <pt x="84" y="577" on="1"/>
        <pt x="199" y="577" on="1"/>
        <pt x="199" y="0" on="1"/>
        <pt x="84" y="0" on="1"/>
      </contour>
      <contour>
        <pt x="-25" y="708" on="1"/>
        <pt x="142" y="769" on="1"/>
        <pt x="311" y="708" on="1"/>
        <pt x="311" y="630" on="1"/>
        <pt x="143" y="690" on="1"/>
        <pt x="-25" y="630" on="1"/>
      </contour>
    </TTGlyph>
    <TTGlyph name="Idblgrave" xMin="-81" yMin="0" xMax="290" yMax="957">
      <contour>
        <pt x="89" y="740" on="1"/>
        <pt x="208" y="740" on="1"/>
        <pt x="208" y="0" on="1"/>
        <pt x="89" y="0" on="1"/>
      </contour>
      <contour>
        <pt x="24" y="800" on="1"/>
        <pt x="-81" y="957" on="1"/>
        <pt x="39" y="957" on="1"/>
        <pt x="110" y="812" on="1"/>
      </contour>
      <contour>
        <pt x="204" y="800" on="1"/>
        <pt x="98" y="957" on="1"/>
        <pt x="218" y="957" on="1"/>
        <pt x="290" y="812" on="1"/>
      </contour>
    </TTGlyph>
    <TTGlyph name="Idblgrave.sc" xMin="-67" yMin="0" xMax="273" yMax="756">
      <contour>
        <pt x="84" y="577" on="1"/>
        <pt x="199" y="577" on="1"/>
        <pt x="199" y="0" on="1"/>
        <pt x="84" y="0" on="1"/>
      </contour>
      <contour>
        <pt x="27" y="626" on="1"/>
        <pt x="-67" y="756" on="1"/>
        <pt x="47" y="756" on="1"/>
        <pt x="109" y="635" on="1"/>
      </contour>
      <contour>
        <pt x="191" y="626" on="1"/>
        <pt x="97" y="756" on="1"/>
        <pt x="212" y="756" on="1"/>
        <pt x="273" y="635" on="1"/>
      </contour>
    </TTGlyph>
    <TTGlyph name="Idieresis" xMin="-64" yMin="0" xMax="366" yMax="955">
      <contour>
        <pt x="89" y="740" on="1"/>
        <pt x="208" y="740" on="1"/>
        <pt x="208" y="0" on="1"/>
        <pt x="89" y="0" on="1"/>
      </contour>
      <contour>
        <pt x="6" y="817" on="1"/>
        <pt x="-30" y="817" on="0"/>
        <pt x="-64" y="850" on="0"/>
        <pt x="-64" y="886" on="1"/>
        <pt x="-64" y="922" on="0"/>
        <pt x="-30" y="955" on="0"/>
        <pt x="6" y="955" on="1"/>
        <pt x="77" y="955" on="0"/>
        <pt x="77" y="886" on="1"/>
        <pt x="77" y="817" on="0"/>
      </contour>
      <contour>
        <pt x="296" y="817" on="1"/>
        <pt x="259" y="817" on="0"/>
        <pt x="225" y="850" on="0"/>
        <pt x="225" y="886" on="1"/>
        <pt x="225" y="922" on="0"/>
        <pt x="259" y="955" on="0"/>
        <pt x="296" y="955" on="1"/>
        <pt x="366" y="955" on="0"/>
        <pt x="366" y="886" on="1"/>
        <pt x="366" y="817" on="0"/>
      </contour>
    </TTGlyph>
    <TTGlyph name="Idieresis.sc" xMin="-52" yMin="0" xMax="339" yMax="760">
      <contour>
        <pt x="84" y="577" on="1"/>
        <pt x="199" y="577" on="1"/>
        <pt x="199" y="0" on="1"/>
        <pt x="84" y="0" on="1"/>
      </contour>
      <contour>
        <pt x="15" y="634" on="1"/>
        <pt x="-20" y="634" on="0"/>
        <pt x="-52" y="664" on="0"/>
        <pt x="-52" y="697" on="1"/>
        <pt x="-52" y="760" on="0"/>
        <pt x="15" y="760" on="1"/>
        <pt x="81" y="760" on="0"/>
        <pt x="81" y="697" on="1"/>
        <pt x="81" y="634" on="0"/>
      </contour>
      <contour>
        <pt x="273" y="634" on="1"/>
        <pt x="239" y="634" on="0"/>
        <pt x="207" y="664" on="0"/>
        <pt x="207" y="697" on="1"/>
        <pt x="207" y="760" on="0"/>
        <pt x="273" y="760" on="1"/>
        <pt x="339" y="760" on="0"/>
        <pt x="339" y="697" on="1"/>
        <pt x="339" y="634" on="0"/>
      </contour>
    </TTGlyph>
    <TTGlyph name="Idotaccent" xMin="78" yMin="0" xMax="220" yMax="952">
      <contour>
        <pt x="89" y="740" on="1"/>
        <pt x="208" y="740" on="1"/>
        <pt x="208" y="0" on="1"/>
        <pt x="89" y="0" on="1"/>
      </contour>
      <contour>
        <pt x="149" y="814" on="1"/>
        <pt x="113" y="814" on="0"/>
        <pt x="78" y="846" on="0"/>
        <pt x="78" y="882" on="1"/>
        <pt x="78" y="919" on="0"/>
        <pt x="113" y="952" on="0"/>
        <pt x="149" y="952" on="1"/>
        <pt x="220" y="952" on="0"/>
        <pt x="220" y="882" on="1"/>
        <pt x="220" y="814" on="0"/>
      </contour>
    </TTGlyph>
    <TTGlyph name="Idotaccent.sc" xMin="76" yMin="0" xMax="208" yMax="758">
      <contour>
        <pt x="84" y="577" on="1"/>
        <pt x="199" y="577" on="1"/>
        <pt x="199" y="0" on="1"/>
        <pt x="84" y="0" on="1"/>
      </contour>
      <contour>
        <pt x="142" y="632" on="1"/>
        <pt x="107" y="632" on="0"/>
        <pt x="76" y="661" on="0"/>
        <pt x="76" y="695" on="1"/>
        <pt x="76" y="728" on="0"/>
        <pt x="107" y="758" on="0"/>
        <pt x="142" y="758" on="1"/>
        <pt x="177" y="758" on="0"/>
        <pt x="208" y="727" on="0"/>
        <pt x="208" y="695" on="1"/>
        <pt x="208" y="663" on="0"/>
        <pt x="177" y="632" on="0"/>
      </contour>
    </TTGlyph>
    <TTGlyph name="Idotbelow" xMin="88" yMin="-191" xMax="209" yMax="740">
      <contour>
        <pt x="89" y="740" on="1"/>
        <pt x="208" y="740" on="1"/>
        <pt x="208" y="0" on="1"/>
        <pt x="89" y="0" on="1"/>
      </contour>
      <contour>
        <pt x="148" y="-191" on="1"/>
        <pt x="118" y="-191" on="0"/>
        <pt x="88" y="-164" on="0"/>
        <pt x="88" y="-133" on="1"/>
        <pt x="88" y="-74" on="0"/>
        <pt x="148" y="-74" on="1"/>
        <pt x="209" y="-74" on="0"/>
        <pt x="209" y="-133" on="1"/>
        <pt x="209" y="-164" on="0"/>
        <pt x="180" y="-191" on="0"/>
      </contour>
    </TTGlyph>
    <TTGlyph name="Idotbelow.sc" xMin="84" yMin="-155" xMax="199" yMax="577">
      <contour>
        <pt x="84" y="577" on="1"/>
        <pt x="199" y="577" on="1"/>
        <pt x="199" y="0" on="1"/>
        <pt x="84" y="0" on="1"/>
      </contour>
      <contour>
        <pt x="142" y="-155" on="1"/>
        <pt x="88" y="-155" on="0"/>
        <pt x="88" y="-104" on="1"/>
        <pt x="88" y="-52" on="0"/>
        <pt x="142" y="-52" on="1"/>
        <pt x="171" y="-52" on="0"/>
        <pt x="197" y="-77" on="0"/>
        <pt x="197" y="-104" on="1"/>
        <pt x="197" y="-130" on="0"/>
        <pt x="171" y="-155" on="0"/>
      </contour>
    </TTGlyph>
    <TTGlyph name="Igrave" xMin="11" yMin="0" xMax="208" yMax="963">
      <contour>
        <pt x="89" y="740" on="1"/>
        <pt x="208" y="740" on="1"/>
        <pt x="208" y="0" on="1"/>
        <pt x="89" y="0" on="1"/>
      </contour>
      <contour>
        <pt x="116" y="805" on="1"/>
        <pt x="11" y="963" on="1"/>
        <pt x="133" y="963" on="1"/>
        <pt x="204" y="818" on="1"/>
      </contour>
    </TTGlyph>
    <TTGlyph name="Igrave.sc" xMin="17" yMin="0" xMax="199" yMax="760">
      <contour>
        <pt x="84" y="577" on="1"/>
        <pt x="199" y="577" on="1"/>
        <pt x="199" y="0" on="1"/>
        <pt x="84" y="0" on="1"/>
      </contour>
      <contour>
        <pt x="112" y="629" on="1"/>
        <pt x="17" y="760" on="1"/>
        <pt x="134" y="760" on="1"/>
        <pt x="195" y="639" on="1"/>
      </contour>
    </TTGlyph>
    <TTGlyph name="Iinvertedbreve" xMin="-54" yMin="0" xMax="354" yMax="976">
      <contour>
        <pt x="89" y="740" on="1"/>
        <pt x="208" y="740" on="1"/>
        <pt x="208" y="0" on="1"/>
        <pt x="89" y="0" on="1"/>
      </contour>
      <contour>
        <pt x="271" y="819" on="1"/>
        <pt x="271" y="863" on="0"/>
        <pt x="213" y="912" on="0"/>
        <pt x="150" y="912" on="1"/>
        <pt x="87" y="912" on="0"/>
        <pt x="29" y="863" on="0"/>
        <pt x="29" y="819" on="1"/>
        <pt x="-54" y="819" on="1"/>
        <pt x="-54" y="888" on="0"/>
        <pt x="43" y="976" on="0"/>
        <pt x="150" y="976" on="1"/>
        <pt x="257" y="976" on="0"/>
        <pt x="354" y="889" on="0"/>
        <pt x="354" y="819" on="1"/>
      </contour>
    </TTGlyph>
    <TTGlyph name="Iinvertedbreve.sc" xMin="-41" yMin="0" xMax="327" yMax="770">
      <contour>
        <pt x="84" y="577" on="1"/>
        <pt x="199" y="577" on="1"/>
        <pt x="199" y="0" on="1"/>
        <pt x="84" y="0" on="1"/>
      </contour>
      <contour>
        <pt x="249" y="639" on="1"/>
        <pt x="249" y="673" on="0"/>
        <pt x="200" y="711" on="0"/>
        <pt x="144" y="711" on="1"/>
        <pt x="87" y="711" on="0"/>
        <pt x="37" y="673" on="0"/>
        <pt x="37" y="639" on="1"/>
        <pt x="-41" y="639" on="1"/>
        <pt x="-41" y="667" on="0"/>
        <pt x="-20" y="715" on="0"/>
        <pt x="24" y="750" on="0"/>
        <pt x="94" y="770" on="0"/>
        <pt x="144" y="770" on="1"/>
        <pt x="242" y="770" on="0"/>
        <pt x="327" y="696" on="0"/>
        <pt x="327" y="639" on="1"/>
      </contour>
    </TTGlyph>
    <TTGlyph name="Imacron" xMin="-33" yMin="0" xMax="336" yMax="925">
      <contour>
        <pt x="89" y="740" on="1"/>
        <pt x="208" y="740" on="1"/>
        <pt x="208" y="0" on="1"/>
        <pt x="89" y="0" on="1"/>
      </contour>
      <contour>
        <pt x="-33" y="925" on="1"/>
        <pt x="336" y="925" on="1"/>
        <pt x="336" y="842" on="1"/>
        <pt x="-33" y="842" on="1"/>
      </contour>
    </TTGlyph>
    <TTGlyph name="Imacron.sc" xMin="-22" yMin="0" xMax="313" yMax="733">
      <contour>
        <pt x="84" y="577" on="1"/>
        <pt x="199" y="577" on="1"/>
        <pt x="199" y="0" on="1"/>
        <pt x="84" y="0" on="1"/>
      </contour>
      <contour>
        <pt x="-22" y="733" on="1"/>
        <pt x="313" y="733" on="1"/>
        <pt x="313" y="657" on="1"/>
        <pt x="-22" y="657" on="1"/>
      </contour>
    </TTGlyph>
    <TTGlyph name="Iogonek" xMin="4" yMin="-220" xMax="208" yMax="740">
      <contour>
        <pt x="89" y="740" on="1"/>
        <pt x="208" y="740" on="1"/>
        <pt x="208" y="-16" on="1"/>
        <pt x="141" y="-48" on="0"/>
        <pt x="84" y="-98" on="0"/>
        <pt x="84" y="-124" on="1"/>
        <pt x="84" y="-154" on="0"/>
        <pt x="125" y="-154" on="1"/>
        <pt x="139" y="-154" on="0"/>
        <pt x="186" y="-147" on="0"/>
        <pt x="207" y="-142" on="1"/>
        <pt x="207" y="-208" on="1"/>
        <pt x="191" y="-214" on="0"/>
        <pt x="149" y="-220" on="0"/>
        <pt x="126" y="-220" on="1"/>
        <pt x="4" y="-220" on="0"/>
        <pt x="4" y="-135" on="1"/>
        <pt x="4" y="-98" on="0"/>
        <pt x="54" y="-34" on="0"/>
        <pt x="111" y="0" on="1"/>
        <pt x="89" y="0" on="1"/>
      </contour>
    </TTGlyph>
    <TTGlyph name="Iogonek.sc" xMin="13" yMin="-172" xMax="199" yMax="577">
      <contour>
        <pt x="84" y="577" on="1"/>
        <pt x="199" y="577" on="1"/>
        <pt x="199" y="-11" on="1"/>
        <pt x="136" y="-34" on="0"/>
        <pt x="89" y="-68" on="0"/>
        <pt x="89" y="-88" on="1"/>
        <pt x="89" y="-101" on="0"/>
        <pt x="107" y="-110" on="0"/>
        <pt x="124" y="-110" on="1"/>
        <pt x="138" y="-110" on="0"/>
        <pt x="183" y="-105" on="0"/>
        <pt x="198" y="-101" on="1"/>
        <pt x="198" y="-162" on="1"/>
        <pt x="181" y="-167" on="0"/>
        <pt x="143" y="-172" on="0"/>
        <pt x="123" y="-172" on="1"/>
        <pt x="69" y="-172" on="0"/>
        <pt x="13" y="-136" on="0"/>
        <pt x="13" y="-103" on="1"/>
        <pt x="13" y="-73" on="0"/>
        <pt x="54" y="-25" on="0"/>
        <pt x="102" y="0" on="1"/>
        <pt x="84" y="0" on="1"/>
      </contour>
    </TTGlyph>
    <TTGlyph name="Itilde" xMin="-71" yMin="0" xMax="387" yMax="955">
      <contour>
        <pt x="89" y="740" on="1"/>
        <pt x="208" y="740" on="1"/>
        <pt x="208" y="0" on="1"/>
        <pt x="89" y="0" on="1"/>
      </contour>
      <contour>
        <pt x="-71" y="865" on="1"/>
        <pt x="-39" y="911" on="0"/>
        <pt x="37" y="955" on="0"/>
        <pt x="73" y="955" on="1"/>
        <pt x="99" y="955" on="0"/>
        <pt x="146" y="942" on="0"/>
        <pt x="192" y="927" on="0"/>
        <pt x="238" y="915" on="0"/>
        <pt x="263" y="915" on="1"/>
        <pt x="289" y="915" on="0"/>
        <pt x="336" y="932" on="0"/>
        <pt x="364" y="953" on="1"/>
        <pt x="387" y="922" on="1"/>
        <pt x="356" y="877" on="0"/>
        <pt x="276" y="832" on="0"/>
        <pt x="238" y="832" on="1"/>
        <pt x="214" y="832" on="0"/>
        <pt x="167" y="844" on="0"/>
        <pt x="120" y="859" on="0"/>
        <pt x="73" y="871" on="0"/>
        <pt x="50" y="871" on="1"/>
        <pt x="26" y="871" on="0"/>
        <pt x="-21" y="856" on="0"/>
        <pt x="-47" y="835" on="1"/>
      </contour>
    </TTGlyph>
    <TTGlyph name="Itilde.sc" xMin="-57" yMin="0" xMax="355" yMax="756">
      <contour>
        <pt x="84" y="577" on="1"/>
        <pt x="199" y="577" on="1"/>
        <pt x="199" y="0" on="1"/>
        <pt x="84" y="0" on="1"/>
      </contour>
      <contour>
        <pt x="-57" y="675" on="1"/>
        <pt x="-28" y="716" on="0"/>
        <pt x="40" y="756" on="0"/>
        <pt x="73" y="756" on="1"/>
        <pt x="96" y="756" on="0"/>
        <pt x="139" y="747" on="0"/>
        <pt x="181" y="735" on="0"/>
        <pt x="222" y="726" on="0"/>
        <pt x="245" y="726" on="1"/>
        <pt x="268" y="726" on="0"/>
        <pt x="310" y="738" on="0"/>
        <pt x="335" y="754" on="1"/>
        <pt x="355" y="729" on="1"/>
        <pt x="326" y="689" on="0"/>
        <pt x="255" y="648" on="0"/>
        <pt x="221" y="648" on="1"/>
        <pt x="199" y="648" on="0"/>
        <pt x="156" y="658" on="0"/>
        <pt x="113" y="669" on="0"/>
        <pt x="71" y="679" on="0"/>
        <pt x="50" y="679" on="1"/>
        <pt x="28" y="679" on="0"/>
        <pt x="-13" y="667" on="0"/>
        <pt x="-37" y="650" on="1"/>
      </contour>
    </TTGlyph>
    <TTGlyph name="J" xMin="13" yMin="-195" xMax="210" yMax="740">
      <contour>
        <pt x="13" y="-159" on="1"/>
        <pt x="35" y="-111" on="0"/>
        <pt x="65" y="-29" on="0"/>
        <pt x="83" y="52" on="0"/>
        <pt x="91" y="138" on="0"/>
        <pt x="91" y="190" on="1"/>
        <pt x="91" y="740" on="1"/>
        <pt x="210" y="740" on="1"/>
        <pt x="210" y="182" on="1"/>
        <pt x="210" y="131" on="0"/>
        <pt x="198" y="43" on="0"/>
        <pt x="171" y="-44" on="0"/>
        <pt x="126" y="-138" on="0"/>
        <pt x="93" y="-195" on="1"/>
      </contour>
    </TTGlyph>
    <TTGlyph name="J.sc" xMin="19" yMin="-157" xMax="201" yMax="577">
      <contour>
        <pt x="19" y="-123" on="1"/>
        <pt x="38" y="-86" on="0"/>
        <pt x="64" y="-21" on="0"/>
        <pt x="79" y="42" on="0"/>
        <pt x="86" y="110" on="0"/>
        <pt x="86" y="150" on="1"/>
        <pt x="86" y="577" on="1"/>
        <pt x="201" y="577" on="1"/>
        <pt x="201" y="143" on="1"/>
        <pt x="201" y="102" on="0"/>
        <pt x="191" y="33" on="0"/>
        <pt x="166" y="-37" on="0"/>
        <pt x="125" y="-112" on="0"/>
        <pt x="95" y="-157" on="1"/>
      </contour>
    </TTGlyph>
    <TTGlyph name="Jcircumflex" xMin="-34" yMin="-195" xMax="340" yMax="973">
      <contour>
        <pt x="13" y="-159" on="1"/>
        <pt x="35" y="-111" on="0"/>
        <pt x="65" y="-29" on="0"/>
        <pt x="83" y="52" on="0"/>
        <pt x="91" y="138" on="0"/>
        <pt x="91" y="190" on="1"/>
        <pt x="91" y="740" on="1"/>
        <pt x="210" y="740" on="1"/>
        <pt x="210" y="182" on="1"/>
        <pt x="210" y="131" on="0"/>
        <pt x="198" y="43" on="0"/>
        <pt x="171" y="-44" on="0"/>
        <pt x="126" y="-138" on="0"/>
        <pt x="93" y="-195" on="1"/>
      </contour>
      <contour>
        <pt x="-34" y="896" on="1"/>
        <pt x="152" y="973" on="1"/>
        <pt x="340" y="896" on="1"/>
        <pt x="340" y="809" on="1"/>
        <pt x="153" y="885" on="1"/>
        <pt x="-34" y="809" on="1"/>
      </contour>
    </TTGlyph>
    <TTGlyph name="Jcircumflex.sc" xMin="-24" yMin="-157" xMax="314" yMax="769">
      <contour>
        <pt x="18" y="-123" on="1"/>
        <pt x="37" y="-86" on="0"/>
        <pt x="63" y="-21" on="0"/>
        <pt x="79" y="42" on="0"/>
        <pt x="86" y="110" on="0"/>
        <pt x="86" y="150" on="1"/>
        <pt x="86" y="577" on="1"/>
        <pt x="200" y="577" on="1"/>
        <pt x="200" y="143" on="1"/>
        <pt x="200" y="102" on="0"/>
        <pt x="190" y="33" on="0"/>
        <pt x="165" y="-37" on="0"/>
        <pt x="124" y="-112" on="0"/>
        <pt x="94" y="-157" on="1"/>
      </contour>
      <contour>
        <pt x="-24" y="708" on="1"/>
        <pt x="144" y="769" on="1"/>
        <pt x="314" y="708" on="1"/>
        <pt x="314" y="630" on="1"/>
        <pt x="145" y="690" on="1"/>
        <pt x="-24" y="630" on="1"/>
      </contour>
    </TTGlyph>
    <TTGlyph name="K" xMin="89" yMin="0" xMax="720" yMax="740">
      <contour>
        <pt x="89" y="740" on="1"/>
        <pt x="208" y="740" on="1"/>
        <pt x="208" y="423" on="1"/>
        <pt x="355" y="423" on="1"/>
        <pt x="569" y="740" on="1"/>
        <pt x="703" y="740" on="1"/>
        <pt x="475" y="413" on="1"/>
        <pt x="437" y="388" on="1"/>
        <pt x="437" y="380" on="1"/>
        <pt x="478" y="355" on="1"/>
        <pt x="720" y="0" on="1"/>
        <pt x="586" y="0" on="1"/>
        <pt x="367" y="328" on="1"/>
        <pt x="208" y="328" on="1"/>
        <pt x="208" y="0" on="1"/>
        <pt x="89" y="0" on="1"/>
      </contour>
    </TTGlyph>
    <TTGlyph name="K.sc" xMin="84" yMin="0" xMax="651" yMax="577">
      <contour>
        <pt x="84" y="577" on="1"/>
        <pt x="199" y="577" on="1"/>
        <pt x="199" y="335" on="1"/>
        <pt x="324" y="335" on="1"/>
        <pt x="507" y="577" on="1"/>
        <pt x="636" y="577" on="1"/>
        <pt x="438" y="324" on="1"/>
        <pt x="403" y="304" on="1"/>
        <pt x="403" y="298" on="1"/>
        <pt x="441" y="278" on="1"/>
        <pt x="651" y="0" on="1"/>
        <pt x="521" y="0" on="1"/>
        <pt x="335" y="248" on="1"/>
        <pt x="199" y="248" on="1"/>
        <pt x="199" y="0" on="1"/>
        <pt x="84" y="0" on="1"/>
      </contour>
    </TTGlyph>
    <TTGlyph name="Kcommaaccent" xMin="89" yMin="-220" xMax="720" yMax="740">
      <contour>
        <pt x="303" y="-70" on="1"/>
        <pt x="424" y="-70" on="1"/>
        <pt x="349" y="-220" on="1"/>
        <pt x="256" y="-220" on="1"/>
      </contour>
      <contour>
        <pt x="89" y="740" on="1"/>
        <pt x="208" y="740" on="1"/>
        <pt x="208" y="423" on="1"/>
        <pt x="355" y="423" on="1"/>
        <pt x="569" y="740" on="1"/>
        <pt x="703" y="740" on="1"/>
        <pt x="475" y="413" on="1"/>
        <pt x="437" y="388" on="1"/>
        <pt x="437" y="380" on="1"/>
        <pt x="478" y="355" on="1"/>
        <pt x="720" y="0" on="1"/>
        <pt x="586" y="0" on="1"/>
        <pt x="367" y="328" on="1"/>
        <pt x="208" y="328" on="1"/>
        <pt x="208" y="0" on="1"/>
        <pt x="89" y="0" on="1"/>
      </contour>
    </TTGlyph>
    <TTGlyph name="Kcommaaccent.sc" xMin="84" yMin="-172" xMax="651" yMax="577">
      <contour>
        <pt x="84" y="577" on="1"/>
        <pt x="199" y="577" on="1"/>
        <pt x="199" y="335" on="1"/>
        <pt x="324" y="335" on="1"/>
        <pt x="507" y="577" on="1"/>
        <pt x="636" y="577" on="1"/>
        <pt x="438" y="324" on="1"/>
        <pt x="403" y="304" on="1"/>
        <pt x="403" y="298" on="1"/>
        <pt x="441" y="278" on="1"/>
        <pt x="651" y="0" on="1"/>
        <pt x="521" y="0" on="1"/>
        <pt x="335" y="248" on="1"/>
        <pt x="199" y="248" on="1"/>
        <pt x="199" y="0" on="1"/>
        <pt x="84" y="0" on="1"/>
      </contour>
      <contour>
        <pt x="290" y="-55" on="1"/>
        <pt x="407" y="-55" on="1"/>
        <pt x="339" y="-172" on="1"/>
        <pt x="251" y="-172" on="1"/>
      </contour>
    </TTGlyph>
    <TTGlyph name="L" xMin="89" yMin="0" xMax="568" yMax="740">
      <contour>
        <pt x="89" y="740" on="1"/>
        <pt x="208" y="740" on="1"/>
        <pt x="208" y="93" on="1"/>
        <pt x="568" y="93" on="1"/>
        <pt x="568" y="0" on="1"/>
        <pt x="89" y="0" on="1"/>
      </contour>
    </TTGlyph>
    <TTGlyph name="L.sc" xMin="84" yMin="0" xMax="516" yMax="577">
      <contour>
        <pt x="84" y="577" on="1"/>
        <pt x="199" y="577" on="1"/>
        <pt x="199" y="88" on="1"/>
        <pt x="516" y="88" on="1"/>
        <pt x="516" y="0" on="1"/>
        <pt x="84" y="0" on="1"/>
      </contour>
    </TTGlyph>
    <TTGlyph name="Lacute" xMin="89" yMin="0" xMax="568" yMax="963">
      <contour>
        <pt x="103" y="813" on="1"/>
        <pt x="175" y="963" on="1"/>
        <pt x="296" y="963" on="1"/>
        <pt x="191" y="805" on="1"/>
      </contour>
      <contour>
        <pt x="89" y="740" on="1"/>
        <pt x="208" y="740" on="1"/>
        <pt x="208" y="93" on="1"/>
        <pt x="568" y="93" on="1"/>
        <pt x="568" y="0" on="1"/>
        <pt x="89" y="0" on="1"/>
      </contour>
    </TTGlyph>
    <TTGlyph name="Lacute.sc" xMin="84" yMin="0" xMax="516" yMax="760">
      <contour>
        <pt x="84" y="577" on="1"/>
        <pt x="199" y="577" on="1"/>
        <pt x="199" y="88" on="1"/>
        <pt x="516" y="88" on="1"/>
        <pt x="516" y="0" on="1"/>
        <pt x="84" y="0" on="1"/>
      </contour>
      <contour>
        <pt x="99" y="636" on="1"/>
        <pt x="161" y="760" on="1"/>
        <pt x="277" y="760" on="1"/>
        <pt x="183" y="629" on="1"/>
      </contour>
    </TTGlyph>
    <TTGlyph name="Lcaron" xMin="89" yMin="0" xMax="568" yMax="768">
      <contour>
        <pt x="418" y="768" on="1"/>
        <pt x="513" y="768" on="1"/>
        <pt x="479" y="540" on="1"/>
        <pt x="418" y="540" on="1"/>
      </contour>
      <contour>
        <pt x="89" y="740" on="1"/>
        <pt x="208" y="740" on="1"/>
        <pt x="208" y="93" on="1"/>
        <pt x="568" y="93" on="1"/>
        <pt x="568" y="0" on="1"/>
        <pt x="89" y="0" on="1"/>
      </contour>
    </TTGlyph>
    <TTGlyph name="Lcaron.sc" xMin="84" yMin="0" xMax="516" yMax="607">
      <contour>
        <pt x="84" y="577" on="1"/>
        <pt x="199" y="577" on="1"/>
        <pt x="199" y="88" on="1"/>
        <pt x="516" y="88" on="1"/>
        <pt x="516" y="0" on="1"/>
        <pt x="84" y="0" on="1"/>
      </contour>
      <contour>
        <pt x="377" y="607" on="1"/>
        <pt x="467" y="607" on="1"/>
        <pt x="436" y="429" on="1"/>
        <pt x="377" y="429" on="1"/>
      </contour>
    </TTGlyph>
    <TTGlyph name="Lcommaaccent" xMin="89" yMin="-220" xMax="568" yMax="740">
      <contour>
        <pt x="262" y="-70" on="1"/>
        <pt x="383" y="-70" on="1"/>
        <pt x="308" y="-220" on="1"/>
        <pt x="215" y="-220" on="1"/>
      </contour>
      <contour>
        <pt x="89" y="740" on="1"/>
        <pt x="208" y="740" on="1"/>
        <pt x="208" y="93" on="1"/>
        <pt x="568" y="93" on="1"/>
        <pt x="568" y="0" on="1"/>
        <pt x="89" y="0" on="1"/>
      </contour>
    </TTGlyph>
    <TTGlyph name="Lcommaaccent.sc" xMin="84" yMin="-172" xMax="516" yMax="577">
      <contour>
        <pt x="84" y="577" on="1"/>
        <pt x="199" y="577" on="1"/>
        <pt x="199" y="88" on="1"/>
        <pt x="516" y="88" on="1"/>
        <pt x="516" y="0" on="1"/>
        <pt x="84" y="0" on="1"/>
      </contour>
      <contour>
        <pt x="233" y="-55" on="1"/>
        <pt x="349" y="-55" on="1"/>
        <pt x="281" y="-172" on="1"/>
        <pt x="193" y="-172" on="1"/>
      </contour>
    </TTGlyph>
    <TTGlyph name="Ldot" xMin="89" yMin="0" xMax="568" yMax="740">
      <contour>
        <pt x="89" y="740" on="1"/>
        <pt x="208" y="740" on="1"/>
        <pt x="208" y="93" on="1"/>
        <pt x="568" y="93" on="1"/>
        <pt x="568" y="0" on="1"/>
        <pt x="89" y="0" on="1"/>
      </contour>
      <contour>
        <pt x="483" y="315" on="1"/>
        <pt x="446" y="315" on="0"/>
        <pt x="412" y="348" on="0"/>
        <pt x="412" y="384" on="1"/>
        <pt x="412" y="420" on="0"/>
        <pt x="446" y="453" on="0"/>
        <pt x="483" y="453" on="1"/>
        <pt x="519" y="453" on="0"/>
        <pt x="554" y="420" on="0"/>
        <pt x="554" y="384" on="1"/>
        <pt x="554" y="315" on="0"/>
      </contour>
    </TTGlyph>
    <TTGlyph name="Ldot.sc" xMin="84" yMin="0" xMax="516" yMax="577">
      <contour>
        <pt x="84" y="577" on="1"/>
        <pt x="199" y="577" on="1"/>
        <pt x="199" y="88" on="1"/>
        <pt x="516" y="88" on="1"/>
        <pt x="516" y="0" on="1"/>
        <pt x="84" y="0" on="1"/>
      </contour>
      <contour>
        <pt x="440" y="241" on="1"/>
        <pt x="406" y="241" on="0"/>
        <pt x="374" y="271" on="0"/>
        <pt x="374" y="304" on="1"/>
        <pt x="374" y="337" on="0"/>
        <pt x="406" y="367" on="0"/>
        <pt x="440" y="367" on="1"/>
        <pt x="475" y="367" on="0"/>
        <pt x="506" y="336" on="0"/>
        <pt x="506" y="304" on="1"/>
        <pt x="506" y="272" on="0"/>
        <pt x="475" y="241" on="0"/>
      </contour>
    </TTGlyph>
    <TTGlyph name="Lslash" xMin="15" yMin="0" xMax="588" yMax="740">
      <contour>
        <pt x="15" y="318" on="1"/>
        <pt x="109" y="368" on="1"/>
        <pt x="109" y="740" on="1"/>
        <pt x="228" y="740" on="1"/>
        <pt x="228" y="432" on="1"/>
        <pt x="398" y="524" on="1"/>
        <pt x="398" y="433" on="1"/>
        <pt x="228" y="340" on="1"/>
        <pt x="228" y="93" on="1"/>
        <pt x="588" y="93" on="1"/>
        <pt x="588" y="0" on="1"/>
        <pt x="109" y="0" on="1"/>
        <pt x="109" y="276" on="1"/>
        <pt x="15" y="225" on="1"/>
      </contour>
    </TTGlyph>
    <TTGlyph name="Lslash.sc" xMin="21" yMin="0" xMax="533" yMax="577">
      <contour>
        <pt x="21" y="261" on="1"/>
        <pt x="102" y="301" on="1"/>
        <pt x="102" y="577" on="1"/>
        <pt x="215" y="577" on="1"/>
        <pt x="215" y="344" on="1"/>
        <pt x="364" y="418" on="1"/>
        <pt x="364" y="334" on="1"/>
        <pt x="215" y="260" on="1"/>
        <pt x="215" y="88" on="1"/>
        <pt x="533" y="88" on="1"/>
        <pt x="533" y="0" on="1"/>
        <pt x="102" y="0" on="1"/>
        <pt x="102" y="216" on="1"/>
        <pt x="21" y="176" on="1"/>
      </contour>
    </TTGlyph>
    <TTGlyph name="M" xMin="89" yMin="0" xMax="906" yMax="740">
      <contour>
        <pt x="89" y="740" on="1"/>
        <pt x="251" y="740" on="1"/>
        <pt x="427" y="332" on="1"/>
        <pt x="494" y="158" on="1"/>
        <pt x="501" y="158" on="1"/>
        <pt x="568" y="332" on="1"/>
        <pt x="744" y="740" on="1"/>
        <pt x="906" y="740" on="1"/>
        <pt x="906" y="0" on="1"/>
        <pt x="799" y="0" on="1"/>
        <pt x="799" y="605" on="1"/>
        <pt x="792" y="605" on="1"/>
        <pt x="699" y="366" on="1"/>
        <pt x="548" y="29" on="1"/>
        <pt x="447" y="29" on="1"/>
        <pt x="296" y="366" on="1"/>
        <pt x="202" y="605" on="1"/>
        <pt x="196" y="605" on="1"/>
        <pt x="196" y="0" on="1"/>
        <pt x="89" y="0" on="1"/>
      </contour>
    </TTGlyph>
    <TTGlyph name="M.sc" xMin="84" yMin="0" xMax="814" yMax="577">
      <contour>
        <pt x="84" y="577" on="1"/>
        <pt x="233" y="577" on="1"/>
        <pt x="385" y="281" on="1"/>
        <pt x="445" y="147" on="1"/>
        <pt x="453" y="147" on="1"/>
        <pt x="514" y="281" on="1"/>
        <pt x="666" y="577" on="1"/>
        <pt x="814" y="577" on="1"/>
        <pt x="814" y="0" on="1"/>
        <pt x="712" y="0" on="1"/>
        <pt x="712" y="455" on="1"/>
        <pt x="706" y="455" on="1"/>
        <pt x="619" y="263" on="1"/>
        <pt x="496" y="22" on="1"/>
        <pt x="403" y="22" on="1"/>
        <pt x="279" y="263" on="1"/>
        <pt x="193" y="455" on="1"/>
        <pt x="187" y="455" on="1"/>
        <pt x="187" y="0" on="1"/>
        <pt x="84" y="0" on="1"/>
      </contour>
    </TTGlyph>
    <TTGlyph name="N" xMin="89" yMin="0" xMax="745" yMax="740">
      <contour>
        <pt x="89" y="740" on="1"/>
        <pt x="186" y="740" on="1"/>
        <pt x="568" y="260" on="1"/>
        <pt x="632" y="171" on="1"/>
        <pt x="639" y="171" on="1"/>
        <pt x="639" y="740" on="1"/>
        <pt x="745" y="740" on="1"/>
        <pt x="745" y="0" on="1"/>
        <pt x="647" y="0" on="1"/>
        <pt x="267" y="478" on="1"/>
        <pt x="202" y="568" on="1"/>
        <pt x="195" y="568" on="1"/>
        <pt x="195" y="0" on="1"/>
        <pt x="89" y="0" on="1"/>
      </contour>
    </TTGlyph>
    <TTGlyph name="N.sc" xMin="84" yMin="0" xMax="658" yMax="577">
      <contour>
        <pt x="84" y="577" on="1"/>
        <pt x="173" y="577" on="1"/>
        <pt x="490" y="225" on="1"/>
        <pt x="549" y="156" on="1"/>
        <pt x="555" y="156" on="1"/>
        <pt x="555" y="577" on="1"/>
        <pt x="658" y="577" on="1"/>
        <pt x="658" y="0" on="1"/>
        <pt x="568" y="0" on="1"/>
        <pt x="254" y="348" on="1"/>
        <pt x="193" y="420" on="1"/>
        <pt x="187" y="420" on="1"/>
        <pt x="187" y="0" on="1"/>
        <pt x="84" y="0" on="1"/>
      </contour>
    </TTGlyph>
    <TTGlyph name="Nacute" xMin="89" yMin="0" xMax="745" yMax="963">
      <contour>
        <pt x="353" y="813" on="1"/>
        <pt x="425" y="963" on="1"/>
        <pt x="546" y="963" on="1"/>
        <pt x="441" y="805" on="1"/>
      </contour>
      <contour>
        <pt x="89" y="740" on="1"/>
        <pt x="186" y="740" on="1"/>
        <pt x="568" y="260" on="1"/>
        <pt x="632" y="171" on="1"/>
        <pt x="639" y="171" on="1"/>
        <pt x="639" y="740" on="1"/>
        <pt x="745" y="740" on="1"/>
        <pt x="745" y="0" on="1"/>
        <pt x="647" y="0" on="1"/>
        <pt x="267" y="478" on="1"/>
        <pt x="202" y="568" on="1"/>
        <pt x="195" y="568" on="1"/>
        <pt x="195" y="0" on="1"/>
        <pt x="89" y="0" on="1"/>
      </contour>
    </TTGlyph>
    <TTGlyph name="Nacute.sc" xMin="84" yMin="0" xMax="658" yMax="760">
      <contour>
        <pt x="84" y="577" on="1"/>
        <pt x="173" y="577" on="1"/>
        <pt x="490" y="225" on="1"/>
        <pt x="549" y="156" on="1"/>
        <pt x="555" y="156" on="1"/>
        <pt x="555" y="577" on="1"/>
        <pt x="658" y="577" on="1"/>
        <pt x="658" y="0" on="1"/>
        <pt x="568" y="0" on="1"/>
        <pt x="254" y="348" on="1"/>
        <pt x="193" y="420" on="1"/>
        <pt x="187" y="420" on="1"/>
        <pt x="187" y="0" on="1"/>
        <pt x="84" y="0" on="1"/>
      </contour>
      <contour>
        <pt x="312" y="636" on="1"/>
        <pt x="373" y="760" on="1"/>
        <pt x="489" y="760" on="1"/>
        <pt x="395" y="629" on="1"/>
      </contour>
    </TTGlyph>
    <TTGlyph name="Ncaron" xMin="89" yMin="0" xMax="745" yMax="973">
      <contour>
        <pt x="231" y="973" on="1"/>
        <pt x="418" y="896" on="1"/>
        <pt x="604" y="973" on="1"/>
        <pt x="604" y="885" on="1"/>
        <pt x="416" y="809" on="1"/>
        <pt x="231" y="885" on="1"/>
      </contour>
      <contour>
        <pt x="89" y="740" on="1"/>
        <pt x="186" y="740" on="1"/>
        <pt x="568" y="260" on="1"/>
        <pt x="632" y="171" on="1"/>
        <pt x="639" y="171" on="1"/>
        <pt x="639" y="740" on="1"/>
        <pt x="745" y="740" on="1"/>
        <pt x="745" y="0" on="1"/>
        <pt x="647" y="0" on="1"/>
        <pt x="267" y="478" on="1"/>
        <pt x="202" y="568" on="1"/>
        <pt x="195" y="568" on="1"/>
        <pt x="195" y="0" on="1"/>
        <pt x="89" y="0" on="1"/>
      </contour>
    </TTGlyph>
    <TTGlyph name="Ncaron.sc" xMin="84" yMin="0" xMax="658" yMax="769">
      <contour>
        <pt x="84" y="577" on="1"/>
        <pt x="173" y="577" on="1"/>
        <pt x="490" y="225" on="1"/>
        <pt x="549" y="156" on="1"/>
        <pt x="555" y="156" on="1"/>
        <pt x="555" y="577" on="1"/>
        <pt x="658" y="577" on="1"/>
        <pt x="658" y="0" on="1"/>
        <pt x="568" y="0" on="1"/>
        <pt x="254" y="348" on="1"/>
        <pt x="193" y="420" on="1"/>
        <pt x="187" y="420" on="1"/>
        <pt x="187" y="0" on="1"/>
        <pt x="84" y="0" on="1"/>
      </contour>
      <contour>
        <pt x="203" y="691" on="1"/>
        <pt x="203" y="769" on="1"/>
        <pt x="372" y="709" on="1"/>
        <pt x="541" y="769" on="1"/>
        <pt x="541" y="691" on="1"/>
        <pt x="370" y="630" on="1"/>
      </contour>
    </TTGlyph>
    <TTGlyph name="Ncommaaccent" xMin="89" yMin="-220" xMax="745" yMax="740">
      <contour>
        <pt x="368" y="-70" on="1"/>
        <pt x="489" y="-70" on="1"/>
        <pt x="414" y="-220" on="1"/>
        <pt x="321" y="-220" on="1"/>
      </contour>
      <contour>
        <pt x="89" y="740" on="1"/>
        <pt x="186" y="740" on="1"/>
        <pt x="568" y="260" on="1"/>
        <pt x="632" y="171" on="1"/>
        <pt x="639" y="171" on="1"/>
        <pt x="639" y="740" on="1"/>
        <pt x="745" y="740" on="1"/>
        <pt x="745" y="0" on="1"/>
        <pt x="647" y="0" on="1"/>
        <pt x="267" y="478" on="1"/>
        <pt x="202" y="568" on="1"/>
        <pt x="195" y="568" on="1"/>
        <pt x="195" y="0" on="1"/>
        <pt x="89" y="0" on="1"/>
      </contour>
    </TTGlyph>
    <TTGlyph name="Ncommaaccent.sc" xMin="84" yMin="-172" xMax="658" yMax="577">
      <contour>
        <pt x="84" y="577" on="1"/>
        <pt x="173" y="577" on="1"/>
        <pt x="490" y="225" on="1"/>
        <pt x="549" y="156" on="1"/>
        <pt x="555" y="156" on="1"/>
        <pt x="555" y="577" on="1"/>
        <pt x="658" y="577" on="1"/>
        <pt x="658" y="0" on="1"/>
        <pt x="568" y="0" on="1"/>
        <pt x="254" y="348" on="1"/>
        <pt x="193" y="420" on="1"/>
        <pt x="187" y="420" on="1"/>
        <pt x="187" y="0" on="1"/>
        <pt x="84" y="0" on="1"/>
      </contour>
      <contour>
        <pt x="322" y="-55" on="1"/>
        <pt x="439" y="-55" on="1"/>
        <pt x="370" y="-172" on="1"/>
        <pt x="283" y="-172" on="1"/>
      </contour>
    </TTGlyph>
    <TTGlyph name="Ndotaccent" xMin="89" yMin="0" xMax="745" yMax="952">
      <contour>
        <pt x="418" y="814" on="1"/>
        <pt x="382" y="814" on="0"/>
        <pt x="347" y="846" on="0"/>
        <pt x="347" y="882" on="1"/>
        <pt x="347" y="919" on="0"/>
        <pt x="382" y="952" on="0"/>
        <pt x="418" y="952" on="1"/>
        <pt x="489" y="952" on="0"/>
        <pt x="489" y="882" on="1"/>
        <pt x="489" y="814" on="0"/>
      </contour>
      <contour>
        <pt x="89" y="740" on="1"/>
        <pt x="186" y="740" on="1"/>
        <pt x="568" y="260" on="1"/>
        <pt x="632" y="171" on="1"/>
        <pt x="639" y="171" on="1"/>
        <pt x="639" y="740" on="1"/>
        <pt x="745" y="740" on="1"/>
        <pt x="745" y="0" on="1"/>
        <pt x="647" y="0" on="1"/>
        <pt x="267" y="478" on="1"/>
        <pt x="202" y="568" on="1"/>
        <pt x="195" y="568" on="1"/>
        <pt x="195" y="0" on="1"/>
        <pt x="89" y="0" on="1"/>
      </contour>
    </TTGlyph>
    <TTGlyph name="Ndotaccent.sc" xMin="84" yMin="0" xMax="658" yMax="758">
      <contour>
        <pt x="84" y="577" on="1"/>
        <pt x="173" y="577" on="1"/>
        <pt x="490" y="225" on="1"/>
        <pt x="549" y="156" on="1"/>
        <pt x="555" y="156" on="1"/>
        <pt x="555" y="577" on="1"/>
        <pt x="658" y="577" on="1"/>
        <pt x="658" y="0" on="1"/>
        <pt x="568" y="0" on="1"/>
        <pt x="254" y="348" on="1"/>
        <pt x="193" y="420" on="1"/>
        <pt x="187" y="420" on="1"/>
        <pt x="187" y="0" on="1"/>
        <pt x="84" y="0" on="1"/>
      </contour>
      <contour>
        <pt x="373" y="632" on="1"/>
        <pt x="338" y="632" on="0"/>
        <pt x="307" y="661" on="0"/>
        <pt x="307" y="695" on="1"/>
        <pt x="307" y="728" on="0"/>
        <pt x="338" y="758" on="0"/>
        <pt x="373" y="758" on="1"/>
        <pt x="439" y="758" on="0"/>
        <pt x="439" y="695" on="1"/>
        <pt x="439" y="632" on="0"/>
      </contour>
    </TTGlyph>
    <TTGlyph name="Ntilde" xMin="89" yMin="0" xMax="745" yMax="955">
      <contour>
        <pt x="197" y="865" on="1"/>
        <pt x="229" y="911" on="0"/>
        <pt x="305" y="955" on="0"/>
        <pt x="341" y="955" on="1"/>
        <pt x="367" y="955" on="0"/>
        <pt x="414" y="942" on="0"/>
        <pt x="460" y="927" on="0"/>
        <pt x="506" y="915" on="0"/>
        <pt x="531" y="915" on="1"/>
        <pt x="557" y="915" on="0"/>
        <pt x="604" y="932" on="0"/>
        <pt x="632" y="953" on="1"/>
        <pt x="655" y="922" on="1"/>
        <pt x="624" y="877" on="0"/>
        <pt x="544" y="832" on="0"/>
        <pt x="506" y="832" on="1"/>
        <pt x="482" y="832" on="0"/>
        <pt x="435" y="844" on="0"/>
        <pt x="388" y="859" on="0"/>
        <pt x="341" y="871" on="0"/>
        <pt x="318" y="871" on="1"/>
        <pt x="294" y="871" on="0"/>
        <pt x="247" y="856" on="0"/>
        <pt x="221" y="835" on="1"/>
      </contour>
      <contour>
        <pt x="89" y="740" on="1"/>
        <pt x="186" y="740" on="1"/>
        <pt x="568" y="260" on="1"/>
        <pt x="632" y="171" on="1"/>
        <pt x="639" y="171" on="1"/>
        <pt x="639" y="740" on="1"/>
        <pt x="745" y="740" on="1"/>
        <pt x="745" y="0" on="1"/>
        <pt x="647" y="0" on="1"/>
        <pt x="267" y="478" on="1"/>
        <pt x="202" y="568" on="1"/>
        <pt x="195" y="568" on="1"/>
        <pt x="195" y="0" on="1"/>
        <pt x="89" y="0" on="1"/>
      </contour>
    </TTGlyph>
    <TTGlyph name="Ntilde.sc" xMin="84" yMin="0" xMax="658" yMax="756">
      <contour>
        <pt x="173" y="675" on="1"/>
        <pt x="202" y="716" on="0"/>
        <pt x="271" y="756" on="0"/>
        <pt x="304" y="756" on="1"/>
        <pt x="327" y="756" on="0"/>
        <pt x="370" y="747" on="0"/>
        <pt x="412" y="735" on="0"/>
        <pt x="453" y="726" on="0"/>
        <pt x="476" y="726" on="1"/>
        <pt x="498" y="726" on="0"/>
        <pt x="540" y="738" on="0"/>
        <pt x="565" y="754" on="1"/>
        <pt x="585" y="729" on="1"/>
        <pt x="556" y="689" on="0"/>
        <pt x="485" y="648" on="0"/>
        <pt x="451" y="648" on="1"/>
        <pt x="429" y="648" on="0"/>
        <pt x="386" y="658" on="0"/>
        <pt x="343" y="669" on="0"/>
        <pt x="301" y="679" on="0"/>
        <pt x="280" y="679" on="1"/>
        <pt x="258" y="679" on="0"/>
        <pt x="217" y="667" on="0"/>
        <pt x="194" y="650" on="1"/>
      </contour>
      <contour>
        <pt x="84" y="577" on="1"/>
        <pt x="173" y="577" on="1"/>
        <pt x="490" y="225" on="1"/>
        <pt x="549" y="156" on="1"/>
        <pt x="555" y="156" on="1"/>
        <pt x="555" y="577" on="1"/>
        <pt x="658" y="577" on="1"/>
        <pt x="658" y="0" on="1"/>
        <pt x="568" y="0" on="1"/>
        <pt x="254" y="348" on="1"/>
        <pt x="193" y="420" on="1"/>
        <pt x="187" y="420" on="1"/>
        <pt x="187" y="0" on="1"/>
        <pt x="84" y="0" on="1"/>
      </contour>
    </TTGlyph>
</ttFont>
